SplineFontDB: 3.0
FontName: SPRamasun
FullName: SP Ramasun
FamilyName: SP Ramasun
Weight: Book
Copyright: Copyright (c) 2006 by Department of Intellectual Property (DIP), Ministry of Commerce and Software Industry Promotion Agency (Public Organization) (SIPA). All rights reserved.
Version: 2.2
ItalicAngle: 0
UnderlinePosition: -35
UnderlineWidth: 30
Ascent: 800
Descent: 200
LayerCount: 2
Layer: 0 0 "Back"  1
Layer: 1 0 "Fore"  0
XUID: [1021 375 425136265 11472835]
FSType: 0
OS2Version: 3
OS2_WeightWidthSlopeOnly: 0
OS2_UseTypoMetrics: 1
CreationTime: 1158666480
ModificationTime: 1240742664
PfmFamily: 17
TTFWeight: 400
TTFWidth: 5
LineGap: 60
VLineGap: 0
Panose: 2 0 5 6 0 0 0 2 0 4
OS2TypoAscent: 0
OS2TypoAOffset: 1
OS2TypoDescent: 0
OS2TypoDOffset: 1
OS2TypoLinegap: 0
OS2WinAscent: 16
OS2WinAOffset: 1
OS2WinDescent: -207
OS2WinDOffset: 1
HheadAscent: 16
HheadAOffset: 1
HheadDescent: 207
HheadDOffset: 1
OS2SubXSize: 700
OS2SubYSize: 650
OS2SubXOff: 0
OS2SubYOff: 140
OS2SupXSize: 700
OS2SupYSize: 650
OS2SupXOff: 0
OS2SupYOff: 477
OS2StrikeYSize: 30
OS2StrikeYPos: 250
OS2FamilyClass: 773
OS2Vendor: 'ASSA'
Lookup: 4 0 0 "'frac' Diagonal Fractions in Latin lookup 0"  {"'frac' Diagonal Fractions in Latin lookup 0 subtable"  } ['frac' ('latn' <'dflt' > ) ]
Lookup: 6 0 0 "'liga' Standard Ligatures in Latin lookup 1"  {"'liga' Standard Ligatures in Latin lookup 1 subtable"  } ['liga' ('latn' <'dflt' > ) ]
Lookup: 6 0 0 "'liga' Standard Ligatures in Latin lookup 2"  {"'liga' Standard Ligatures in Latin lookup 2 subtable"  } ['liga' ('latn' <'dflt' > ) ]
Lookup: 6 0 0 "'liga' Standard Ligatures in Latin lookup 3"  {"'liga' Standard Ligatures in Latin lookup 3 subtable"  } ['liga' ('latn' <'dflt' > ) ]
Lookup: 6 0 0 "'liga' Standard Ligatures in Latin lookup 4"  {"'liga' Standard Ligatures in Latin lookup 4 subtable"  } ['liga' ('latn' <'dflt' > ) ]

StartChar: .notdef
Encoding: 65536 -1 0
Width: 647
VWidth: 1661
Flags: W
HStem: 0 60<113 502> 897 60<113 502>
VStem: 53 60<60 897> 502 59<60 897>
LayerCount: 2
Fore
SplineSet
53 957 m 1
 561 957 l 1
 561 0 l 1
 53 0 l 1
 53 957 l 1
502 60 m 1
 502 897 l 1
 113 897 l 1
 113 60 l 1
 502 60 l 1
EndSplineSet
Validated: 1
EndChar

StartChar: numbersign
Encoding: 35 35 4
Width: 589
VWidth: 1661
Flags: W
HStem: 0 21G<130 191.267 309 371.133> 150 59<63 146 213 326 390 475> 389 60<88 171 238 351 417 500>
LayerCount: 2
Fore
SplineSet
500 389 m 1
 410 389 l 1
 390 209 l 1
 480 209 l 1
 475 150 l 1
 385 150 l 1
 369 0 l 1
 309 0 l 1
 326 150 l 1
 206 150 l 1
 189 0 l 1
 130 0 l 1
 146 150 l 1
 56 150 l 1
 63 209 l 1
 153 209 l 1
 171 389 l 1
 81 389 l 1
 88 449 l 1
 178 449 l 1
 193 598 l 1
 253 598 l 1
 238 449 l 1
 357 449 l 1
 372 598 l 1
 432 598 l 1
 417 449 l 1
 507 449 l 1
 500 389 l 1
331 209 m 1
 351 389 l 1
 231 389 l 1
 213 209 l 1
 331 209 l 1
EndSplineSet
Validated: 1
EndChar

StartChar: dollar
Encoding: 36 36 5
Width: 616
VWidth: 1661
Flags: W
HStem: -60 120<262 322> 0 60<183 262 322 417> 299 58<168 417> 508 21G<457 517> 598 120<262 322> 598 60<168 262 322 402>
VStem: 53 60<412 543> 68 60<115 150> 262 60<-60 0 658 718> 457 60<508 543> 472 60<115 244>
LayerCount: 2
Fore
SplineSet
442 357 m 1x36c0
 532 269 l 1
 532 90 l 1
 442 0 l 1
 322 0 l 1x76a0
 322 -60 l 1
 262 -60 l 1xb2a0
 262 0 l 1
 158 0 l 1
 68 90 l 1
 68 150 l 1
 128 150 l 1
 128 115 l 1x71a0
 183 60 l 1
 417 60 l 1
 472 115 l 1
 472 244 l 1
 417 299 l 1
 143 299 l 1
 53 387 l 1
 53 568 l 1
 143 658 l 1
 262 658 l 1x76a0
 262 718 l 1
 322 718 l 1x3aa0
 322 658 l 1
 427 658 l 1
 517 568 l 1
 517 508 l 1
 457 508 l 1
 457 543 l 1
 402 598 l 1
 168 598 l 1
 113 543 l 1
 113 412 l 1
 168 357 l 1
 442 357 l 1x36c0
EndSplineSet
Validated: 1
EndChar

StartChar: percent
Encoding: 37 37 6
Width: 677
VWidth: 1661
Flags: W
HStem: 0 21G<86 165.476> 60 51<439 512> 276 53<439 512> 389 51<140 213> 605 53<140 213>
VStem: 56 54<472 575> 244 52<472 575> 355 54<143 246> 542 53<143 246>
LayerCount: 2
Fore
SplineSet
234 389 m 1
 118 389 l 1
 56 450 l 1
 56 596 l 1
 118 658 l 1
 234 658 l 1
 296 596 l 1
 296 450 l 1
 234 389 l 1
110 575 m 1
 110 472 l 1
 140 440 l 1
 213 440 l 1
 244 472 l 1
 244 575 l 1
 213 605 l 1
 140 605 l 1
 110 575 l 1
533 329 m 1
 595 267 l 1
 595 121 l 1
 533 60 l 1
 417 60 l 1
 355 121 l 1
 355 267 l 1
 417 329 l 1
 533 329 l 1
542 143 m 1
 542 246 l 1
 512 276 l 1
 439 276 l 1
 409 246 l 1
 409 143 l 1
 439 111 l 1
 512 111 l 1
 542 143 l 1
497 718 m 1
 566 718 l 1
 154 0 l 1
 86 0 l 1
 497 718 l 1
EndSplineSet
Validated: 1
EndChar

StartChar: ampersand
Encoding: 38 38 7
Width: 676
VWidth: 1661
Flags: W
HStem: 0 60<168 417> 329 60<198 472 532 591> 658 60<198 387>
VStem: 53 60<115 274> 83 60<442 603> 442 60<568 603> 472 60<115 329 389 449>
CounterMasks: 1 e0
LayerCount: 2
Fore
SplineSet
591 389 m 1xea
 591 329 l 1
 532 329 l 1
 532 90 l 1xea
 442 0 l 1
 143 0 l 1xec
 53 90 l 1
 53 299 l 1xf0
 128 374 l 1
 83 419 l 1
 83 628 l 1
 173 718 l 1
 412 718 l 1
 502 628 l 1
 502 568 l 1
 442 568 l 1
 442 603 l 1xec
 387 658 l 1
 198 658 l 1
 143 603 l 1
 143 442 l 1
 198 389 l 1
 472 389 l 1
 472 449 l 1
 532 449 l 1
 532 389 l 1
 591 389 l 1xea
472 115 m 1
 472 329 l 1
 168 329 l 1
 113 274 l 1
 113 115 l 1xf2
 168 60 l 1
 417 60 l 1
 472 115 l 1
EndSplineSet
Validated: 1
EndChar

StartChar: quotesingle
Encoding: 39 39 8
Width: 199
VWidth: 1661
Flags: W
HStem: 568 150<70 100>
VStem: 70 30<568 638>
LayerCount: 2
Fore
SplineSet
100 568 m 1
 70 568 l 1
 55 718 l 1
 115 718 l 1
 100 568 l 1
EndSplineSet
Validated: 1
EndChar

StartChar: parenleft
Encoding: 40 40 9
Width: 287
VWidth: 1661
Flags: W
HStem: -120 60<169 204> 777 59<169 204>
VStem: 55 60<-5 723>
LayerCount: 2
Fore
SplineSet
204 -60 m 1
 204 -120 l 1
 145 -120 l 1
 55 -30 l 1
 55 746 l 1
 145 836 l 1
 204 836 l 1
 204 777 l 1
 169 777 l 1
 115 723 l 1
 115 -5 l 1
 169 -60 l 1
 204 -60 l 1
EndSplineSet
Validated: 1
EndChar

StartChar: parenright
Encoding: 41 41 10
Width: 232
VWidth: 1661
Flags: W
HStem: -120 60<0 35> 777 59<0 35>
VStem: 90 60<-5 723>
LayerCount: 2
Fore
SplineSet
0 -60 m 1
 35 -60 l 1
 90 -5 l 1
 90 723 l 1
 35 777 l 1
 0 777 l 1
 0 836 l 1
 60 836 l 1
 150 746 l 1
 150 -30 l 1
 60 -120 l 1
 0 -120 l 1
 0 -60 l 1
EndSplineSet
Validated: 1
EndChar

StartChar: asterisk
Encoding: 42 42 11
Width: 375
VWidth: 1661
Flags: W
HStem: 478 240
VStem: 55 236
LayerCount: 2
Fore
SplineSet
291 631 m 1
 211 598 l 1
 291 563 l 1
 261 512 l 1
 191 565 l 1
 203 478 l 1
 143 478 l 1
 153 565 l 1
 85 512 l 1
 55 563 l 1
 135 598 l 1
 55 631 l 1
 85 683 l 1
 153 630 l 1
 143 718 l 1
 203 718 l 1
 191 630 l 1
 261 683 l 1
 291 631 l 1
EndSplineSet
Validated: 1
EndChar

StartChar: plus
Encoding: 43 43 12
Width: 672
VWidth: 1661
Flags: W
HStem: 326 59<50 289 349 588>
VStem: 289 60<86 326 385 625>
LayerCount: 2
Fore
SplineSet
588 385 m 1
 588 326 l 1
 349 326 l 1
 349 86 l 1
 289 86 l 1
 289 326 l 1
 50 326 l 1
 50 385 l 1
 289 385 l 1
 289 625 l 1
 349 625 l 1
 349 385 l 1
 588 385 l 1
EndSplineSet
Validated: 1
EndChar

StartChar: comma
Encoding: 44 44 13
Width: 250
VWidth: 1661
Flags: W
HStem: -90 210
VStem: 48 120<35 83>
LayerCount: 2
Fore
SplineSet
168 83 m 1
 168 28 l 1
 78 -90 l 1
 48 -90 l 1
 93 0 l 1
 83 0 l 1
 48 35 l 1
 48 83 l 1
 83 120 l 1
 133 120 l 1
 168 83 l 1
EndSplineSet
Validated: 1
EndChar

StartChar: hyphen
Encoding: 45 45 14
Width: 438
VWidth: 1661
Flags: W
HStem: 239 60<56 355>
VStem: 56 299<239 299>
LayerCount: 2
Fore
SplineSet
355 239 m 1
 56 239 l 1
 56 299 l 1
 355 299 l 1
 355 239 l 1
EndSplineSet
Validated: 1
EndChar

StartChar: period
Encoding: 46 46 15
Width: 250
VWidth: 1661
Flags: W
HStem: 0 120<83 133>
VStem: 48 120<35 83>
LayerCount: 2
Fore
SplineSet
168 83 m 1
 168 35 l 1
 133 0 l 1
 83 0 l 1
 48 35 l 1
 48 83 l 1
 83 120 l 1
 133 120 l 1
 168 83 l 1
EndSplineSet
Validated: 1
EndChar

StartChar: slash
Encoding: 47 47 16
Width: 564
VWidth: 1661
Flags: W
HStem: 0 21G<0 79.4763>
LayerCount: 2
Fore
SplineSet
412 718 m 1
 480 718 l 1
 68 0 l 1
 0 0 l 1
 412 718 l 1
EndSplineSet
Validated: 1
EndChar

StartChar: zero
Encoding: 48 48 17
Width: 586
VWidth: 1661
Flags: W
HStem: 0 60<168 387> 656 60<168 389>
VStem: 53 60<115 603> 442 60<115 603>
LayerCount: 2
Fore
SplineSet
412 716 m 1
 502 628 l 1
 502 90 l 1
 412 0 l 1
 143 0 l 1
 53 90 l 1
 53 626 l 1
 143 716 l 1
 412 716 l 1
442 115 m 1
 442 603 l 1
 389 656 l 1
 168 656 l 1
 113 603 l 1
 113 115 l 1
 168 60 l 1
 387 60 l 1
 442 115 l 1
EndSplineSet
Validated: 1
EndChar

StartChar: one
Encoding: 49 49 18
Width: 302
VWidth: 1661
Flags: W
HStem: 0 21G<159 219> 696 20G<138.828 219>
VStem: 159 60<0 633>
LayerCount: 2
Fore
SplineSet
219 716 m 1
 219 0 l 1
 159 0 l 1
 159 633 l 1
 83 557 l 1
 42 600 l 1
 159 716 l 1
 219 716 l 1
EndSplineSet
Validated: 1
EndChar

StartChar: two
Encoding: 50 50 19
Width: 586
VWidth: 1661
Flags: W
HStem: 0 60<115 503> 656 60<184 389>
VStem: 55 60<60 123> 70 60<565 603> 444 59<505 603>
LayerCount: 2
Fore
SplineSet
414 716 m 1xd8
 503 628 l 1
 503 478 l 1
 115 123 l 1
 115 60 l 1
 503 60 l 1
 503 0 l 1
 55 0 l 1
 55 150 l 1xe8
 444 505 l 1
 444 603 l 1
 389 656 l 1
 184 656 l 1
 130 603 l 1
 130 565 l 1
 70 565 l 1
 70 626 l 1
 159 716 l 1
 414 716 l 1xd8
EndSplineSet
Validated: 1
EndChar

StartChar: three
Encoding: 51 51 20
Width: 556
VWidth: 1661
Flags: W
HStem: 0 60<168 387> 359 60<203 387> 656 60<183 387>
VStem: 53 60<115 150> 68 60<568 603> 442 60<115 304 472 603>
LayerCount: 2
Fore
SplineSet
502 329 m 1xec
 502 90 l 1
 412 0 l 1
 143 0 l 1
 53 90 l 1
 53 150 l 1
 113 150 l 1
 113 115 l 1xf4
 168 60 l 1
 387 60 l 1
 442 115 l 1
 442 304 l 1
 387 359 l 1
 203 359 l 1
 203 419 l 1
 387 419 l 1
 442 472 l 1
 442 603 l 1
 387 656 l 1
 183 656 l 1
 128 603 l 1
 128 568 l 1
 68 568 l 1
 68 626 l 1
 158 716 l 1
 412 716 l 1
 502 628 l 1
 502 447 l 1
 442 389 l 1
 502 329 l 1xec
EndSplineSet
Validated: 1
EndChar

StartChar: four
Encoding: 52 52 21
Width: 586
VWidth: 1661
Flags: W
HStem: 0 21G<382 442> 120 59<113 382 442 502> 656 60<357 382>
VStem: 53 60<179 223> 382 60<0 120 179 656>
LayerCount: 2
Fore
SplineSet
442 179 m 1
 502 179 l 1
 502 120 l 1
 442 120 l 1
 442 0 l 1
 382 0 l 1
 382 120 l 1
 53 120 l 1
 53 239 l 1
 322 716 l 1
 442 716 l 1
 442 179 l 1
382 179 m 1
 382 656 l 1
 357 656 l 1
 113 223 l 1
 113 179 l 1
 382 179 l 1
EndSplineSet
Validated: 1
EndChar

StartChar: five
Encoding: 53 53 22
Width: 586
VWidth: 1661
Flags: W
HStem: 0 60<168 387> 389 60<113 387> 656 60<113 472>
VStem: 53 60<115 150 449 656> 442 60<115 334>
LayerCount: 2
Fore
SplineSet
502 359 m 1
 502 90 l 1
 412 0 l 1
 143 0 l 1
 53 90 l 1
 53 150 l 1
 113 150 l 1
 113 115 l 1
 168 60 l 1
 387 60 l 1
 442 115 l 1
 442 334 l 1
 387 389 l 1
 53 389 l 1
 53 716 l 1
 472 716 l 1
 472 656 l 1
 113 656 l 1
 113 449 l 1
 412 449 l 1
 502 359 l 1
EndSplineSet
Validated: 1
EndChar

StartChar: six
Encoding: 54 54 23
Width: 586
VWidth: 1661
Flags: W
HStem: 0 60<168 389> 389 60<169 389> 656 60<168 374>
VStem: 55 60<115 334 419 603> 427 60<568 603> 442 60<115 334>
LayerCount: 2
Fore
SplineSet
502 359 m 1xf4
 502 90 l 1xf4
 412 0 l 1
 143 0 l 1
 55 90 l 1
 55 628 l 1
 143 716 l 1
 397 716 l 1
 487 626 l 1
 487 568 l 1
 427 568 l 1
 427 603 l 1xf8
 374 656 l 1
 168 656 l 1
 115 603 l 1
 115 419 l 1
 145 449 l 1
 414 449 l 1
 502 359 l 1xf4
389 60 m 1
 442 115 l 1
 442 334 l 1
 389 389 l 1
 169 389 l 1
 115 334 l 1
 115 115 l 1
 168 60 l 1
 389 60 l 1
EndSplineSet
Validated: 1
EndChar

StartChar: seven
Encoding: 55 55 24
Width: 586
VWidth: 1661
Flags: W
HStem: 0 21G<248 307> 656 60<113 442>
VStem: 53 60<568 656> 248 59<0 332> 442 60<535 656>
CounterMasks: 1 38
LayerCount: 2
Fore
SplineSet
502 716 m 1
 502 508 l 1
 307 332 l 1
 307 0 l 1
 248 0 l 1
 248 359 l 1
 442 535 l 1
 442 656 l 1
 113 656 l 1
 113 568 l 1
 53 568 l 1
 53 716 l 1
 502 716 l 1
EndSplineSet
Validated: 1
EndChar

StartChar: eight
Encoding: 56 56 25
Width: 586
VWidth: 1661
Flags: W
HStem: 0 60<169 389> 359 60<199 359> 656 60<199 359>
VStem: 55 60<115 304> 85 60<473 603> 414 59<472 603> 444 59<115 304>
LayerCount: 2
Fore
SplineSet
429 404 m 1xec
 503 329 l 1
 503 90 l 1xe2
 414 0 l 1
 145 0 l 1xec
 55 90 l 1
 55 329 l 1xf0
 130 404 l 1
 85 449 l 1
 85 628 l 1
 174 716 l 1
 384 716 l 1
 473 626 l 1
 473 447 l 1
 429 404 l 1xec
145 603 m 1xec
 145 473 l 1
 199 419 l 1
 359 419 l 1
 414 472 l 1
 414 603 l 1
 359 656 l 1
 199 656 l 1
 145 603 l 1xec
444 115 m 1xf2
 444 304 l 1
 389 359 l 1
 169 359 l 1
 115 304 l 1
 115 115 l 1
 169 60 l 1
 389 60 l 1
 444 115 l 1xf2
EndSplineSet
Validated: 1
EndChar

StartChar: nine
Encoding: 57 57 26
Width: 586
VWidth: 1661
Flags: W
HStem: 0 60<183 389> 269 60<168 387> 656 60<168 389>
VStem: 55 58<382 603> 68 60<115 150> 442 60<115 299 384 603>
LayerCount: 2
Fore
SplineSet
502 628 m 1xf4
 502 90 l 1
 412 0 l 1
 158 0 l 1
 68 90 l 1
 68 150 l 1
 128 150 l 1
 128 115 l 1xec
 183 60 l 1
 389 60 l 1
 442 115 l 1
 442 299 l 1
 412 269 l 1
 143 269 l 1
 55 359 l 1
 53 626 l 1
 143 716 l 1
 412 716 l 1
 502 628 l 1xf4
387 329 m 1
 442 384 l 1
 442 603 l 1
 389 656 l 1
 168 656 l 1
 113 603 l 1
 113 382 l 1xf4
 168 329 l 1
 387 329 l 1
EndSplineSet
Validated: 1
EndChar

StartChar: colon
Encoding: 58 58 27
Width: 250
VWidth: 1661
Flags: W
HStem: 0 21G<63 153>
VStem: 48 120<35 83 364 412>
LayerCount: 2
Fore
SplineSet
83 120 m 1
 133 120 l 1
 168 83 l 1
 168 35 l 1
 133 0 l 1
 83 0 l 1
 48 35 l 1
 48 83 l 1
 83 120 l 1
133 447 m 1
 168 412 l 1
 168 364 l 1
 133 327 l 1
 83 327 l 1
 48 364 l 1
 48 412 l 1
 83 447 l 1
 133 447 l 1
EndSplineSet
Validated: 1
EndChar

StartChar: semicolon
Encoding: 59 59 28
Width: 250
VWidth: 1661
Flags: W
VStem: 48 120<35 83 364 412>
LayerCount: 2
Fore
SplineSet
133 447 m 1
 168 412 l 1
 168 364 l 1
 133 327 l 1
 83 327 l 1
 48 364 l 1
 48 412 l 1
 83 447 l 1
 133 447 l 1
83 120 m 1
 133 120 l 1
 168 83 l 1
 168 28 l 1
 78 -90 l 1
 48 -90 l 1
 93 0 l 1
 83 0 l 1
 48 35 l 1
 48 83 l 1
 83 120 l 1
EndSplineSet
Validated: 1
EndChar

StartChar: less
Encoding: 60 60 29
Width: 672
VWidth: 1661
Flags: W
LayerCount: 2
Fore
SplineSet
588 528 m 1
 110 302 l 1
 110 289 l 1
 588 65 l 1
 588 -2 l 1
 50 251 l 1
 50 341 l 1
 588 593 l 1
 588 528 l 1
EndSplineSet
Validated: 1
EndChar

StartChar: equal
Encoding: 61 61 30
Width: 672
VWidth: 1661
Flags: W
HStem: 221 60<50 588> 429 59<50 588>
LayerCount: 2
Fore
SplineSet
50 488 m 1
 588 488 l 1
 588 429 l 1
 50 429 l 1
 50 488 l 1
50 221 m 1
 50 281 l 1
 588 281 l 1
 588 221 l 1
 50 221 l 1
EndSplineSet
Validated: 1
EndChar

StartChar: greater
Encoding: 62 62 31
Width: 672
VWidth: 1661
Flags: W
LayerCount: 2
Fore
SplineSet
50 593 m 1
 586 341 l 1
 586 251 l 1
 50 -2 l 1
 50 65 l 1
 527 289 l 1
 527 302 l 1
 50 528 l 1
 50 593 l 1
EndSplineSet
Validated: 1
EndChar

StartChar: question
Encoding: 63 63 32
Width: 588
VWidth: 1661
Flags: W
HStem: 0 75<262 294> 658 60<169 389>
VStem: 55 60<568 603> 241 75<22 53> 249 60<150 299> 444 59<503 603>
LayerCount: 2
Fore
SplineSet
262 75 m 1xf4
 294 75 l 1
 316 53 l 1
 316 22 l 1
 294 0 l 1
 262 0 l 1
 241 22 l 1
 241 53 l 1
 262 75 l 1xf4
414 718 m 1
 503 628 l 1
 503 477 l 1
 309 299 l 1
 309 150 l 1
 249 150 l 1
 249 326 l 1xec
 444 503 l 1
 444 603 l 1
 389 658 l 1
 169 658 l 1
 115 603 l 1
 115 568 l 1
 55 568 l 1
 55 628 l 1
 145 718 l 1
 414 718 l 1
EndSplineSet
Validated: 1
EndChar

StartChar: at
Encoding: 64 64 33
Width: 765
VWidth: 1661
Flags: W
HStem: -60 60<256 621> 90 60<317 397 532 565> 359 60<317 417> 508 60<257 477>
VStem: 53 60<143 364> 203 59<204 304> 472 60<223 304> 621 60<204 364>
LayerCount: 2
Fore
SplineSet
502 568 m 1
 681 389 l 1
 681 179 l 1
 590 90 l 1
 472 90 l 1
 472 150 l 1
 412 90 l 1
 292 90 l 1
 203 179 l 1
 203 329 l 1
 292 419 l 1
 442 419 l 1
 532 329 l 1
 532 150 l 1
 565 150 l 1
 621 204 l 1
 621 364 l 1
 477 508 l 1
 257 508 l 1
 113 364 l 1
 113 143 l 1
 256 0 l 1
 621 0 l 1
 621 -60 l 1
 233 -60 l 1
 53 118 l 1
 53 389 l 1
 233 568 l 1
 502 568 l 1
397 150 m 1
 472 223 l 1
 472 304 l 1
 417 359 l 1
 317 359 l 1
 262 304 l 1
 262 204 l 1
 317 150 l 1
 397 150 l 1
EndSplineSet
Validated: 1
EndChar

StartChar: A
Encoding: 65 65 34
Width: 616
VWidth: 1661
Flags: W
HStem: 0 21G<53 113 472 532> 209 60<113 472> 656 60<281 302>
VStem: 53 60<0 209 269 372> 472 60<0 209 269 370>
LayerCount: 2
Fore
SplineSet
337 716 m 1
 532 387 l 1
 532 0 l 1
 472 0 l 1
 472 209 l 1
 113 209 l 1
 113 0 l 1
 53 0 l 1
 53 387 l 1
 248 716 l 1
 337 716 l 1
472 269 m 1
 472 370 l 1
 302 656 l 1
 281 656 l 1
 113 372 l 1
 113 269 l 1
 472 269 l 1
EndSplineSet
Validated: 1
EndChar

StartChar: B
Encoding: 66 66 35
Width: 586
VWidth: 1661
Flags: W
HStem: 0 60<113 387> 327 62<113 357> 656 60<113 357>
VStem: 53 60<60 327 389 656> 412 60<442 603> 442 60<115 274>
CounterMasks: 1 e0
LayerCount: 2
Fore
SplineSet
427 374 m 1xf8
 502 299 l 1
 502 90 l 1xf4
 412 0 l 1
 53 0 l 1
 53 716 l 1
 382 716 l 1
 472 626 l 1
 472 419 l 1
 427 374 l 1xf8
113 656 m 1
 113 389 l 1
 357 389 l 1
 412 442 l 1
 412 603 l 1xf8
 357 656 l 1
 113 656 l 1
442 115 m 1xf4
 442 274 l 1
 387 327 l 1
 113 327 l 1
 113 60 l 1
 387 60 l 1
 442 115 l 1xf4
EndSplineSet
Validated: 1
EndChar

StartChar: C
Encoding: 67 67 36
Width: 617
VWidth: 1661
Flags: W
HStem: 0 60<169 419> 656 60<169 419>
VStem: 55 60<113 601> 473 60<115 150 566 603>
LayerCount: 2
Fore
SplineSet
473 150 m 1
 533 150 l 1
 533 90 l 1
 444 0 l 1
 145 0 l 1
 55 90 l 1
 55 626 l 1
 145 716 l 1
 444 716 l 1
 533 626 l 1
 533 566 l 1
 473 566 l 1
 473 603 l 1
 419 656 l 1
 169 656 l 1
 115 601 l 1
 115 113 l 1
 169 60 l 1
 419 60 l 1
 473 115 l 1
 473 150 l 1
EndSplineSet
Validated: 1
EndChar

StartChar: D
Encoding: 68 68 37
Width: 616
VWidth: 1661
Flags: W
HStem: 0 60<113 417> 656 60<113 417>
VStem: 53 60<60 656> 472 60<115 603>
LayerCount: 2
Fore
SplineSet
442 716 m 1
 532 626 l 1
 532 90 l 1
 442 0 l 1
 53 0 l 1
 53 716 l 1
 442 716 l 1
472 115 m 1
 472 603 l 1
 417 656 l 1
 113 656 l 1
 113 60 l 1
 417 60 l 1
 472 115 l 1
EndSplineSet
Validated: 1
EndChar

StartChar: E
Encoding: 69 69 38
Width: 586
VWidth: 1661
Flags: W
HStem: 0 60<168 502> 329 60<115 472> 656 60<169 502>
VStem: 55 60<113 329 389 601>
LayerCount: 2
Fore
SplineSet
169 656 m 1
 115 601 l 1
 115 389 l 1
 472 389 l 1
 472 329 l 1
 115 329 l 1
 115 113 l 1
 168 60 l 1
 502 60 l 1
 502 0 l 1
 145 0 l 1
 55 90 l 1
 55 626 l 1
 145 716 l 1
 502 716 l 1
 502 656 l 1
 169 656 l 1
EndSplineSet
Validated: 1
EndChar

StartChar: F
Encoding: 70 70 39
Width: 586
VWidth: 1661
Flags: W
HStem: 0 21G<53 113> 329 60<113 472> 656 60<168 502>
VStem: 53 60<0 329 389 601>
LayerCount: 2
Fore
SplineSet
168 656 m 1
 113 601 l 1
 113 389 l 1
 472 389 l 1
 472 329 l 1
 113 329 l 1
 113 0 l 1
 53 0 l 1
 53 626 l 1
 143 716 l 1
 502 716 l 1
 502 656 l 1
 168 656 l 1
EndSplineSet
Validated: 1
EndChar

StartChar: G
Encoding: 71 71 40
Width: 616
VWidth: 1661
Flags: W
HStem: 0 60<168 417> 329 60<292 472> 656 60<168 419>
VStem: 55 60<113 601> 472 60<115 329 566 603>
LayerCount: 2
Fore
SplineSet
532 566 m 1
 472 566 l 1
 472 603 l 1
 419 656 l 1
 168 656 l 1
 115 601 l 1
 115 113 l 1
 168 60 l 1
 417 60 l 1
 472 115 l 1
 472 329 l 1
 292 329 l 1
 292 389 l 1
 532 389 l 1
 532 90 l 1
 442 0 l 1
 143 0 l 1
 55 90 l 1
 55 626 l 1
 145 716 l 1
 442 716 l 1
 532 628 l 1
 532 566 l 1
EndSplineSet
Validated: 1
EndChar

StartChar: H
Encoding: 72 72 41
Width: 616
VWidth: 1661
Flags: W
HStem: 0 21G<55 115 473 533> 329 60<115 473> 696 20G<55 115 473 533>
VStem: 55 60<0 329 389 716> 473 60<0 329 389 716>
LayerCount: 2
Fore
SplineSet
473 716 m 1
 533 716 l 1
 533 0 l 1
 473 0 l 1
 473 329 l 1
 115 329 l 1
 115 0 l 1
 55 0 l 1
 55 716 l 1
 115 716 l 1
 115 389 l 1
 473 389 l 1
 473 716 l 1
EndSplineSet
Validated: 1
EndChar

StartChar: I
Encoding: 73 73 42
Width: 197
VWidth: 1661
Flags: W
HStem: 0 21G<53 113> 696 20G<53 113>
VStem: 53 60<0 716>
LayerCount: 2
Fore
SplineSet
113 0 m 1
 53 0 l 1
 53 716 l 1
 113 716 l 1
 113 0 l 1
EndSplineSet
Validated: 1
EndChar

StartChar: J
Encoding: 74 74 43
Width: 556
VWidth: 1661
Flags: W
HStem: 0 60<168 357> 696 20G<412 472>
VStem: 53 60<113 209> 412 60<115 716>
LayerCount: 2
Fore
SplineSet
412 716 m 1
 472 716 l 1
 472 90 l 1
 382 0 l 1
 143 0 l 1
 53 90 l 1
 53 209 l 1
 113 209 l 1
 113 113 l 1
 168 60 l 1
 357 60 l 1
 412 115 l 1
 412 716 l 1
EndSplineSet
Validated: 1
EndChar

StartChar: K
Encoding: 75 75 44
Width: 616
VWidth: 1661
Flags: W
HStem: 0 21G<53 113 472 532> 329 60<113 331> 696 20G<53 113 472 532>
VStem: 53 60<0 329 389 716> 472 60<0 188 528 716>
LayerCount: 2
Fore
SplineSet
472 716 m 1
 532 716 l 1
 532 515 l 1
 375 359 l 1
 532 201 l 1
 532 0 l 1
 472 0 l 1
 472 188 l 1
 331 329 l 1
 113 329 l 1
 113 0 l 1
 53 0 l 1
 53 716 l 1
 113 716 l 1
 113 389 l 1
 331 389 l 1
 472 528 l 1
 472 716 l 1
EndSplineSet
Validated: 1
EndChar

StartChar: L
Encoding: 76 76 45
Width: 556
VWidth: 1661
Flags: W
HStem: 0 60<113 472> 696 20G<53 113>
VStem: 53 60<60 716>
LayerCount: 2
Fore
SplineSet
113 60 m 1
 472 60 l 1
 472 0 l 1
 53 0 l 1
 53 716 l 1
 113 716 l 1
 113 60 l 1
EndSplineSet
Validated: 1
EndChar

StartChar: M
Encoding: 77 77 46
Width: 795
VWidth: 1661
Flags: W
HStem: 0 21G<53 113 343.51 420.46 651 711> 696 20G<53 121.499 642.501 711>
VStem: 53 60<0 563> 651 60<0 565>
LayerCount: 2
Fore
SplineSet
651 716 m 1
 711 716 l 1
 711 0 l 1
 651 0 l 1
 651 565 l 1
 412 0 l 1
 352 0 l 1
 113 563 l 1
 113 0 l 1
 53 0 l 1
 53 716 l 1
 113 716 l 1
 382 83 l 1
 651 716 l 1
EndSplineSet
Validated: 1
EndChar

StartChar: N
Encoding: 78 78 47
Width: 616
VWidth: 1661
Flags: W
HStem: 0 21G<53 113 460.033 532> 696 20G<53 124.967 472 532>
VStem: 53 60<0 600> 472 60<116 716>
LayerCount: 2
Fore
SplineSet
472 716 m 1
 532 716 l 1
 532 0 l 1
 472 0 l 1
 113 600 l 1
 113 0 l 1
 53 0 l 1
 53 716 l 1
 113 716 l 1
 472 116 l 1
 472 716 l 1
EndSplineSet
Validated: 1
EndChar

StartChar: O
Encoding: 79 79 48
Width: 644
VWidth: 1661
Flags: W
HStem: 0 60<166 445> 656 60<166 445>
VStem: 51 60<113 601> 500 60<115 603>
LayerCount: 2
Fore
SplineSet
470 716 m 1
 560 626 l 1
 560 90 l 1
 470 0 l 1
 141 0 l 1
 51 90 l 1
 51 626 l 1
 141 716 l 1
 470 716 l 1
500 115 m 1
 500 603 l 1
 445 656 l 1
 166 656 l 1
 111 601 l 1
 111 113 l 1
 166 60 l 1
 445 60 l 1
 500 115 l 1
EndSplineSet
Validated: 1
EndChar

StartChar: P
Encoding: 80 80 49
Width: 586
VWidth: 1661
Flags: W
HStem: 0 21G<55 113> 327 60<113 387> 656 60<113 389>
VStem: 55 58<0 327 387 656> 442 60<442 603>
LayerCount: 2
Fore
SplineSet
412 716 m 1
 502 626 l 1
 502 417 l 1
 412 327 l 1
 113 327 l 1
 113 0 l 1
 55 0 l 1
 55 716 l 1
 412 716 l 1
442 442 m 1
 442 603 l 1
 389 656 l 1
 113 656 l 1
 113 387 l 1
 387 387 l 1
 442 442 l 1
EndSplineSet
Validated: 1
EndChar

StartChar: Q
Encoding: 81 81 50
Width: 642
VWidth: 1661
Flags: W
HStem: 0 60<166 445> 656 60<166 445>
VStem: 51 60<113 601> 500 60<115 603>
LayerCount: 2
Fore
SplineSet
596 -55 m 1
 560 -91 l 1
 468 0 l 1
 141 0 l 1
 51 90 l 1
 51 626 l 1
 141 716 l 1
 470 716 l 1
 560 626 l 1
 560 90 l 1
 507 37 l 1
 596 -55 l 1
111 113 m 1
 166 60 l 1
 445 60 l 1
 500 115 l 1
 500 603 l 1
 445 656 l 1
 166 656 l 1
 111 601 l 1
 111 113 l 1
EndSplineSet
Validated: 1
EndChar

StartChar: R
Encoding: 82 82 51
Width: 583
VWidth: 1661
Flags: W
HStem: 0 21G<53 113 440 500> 327 62<113 387> 656 60<113 387>
VStem: 53 60<0 327 389 656> 440 60<0 274 442 603>
LayerCount: 2
Fore
SplineSet
500 626 m 1
 500 419 l 1
 440 359 l 1
 500 299 l 1
 500 0 l 1
 440 0 l 1
 440 274 l 1
 387 327 l 1
 113 327 l 1
 113 0 l 1
 53 0 l 1
 53 716 l 1
 412 716 l 1
 500 626 l 1
387 656 m 1
 113 656 l 1
 113 389 l 1
 387 389 l 1
 440 442 l 1
 440 603 l 1
 387 656 l 1
EndSplineSet
Validated: 1
EndChar

StartChar: S
Encoding: 83 83 52
Width: 617
VWidth: 1661
Flags: W
HStem: 0 60<184 419> 359 58<169 419> 656 60<169 404>
VStem: 55 60<472 601> 70 60<113 150> 458 60<566 603> 473 60<115 304>
LayerCount: 2
Fore
SplineSet
444 417 m 1xf4
 533 329 l 1
 533 90 l 1
 444 0 l 1
 159 0 l 1
 70 90 l 1
 70 150 l 1
 130 150 l 1
 130 113 l 1
 184 60 l 1
 419 60 l 1
 473 115 l 1
 473 304 l 1xea
 419 359 l 1
 145 359 l 1
 55 447 l 1
 55 626 l 1
 145 716 l 1
 429 716 l 1
 518 626 l 1
 518 566 l 1
 458 566 l 1
 458 603 l 1
 404 656 l 1
 169 656 l 1
 115 601 l 1
 115 472 l 1
 169 417 l 1
 444 417 l 1xf4
EndSplineSet
Validated: 1
EndChar

StartChar: T
Encoding: 84 84 53
Width: 616
VWidth: 1661
Flags: W
HStem: 0 21G<264 324> 656 60<55 264 324 532>
VStem: 264 60<0 656>
LayerCount: 2
Fore
SplineSet
532 716 m 1
 532 656 l 1
 324 656 l 1
 324 0 l 1
 264 0 l 1
 264 656 l 1
 55 656 l 1
 55 716 l 1
 532 716 l 1
EndSplineSet
Validated: 1
EndChar

StartChar: U
Encoding: 85 85 54
Width: 616
VWidth: 1661
Flags: W
HStem: 0 60<168 417> 696 20G<53 113 472 532>
VStem: 53 60<113 716> 472 60<115 716>
LayerCount: 2
Fore
SplineSet
472 716 m 1
 532 716 l 1
 532 90 l 1
 442 0 l 1
 143 0 l 1
 53 90 l 1
 53 716 l 1
 113 716 l 1
 113 113 l 1
 168 60 l 1
 417 60 l 1
 472 115 l 1
 472 716 l 1
EndSplineSet
Validated: 1
EndChar

StartChar: V
Encoding: 86 86 55
Width: 617
VWidth: 1661
Flags: W
HStem: 0 60<282 304> 696 20G<55 115 473 533>
VStem: 55 60<346 716> 473 60<344 716>
LayerCount: 2
Fore
SplineSet
473 716 m 1
 533 716 l 1
 533 329 l 1
 339 0 l 1
 249 0 l 1
 55 329 l 1
 55 716 l 1
 115 716 l 1
 115 346 l 1
 282 60 l 1
 304 60 l 1
 473 344 l 1
 473 716 l 1
EndSplineSet
Validated: 1
EndChar

StartChar: W
Encoding: 87 87 56
Width: 852
VWidth: 1661
Flags: W
HStem: 0 60<239 253 568 581> 696 20G<51 111 380 440 709 769>
VStem: 51 60<337 716> 380 60<337 716> 709 60<337 716>
CounterMasks: 1 38
LayerCount: 2
Fore
SplineSet
709 716 m 1
 769 716 l 1
 769 327 l 1
 618 0 l 1
 532 0 l 1
 410 262 l 1
 289 0 l 1
 203 0 l 1
 51 327 l 1
 51 716 l 1
 111 716 l 1
 111 337 l 1
 239 60 l 1
 253 60 l 1
 380 337 l 1
 380 716 l 1
 440 716 l 1
 440 337 l 1
 568 60 l 1
 581 60 l 1
 709 337 l 1
 709 716 l 1
EndSplineSet
Validated: 1
EndChar

StartChar: X
Encoding: 88 88 57
Width: 617
VWidth: 1661
Flags: W
HStem: 0 21G<56 115 473 533> 327 60<256 334> 696 20G<56 115 473 533>
VStem: 56 59<0 188 528 716> 473 60<0 188 528 716>
LayerCount: 2
Fore
SplineSet
473 716 m 1
 533 716 l 1
 533 515 l 1
 377 357 l 1
 533 201 l 1
 533 0 l 1
 473 0 l 1
 473 188 l 1
 334 327 l 1
 256 327 l 1
 115 188 l 1
 115 0 l 1
 56 0 l 1
 56 201 l 1
 213 357 l 1
 56 515 l 1
 56 716 l 1
 115 716 l 1
 115 528 l 1
 256 387 l 1
 334 387 l 1
 473 528 l 1
 473 716 l 1
EndSplineSet
Validated: 1
EndChar

StartChar: Y
Encoding: 89 89 58
Width: 616
VWidth: 1661
Flags: W
HStem: 0 21G<262 322> 696 20G<53 113 472 532>
VStem: 53 60<537 716> 262 60<0 329> 472 60<535 716>
LayerCount: 2
Fore
SplineSet
472 716 m 1
 532 716 l 1
 532 507 l 1
 322 329 l 1
 322 0 l 1
 262 0 l 1
 262 331 l 1
 53 508 l 1
 53 716 l 1
 113 716 l 1
 113 537 l 1
 294 382 l 1
 472 535 l 1
 472 716 l 1
EndSplineSet
Validated: 1
EndChar

StartChar: Z
Encoding: 90 90 59
Width: 617
VWidth: 1661
Flags: W
HStem: 0 60<115 533> 656 60<55 473>
VStem: 55 60<60 125> 473 60<591 656>
LayerCount: 2
Fore
SplineSet
55 716 m 1
 533 716 l 1
 533 566 l 1
 115 125 l 1
 115 60 l 1
 533 60 l 1
 533 0 l 1
 55 0 l 1
 55 150 l 1
 473 591 l 1
 473 656 l 1
 55 656 l 1
 55 716 l 1
EndSplineSet
Validated: 1
EndChar

StartChar: bracketleft
Encoding: 91 91 60
Width: 289
VWidth: 1661
Flags: W
HStem: -120 60<116 206> 776 60<116 206>
VStem: 56 150<-120 -60 776 836> 56 60<-60 776>
LayerCount: 2
Fore
SplineSet
206 776 m 1xe0
 116 776 l 1
 116 -60 l 1xd0
 206 -60 l 1
 206 -120 l 1
 56 -120 l 1
 56 836 l 1
 206 836 l 1
 206 776 l 1xe0
EndSplineSet
Validated: 1
EndChar

StartChar: backslash
Encoding: 92 92 61
Width: 481
VWidth: 1661
Flags: W
HStem: 0 21G<400.524 480>
LayerCount: 2
Fore
SplineSet
480 0 m 1
 412 0 l 1
 0 718 l 1
 68 718 l 1
 480 0 l 1
EndSplineSet
Validated: 1
EndChar

StartChar: bracketright
Encoding: 93 93 62
Width: 234
VWidth: 1661
Flags: W
HStem: -120 60<0 90> 776 60<0 90>
VStem: 0 150<-120 -60 776 836> 90 60<-60 776>
LayerCount: 2
Fore
SplineSet
0 836 m 1xe0
 150 836 l 1
 150 -120 l 1
 0 -120 l 1
 0 -60 l 1xe0
 90 -60 l 1
 90 776 l 1xd0
 0 776 l 1
 0 836 l 1xe0
EndSplineSet
Validated: 1
EndChar

StartChar: asciicircum
Encoding: 94 94 63
Width: 701
VWidth: 1661
Flags: W
HStem: 658 60<324 341>
LayerCount: 2
Fore
SplineSet
377 718 m 1
 616 239 l 1
 550 239 l 1
 341 658 l 1
 324 658 l 1
 115 239 l 1
 48 239 l 1
 287 718 l 1
 377 718 l 1
EndSplineSet
Validated: 1
EndChar

StartChar: underscore
Encoding: 95 95 64
Width: 616
VWidth: 1661
Flags: W
HStem: -108 60<55 532>
LayerCount: 2
Fore
SplineSet
55 -108 m 1
 55 -48 l 1
 532 -48 l 1
 532 -108 l 1
 55 -108 l 1
EndSplineSet
Validated: 1
EndChar

StartChar: grave
Encoding: 96 96 65
Width: 245
VWidth: 1661
Flags: W
HStem: 568 150
VStem: 42 119
LayerCount: 2
Fore
SplineSet
131 568 m 1
 42 718 l 1
 116 718 l 1
 161 568 l 1
 131 568 l 1
EndSplineSet
Validated: 1
EndChar

StartChar: a
Encoding: 97 97 66
Width: 616
VWidth: 1661
Flags: W
HStem: 0 60<168 337> 254 60<168 472> 449 59<168 417>
VStem: 53 60<115 199 359 394> 472 60<0 121 194 254 314 394>
LayerCount: 2
Fore
SplineSet
532 419 m 1
 532 0 l 1
 472 0 l 1
 472 121 l 1
 352 0 l 1
 143 0 l 1
 53 90 l 1
 53 224 l 1
 143 314 l 1
 472 314 l 1
 472 394 l 1
 417 449 l 1
 168 449 l 1
 113 394 l 1
 113 359 l 1
 53 359 l 1
 53 419 l 1
 143 508 l 1
 442 508 l 1
 532 419 l 1
337 60 m 1
 472 194 l 1
 472 254 l 1
 168 254 l 1
 113 199 l 1
 113 115 l 1
 168 60 l 1
 337 60 l 1
EndSplineSet
Validated: 1
Substitution2: "Single Substitution lookup 22 subtable" uni0E38
Substitution2: "Single Substitution lookup 22 subtable" uni0E38
EndChar

StartChar: b
Encoding: 98 98 67
Width: 616
VWidth: 1661
Flags: W
HStem: 0 60<169 419> 449 59<249 419>
VStem: 55 60<115 314 389 718> 473 60<115 394>
LayerCount: 2
Fore
SplineSet
533 419 m 1
 533 90 l 1
 444 0 l 1
 145 0 l 1
 55 90 l 1
 55 718 l 1
 115 718 l 1
 115 389 l 1
 234 508 l 1
 444 508 l 1
 533 419 l 1
419 60 m 1
 473 115 l 1
 473 394 l 1
 419 449 l 1
 249 449 l 1
 115 314 l 1
 115 115 l 1
 169 60 l 1
 419 60 l 1
EndSplineSet
Validated: 1
Substitution2: "Single Substitution lookup 22 subtable" uni0E39
Substitution2: "Single Substitution lookup 22 subtable" uni0E39
EndChar

StartChar: c
Encoding: 99 99 68
Width: 617
VWidth: 1661
Flags: W
HStem: 0 60<169 419> 449 59<169 419>
VStem: 55 60<115 394> 473 60<115 150 359 394>
LayerCount: 2
Fore
SplineSet
473 150 m 1
 533 150 l 1
 533 90 l 1
 444 0 l 1
 145 0 l 1
 55 90 l 1
 55 419 l 1
 145 508 l 1
 444 508 l 1
 533 419 l 1
 533 359 l 1
 473 359 l 1
 473 394 l 1
 419 449 l 1
 169 449 l 1
 115 394 l 1
 115 115 l 1
 169 60 l 1
 419 60 l 1
 473 115 l 1
 473 150 l 1
EndSplineSet
Validated: 1
Substitution2: "Single Substitution lookup 22 subtable" uni0E3A
Substitution2: "Single Substitution lookup 22 subtable" uni0E3A
EndChar

StartChar: d
Encoding: 100 100 69
Width: 617
VWidth: 1661
Flags: W
HStem: 0 60<169 419> 449 59<169 339>
VStem: 55 60<115 394> 473 60<115 314 389 718>
LayerCount: 2
Fore
SplineSet
473 718 m 1
 533 718 l 1
 533 90 l 1
 444 0 l 1
 145 0 l 1
 55 90 l 1
 55 419 l 1
 145 508 l 1
 354 508 l 1
 473 389 l 1
 473 718 l 1
419 60 m 1
 473 115 l 1
 473 314 l 1
 339 449 l 1
 169 449 l 1
 115 394 l 1
 115 115 l 1
 169 60 l 1
 419 60 l 1
EndSplineSet
Validated: 1
EndChar

StartChar: e
Encoding: 101 101 70
Width: 617
VWidth: 1661
Flags: W
HStem: 0 60<169 419> 239 60<115 473> 449 59<169 419>
VStem: 55 60<115 239 299 394> 473 60<115 150 299 394>
LayerCount: 2
Fore
SplineSet
533 239 m 1
 115 239 l 1
 115 115 l 1
 169 60 l 1
 419 60 l 1
 473 115 l 1
 473 150 l 1
 533 150 l 1
 533 90 l 1
 444 0 l 1
 145 0 l 1
 55 90 l 1
 55 419 l 1
 145 508 l 1
 444 508 l 1
 533 419 l 1
 533 239 l 1
115 299 m 1
 473 299 l 1
 473 394 l 1
 419 449 l 1
 169 449 l 1
 115 394 l 1
 115 299 l 1
EndSplineSet
Validated: 1
EndChar

StartChar: f
Encoding: 102 102 71
Width: 347
VWidth: 1661
Flags: W
HStem: 0 21G<53 113> 389 60<113 262> 658 60<168 262>
VStem: 53 60<0 389 449 603>
LayerCount: 2
Fore
SplineSet
168 658 m 1
 113 603 l 1
 113 449 l 1
 262 449 l 1
 262 389 l 1
 113 389 l 1
 113 0 l 1
 53 0 l 1
 53 628 l 1
 143 718 l 1
 262 718 l 1
 262 658 l 1
 168 658 l 1
EndSplineSet
Validated: 1
EndChar

StartChar: g
Encoding: 103 103 72
Width: 616
VWidth: 1661
Flags: W
HStem: -209 59<292 417> 0 60<168 337> 449 59<168 417>
VStem: 53 60<115 394> 472 60<-95 120 194 394>
LayerCount: 2
Fore
SplineSet
532 419 m 1
 532 -120 l 1
 442 -209 l 1
 292 -209 l 1
 292 -150 l 1
 417 -150 l 1
 472 -95 l 1
 472 120 l 1
 352 0 l 1
 143 0 l 1
 53 90 l 1
 53 419 l 1
 143 508 l 1
 442 508 l 1
 532 419 l 1
337 60 m 1
 472 194 l 1
 472 394 l 1
 417 449 l 1
 168 449 l 1
 113 394 l 1
 113 115 l 1
 168 60 l 1
 337 60 l 1
EndSplineSet
Validated: 1
EndChar

StartChar: h
Encoding: 104 104 73
Width: 586
VWidth: 1661
Flags: W
HStem: 0 21G<55 115 444 503> 449 59<249 389>
VStem: 55 60<0 314 389 718> 444 59<0 394>
LayerCount: 2
Fore
SplineSet
503 419 m 1
 503 0 l 1
 444 0 l 1
 444 394 l 1
 389 449 l 1
 249 449 l 1
 115 314 l 1
 115 0 l 1
 55 0 l 1
 55 718 l 1
 115 718 l 1
 115 389 l 1
 234 508 l 1
 414 508 l 1
 503 419 l 1
EndSplineSet
Validated: 1
EndChar

StartChar: i
Encoding: 105 105 74
Width: 199
VWidth: 1661
Flags: W
HStem: 0 21G<55 115> 488 20G<55 115> 548 75<70 101>
VStem: 48 75<570 601> 55 60<0 508>
LayerCount: 2
Fore
SplineSet
55 0 m 1xe8
 55 508 l 1
 115 508 l 1
 115 0 l 1
 55 0 l 1xe8
101 623 m 1
 123 601 l 1
 123 570 l 1
 101 548 l 1
 70 548 l 1
 48 570 l 1
 48 601 l 1xf0
 70 623 l 1
 101 623 l 1
EndSplineSet
Validated: 1
EndChar

StartChar: j
Encoding: 106 106 75
Width: 214
VWidth: 1661
Flags: W
HStem: -211 60<-43 15> 487 20G<70 130> 548 75<83 115>
VStem: 61 75<570 601> 70 60<-96 507>
LayerCount: 2
Fore
SplineSet
70 -96 m 1xe8
 70 507 l 1
 130 507 l 1
 130 -121 l 1
 40 -211 l 1
 -43 -211 l 1
 -43 -151 l 1
 15 -151 l 1
 70 -96 l 1xe8
115 623 m 1
 136 601 l 1
 136 570 l 1
 115 548 l 1
 83 548 l 1
 61 570 l 1
 61 601 l 1xf0
 83 623 l 1
 115 623 l 1
EndSplineSet
Validated: 1
EndChar

StartChar: k
Encoding: 107 107 76
Width: 586
VWidth: 1661
Flags: W
HStem: 0 21G<53 113 442 502> 224 60<113 301> 488 20G<442 502>
VStem: 53 60<0 224 284 718> 442 60<0 85 425 508>
LayerCount: 2
Fore
SplineSet
442 508 m 1
 502 508 l 1
 502 412 l 1
 346 254 l 1
 502 98 l 1
 502 0 l 1
 442 0 l 1
 442 85 l 1
 301 224 l 1
 113 224 l 1
 113 0 l 1
 53 0 l 1
 53 718 l 1
 113 718 l 1
 113 284 l 1
 301 284 l 1
 442 425 l 1
 442 508 l 1
EndSplineSet
Validated: 1
EndChar

StartChar: l
Encoding: 108 108 77
Width: 197
VWidth: 1661
Flags: W
HStem: 0 21G<55 115>
VStem: 55 60<0 718>
LayerCount: 2
Fore
SplineSet
55 0 m 1
 55 718 l 1
 115 718 l 1
 115 0 l 1
 55 0 l 1
EndSplineSet
Validated: 1
EndChar

StartChar: m
Encoding: 109 109 78
Width: 794
VWidth: 1661
Flags: W
HStem: 0 21G<51 111 351 410 650 709> 449 59<246 296 465 595>
VStem: 51 60<0 316 389 508> 351 59<0 395> 650 59<0 395>
LayerCount: 2
Fore
SplineSet
709 419 m 1
 709 0 l 1
 650 0 l 1
 650 395 l 1
 595 449 l 1
 465 449 l 1
 410 395 l 1
 410 0 l 1
 351 0 l 1
 351 395 l 1
 296 449 l 1
 246 449 l 1
 111 316 l 1
 111 0 l 1
 51 0 l 1
 51 508 l 1
 111 508 l 1
 111 389 l 1
 231 508 l 1
 321 508 l 1
 380 449 l 1
 440 508 l 1
 620 508 l 1
 709 419 l 1
EndSplineSet
Validated: 1
EndChar

StartChar: n
Encoding: 110 110 79
Width: 586
VWidth: 1661
Flags: W
HStem: 0 21G<53 113 440 500> 449 59<246 387>
VStem: 53 60<0 316 389 508> 440 60<0 395>
LayerCount: 2
Fore
SplineSet
500 419 m 1
 500 0 l 1
 440 0 l 1
 440 395 l 1
 387 449 l 1
 246 449 l 1
 113 316 l 1
 113 0 l 1
 53 0 l 1
 53 508 l 1
 113 508 l 1
 113 389 l 1
 233 508 l 1
 412 508 l 1
 500 419 l 1
EndSplineSet
Validated: 1
EndChar

StartChar: o
Encoding: 111 111 80
Width: 617
VWidth: 1661
Flags: W
HStem: 0 60<169 419> 449 59<169 419>
VStem: 55 60<115 394> 473 60<115 394>
LayerCount: 2
Fore
SplineSet
533 90 m 1
 444 0 l 1
 145 0 l 1
 55 90 l 1
 55 419 l 1
 145 508 l 1
 444 508 l 1
 533 419 l 1
 533 90 l 1
169 60 m 1
 419 60 l 1
 473 115 l 1
 473 394 l 1
 419 449 l 1
 169 449 l 1
 115 394 l 1
 115 115 l 1
 169 60 l 1
EndSplineSet
Validated: 1
EndChar

StartChar: p
Encoding: 112 112 81
Width: 617
VWidth: 1661
Flags: W
HStem: -208 21G<55 115> 0 60<115 419> 449 59<169 419>
VStem: 55 60<-208 0 60 394> 473 60<115 394>
LayerCount: 2
Fore
SplineSet
444 508 m 1
 533 419 l 1
 533 90 l 1
 444 0 l 1
 115 0 l 1
 115 -208 l 1
 55 -208 l 1
 55 419 l 1
 145 508 l 1
 444 508 l 1
473 115 m 1
 473 394 l 1
 419 449 l 1
 169 449 l 1
 115 394 l 1
 115 60 l 1
 419 60 l 1
 473 115 l 1
EndSplineSet
Validated: 1
EndChar

StartChar: q
Encoding: 113 113 82
Width: 616
VWidth: 1661
Flags: W
HStem: -208 21G<473 533> 0 60<169 473> 449 59<169 419>
VStem: 55 60<115 394> 473 60<-208 0 60 394>
LayerCount: 2
Fore
SplineSet
55 419 m 1
 145 508 l 1
 444 508 l 1
 533 419 l 1
 533 -208 l 1
 473 -208 l 1
 473 0 l 1
 145 0 l 1
 55 90 l 1
 55 419 l 1
115 394 m 1
 115 115 l 1
 169 60 l 1
 473 60 l 1
 473 394 l 1
 419 449 l 1
 169 449 l 1
 115 394 l 1
EndSplineSet
Validated: 1
EndChar

StartChar: r
Encoding: 114 114 83
Width: 465
VWidth: 1661
Flags: W
HStem: 0 21G<53 113> 449 59<246 382>
VStem: 53 60<0 316 389 508>
LayerCount: 2
Fore
SplineSet
382 449 m 1
 246 449 l 1
 113 316 l 1
 113 0 l 1
 53 0 l 1
 53 508 l 1
 113 508 l 1
 113 389 l 1
 233 508 l 1
 382 508 l 1
 382 449 l 1
EndSplineSet
Validated: 1
EndChar

StartChar: s
Encoding: 115 115 84
Width: 617
VWidth: 1661
Flags: W
HStem: 0 60<184 419> 224 60<169 419> 449 59<169 404>
VStem: 55 60<339 394> 70 60<115 150> 458 60<359 394> 473 60<115 171>
LayerCount: 2
Fore
SplineSet
533 196 m 1xf2
 533 90 l 1
 444 0 l 1
 159 0 l 1
 70 90 l 1
 70 150 l 1
 130 150 l 1
 130 115 l 1
 184 60 l 1
 419 60 l 1
 473 115 l 1
 473 171 l 1xea
 419 224 l 1
 145 224 l 1
 55 314 l 1
 55 419 l 1
 145 508 l 1
 429 508 l 1
 518 419 l 1
 518 359 l 1
 458 359 l 1
 458 394 l 1xf4
 404 449 l 1
 169 449 l 1
 115 394 l 1
 115 339 l 1
 169 284 l 1
 444 284 l 1
 533 196 l 1xf2
EndSplineSet
Validated: 1
EndChar

StartChar: t
Encoding: 116 116 85
Width: 345
VWidth: 1661
Flags: W
HStem: 0 58<168 262> 447 60<113 262> 696 20G<53 113>
VStem: 53 60<113 447 507 716>
LayerCount: 2
Fore
SplineSet
262 447 m 1
 113 447 l 1
 113 113 l 1
 168 58 l 1
 262 58 l 1
 262 0 l 1
 143 0 l 1
 53 90 l 1
 53 716 l 1
 113 716 l 1
 113 507 l 1
 262 507 l 1
 262 447 l 1
EndSplineSet
Validated: 1
EndChar

StartChar: u
Encoding: 117 117 86
Width: 588
VWidth: 1661
Flags: W
HStem: 0 58<169 309> 487 20G<55 115 444 503>
VStem: 55 60<113 507> 444 59<0 120 193 507>
LayerCount: 2
Fore
SplineSet
444 507 m 1
 503 507 l 1
 503 0 l 1
 444 0 l 1
 444 120 l 1
 324 0 l 1
 145 0 l 1
 55 88 l 1
 55 507 l 1
 115 507 l 1
 115 113 l 1
 169 58 l 1
 309 58 l 1
 444 193 l 1
 444 507 l 1
EndSplineSet
Validated: 1
EndChar

StartChar: v
Encoding: 118 118 87
Width: 554
VWidth: 1661
Flags: W
HStem: 0 60<239 286> 488 20G<53 113 412 472>
VStem: 53 60<231 508> 412 60<231 508>
LayerCount: 2
Fore
SplineSet
412 508 m 1
 472 508 l 1
 472 224 l 1
 307 0 l 1
 218 0 l 1
 53 224 l 1
 53 508 l 1
 113 508 l 1
 113 231 l 1
 239 60 l 1
 286 60 l 1
 412 231 l 1
 412 508 l 1
EndSplineSet
Validated: 1
EndChar

StartChar: w
Encoding: 119 119 88
Width: 795
VWidth: 1661
Flags: W
HStem: 0 60<214 253 513 552> 488 20G<55 115 354 414 651 711>
VStem: 55 60<228 508> 354 60<228 508> 651 60<228 508>
LayerCount: 2
Fore
SplineSet
651 508 m 1
 711 508 l 1
 711 224 l 1
 576 0 l 1
 488 0 l 1
 384 174 l 1
 277 0 l 1
 189 0 l 1
 55 224 l 1
 55 508 l 1
 115 508 l 1
 115 228 l 1
 214 60 l 1
 253 60 l 1
 354 228 l 1
 354 508 l 1
 414 508 l 1
 414 228 l 1
 513 60 l 1
 552 60 l 1
 651 228 l 1
 651 508 l 1
EndSplineSet
Validated: 1
EndChar

StartChar: x
Encoding: 120 120 89
Width: 616
VWidth: 1661
Flags: W
HStem: 0 21G<53 113 472 532> 224 60<254 331> 488 20G<53 113 472 532>
VStem: 53 60<0 85 425 508> 472 60<0 85 425 508>
LayerCount: 2
Fore
SplineSet
472 508 m 1
 532 508 l 1
 532 412 l 1
 375 254 l 1
 532 98 l 1
 532 0 l 1
 472 0 l 1
 472 85 l 1
 331 224 l 1
 254 224 l 1
 113 85 l 1
 113 0 l 1
 53 0 l 1
 53 98 l 1
 211 254 l 1
 53 412 l 1
 53 508 l 1
 113 508 l 1
 113 425 l 1
 254 284 l 1
 331 284 l 1
 472 425 l 1
 472 508 l 1
EndSplineSet
Validated: 1
EndChar

StartChar: y
Encoding: 121 121 90
Width: 617
VWidth: 1661
Flags: W
HStem: -209 59<294 419> 0 60<169 339> 488 20G<55 115 473 533>
VStem: 55 60<115 508> 473 60<-95 120 194 508>
LayerCount: 2
Fore
SplineSet
533 508 m 1
 533 -120 l 1
 444 -209 l 1
 294 -209 l 1
 294 -150 l 1
 419 -150 l 1
 473 -95 l 1
 473 120 l 1
 354 0 l 1
 145 0 l 1
 55 90 l 1
 55 508 l 1
 115 508 l 1
 115 115 l 1
 169 60 l 1
 339 60 l 1
 473 194 l 1
 473 508 l 1
 533 508 l 1
EndSplineSet
Validated: 1
EndChar

StartChar: z
Encoding: 122 122 91
Width: 616
VWidth: 1661
Flags: W
HStem: 0 60<115 533> 449 59<55 473>
VStem: 55 60<60 98> 473 60<410 449>
LayerCount: 2
Fore
SplineSet
55 508 m 1
 533 508 l 1
 533 389 l 1
 115 98 l 1
 115 60 l 1
 533 60 l 1
 533 0 l 1
 55 0 l 1
 55 120 l 1
 473 410 l 1
 473 449 l 1
 55 449 l 1
 55 508 l 1
EndSplineSet
Validated: 1
EndChar

StartChar: braceleft
Encoding: 123 123 92
Width: 375
VWidth: 1661
Flags: W
HStem: -120 60<256 291> 776 60<256 291>
VStem: 141 60<-7 269 449 721>
LayerCount: 2
Fore
SplineSet
201 424 m 1
 136 359 l 1
 201 294 l 1
 201 -7 l 1
 256 -60 l 1
 291 -60 l 1
 291 -120 l 1
 231 -120 l 1
 141 -32 l 1
 141 269 l 1
 51 359 l 1
 141 449 l 1
 141 746 l 1
 231 836 l 1
 291 836 l 1
 291 776 l 1
 256 776 l 1
 201 721 l 1
 201 424 l 1
EndSplineSet
Validated: 1
EndChar

StartChar: bar
Encoding: 124 124 93
Width: 197
VWidth: 1661
Flags: W
HStem: -209 21G<53 113>
VStem: 53 60<-209 865>
LayerCount: 2
Fore
SplineSet
113 865 m 1
 113 -209 l 1
 53 -209 l 1
 53 865 l 1
 113 865 l 1
EndSplineSet
Validated: 1
EndChar

StartChar: braceright
Encoding: 125 125 94
Width: 322
VWidth: 1661
Flags: W
HStem: -120 60<0 35> 776 60<0 35>
VStem: 90 60<-5 267 447 721>
LayerCount: 2
Fore
SplineSet
150 447 m 1
 239 357 l 1
 150 267 l 1
 150 -30 l 1
 60 -120 l 1
 0 -120 l 1
 0 -60 l 1
 35 -60 l 1
 90 -5 l 1
 90 292 l 1
 154 357 l 1
 90 422 l 1
 90 721 l 1
 35 776 l 1
 0 776 l 1
 0 836 l 1
 60 836 l 1
 150 746 l 1
 150 447 l 1
EndSplineSet
Validated: 1
EndChar

StartChar: asciitilde
Encoding: 126 126 95
Width: 614
VWidth: 1661
Flags: W
HStem: 357 60<394 415> 447 60<166 189>
VStem: 53 60<357 392> 470 60<472 507>
LayerCount: 2
Fore
SplineSet
470 507 m 1
 530 507 l 1
 530 447 l 1
 440 357 l 1
 380 357 l 1
 189 447 l 1
 166 447 l 1
 113 392 l 1
 113 357 l 1
 53 357 l 1
 53 417 l 1
 143 507 l 1
 203 507 l 1
 394 417 l 1
 415 417 l 1
 470 472 l 1
 470 507 l 1
EndSplineSet
Validated: 1
EndChar

StartChar: quotedbl
Encoding: 34 34 97
Width: 287
VWidth: 1661
Flags: W
HStem: 568 150<68 98 158 188>
VStem: 68 30<568 638> 158 30<568 638>
LayerCount: 2
Fore
SplineSet
68 568 m 1
 53 718 l 1
 113 718 l 1
 98 568 l 1
 68 568 l 1
143 718 m 1
 203 718 l 1
 188 568 l 1
 158 568 l 1
 143 718 l 1
EndSplineSet
Validated: 1
EndChar

StartChar: exclam
Encoding: 33 33 98
Width: 205
VWidth: 1661
Flags: W
HStem: 0 75<68 98>
VStem: 47 74<22 53 452.933 718> 61 45<150 415.067>
LayerCount: 2
Fore
SplineSet
68 75 m 1xc0
 98 75 l 1
 121 53 l 1
 121 22 l 1
 98 0 l 1
 68 0 l 1
 47 22 l 1
 47 53 l 1
 68 75 l 1xc0
106 150 m 1xa0
 61 150 l 1xa0
 47 718 l 1
 121 718 l 1xc0
 106 150 l 1xa0
EndSplineSet
Validated: 1
EndChar

StartChar: exclamdown
Encoding: 161 161 100
Width: 205
VWidth: 1661
Flags: W
HStem: -209 21G<47 121> 432 75<68 100>
VStem: 47 74<-209 56.0667 455 485> 61 45<93.9333 359>
LayerCount: 2
Fore
SplineSet
100 507 m 1xe0
 121 485 l 1
 121 455 l 1
 100 432 l 1
 68 432 l 1
 47 455 l 1
 47 485 l 1
 68 507 l 1
 100 507 l 1xe0
61 359 m 1xd0
 106 359 l 1xd0
 121 -209 l 1
 47 -209 l 1xe0
 61 359 l 1xd0
EndSplineSet
Validated: 1
EndChar

StartChar: cent
Encoding: 162 162 101
Width: 554
VWidth: 1661
Flags: W
HStem: -60 120<233 292> 0 60<168 233 292 357> 507 21G<412 472> 596 120<233 292> 596 60<168 233 292 357>
VStem: 53 60<115 542> 233 59<-60 0 656 716> 412 60<115 150 507 542>
CounterMasks: 1 07
LayerCount: 2
Fore
SplineSet
472 507 m 1x2f
 412 507 l 1
 412 542 l 1
 357 596 l 1
 168 596 l 1
 113 542 l 1
 113 115 l 1
 168 60 l 1
 357 60 l 1
 412 115 l 1
 412 150 l 1
 472 150 l 1
 472 90 l 1
 382 0 l 1
 292 0 l 1x6f
 292 -60 l 1
 233 -60 l 1xa7
 233 0 l 1
 143 0 l 1
 53 90 l 1
 53 566 l 1
 143 656 l 1
 233 656 l 1x6f
 233 716 l 1
 292 716 l 1x37
 292 656 l 1
 382 656 l 1
 472 566 l 1
 472 507 l 1x2f
EndSplineSet
Validated: 1
EndChar

StartChar: sterling
Encoding: 163 163 102
Width: 641
VWidth: 1661
Flags: W
HStem: 0 60<136 558> 329 60<51 171 231 351> 658 60<286 415>
VStem: 171 60<179 329 389 603> 470 58<568 603>
CounterMasks: 1 e0
LayerCount: 2
Fore
SplineSet
136 60 m 1
 558 60 l 1
 558 0 l 1
 51 0 l 1
 51 60 l 1
 171 179 l 1
 171 329 l 1
 51 329 l 1
 51 389 l 1
 171 389 l 1
 171 628 l 1
 261 718 l 1
 440 718 l 1
 528 628 l 1
 528 568 l 1
 470 568 l 1
 470 603 l 1
 415 658 l 1
 286 658 l 1
 231 603 l 1
 231 389 l 1
 351 389 l 1
 351 329 l 1
 231 329 l 1
 231 154 l 1
 136 60 l 1
EndSplineSet
Validated: 1
EndChar

StartChar: currency
Encoding: 164 164 103
Width: 662
VWidth: 1661
Flags: W
HStem: 120 59<186 435> 538 60<186 435>
VStem: 71 60<234 483> 490 60<234 483>
LayerCount: 2
Fore
SplineSet
550 209 m 1
 527 184 l 1
 580 131 l 1
 537 90 l 1
 483 143 l 1
 460 120 l 1
 161 120 l 1
 138 143 l 1
 85 90 l 1
 42 131 l 1
 95 184 l 1
 71 209 l 1
 71 508 l 1
 95 532 l 1
 42 585 l 1
 85 628 l 1
 138 573 l 1
 161 598 l 1
 460 598 l 1
 483 573 l 1
 537 628 l 1
 580 585 l 1
 527 532 l 1
 550 508 l 1
 550 209 l 1
186 179 m 1
 435 179 l 1
 490 234 l 1
 490 483 l 1
 435 538 l 1
 186 538 l 1
 131 483 l 1
 131 234 l 1
 186 179 l 1
EndSplineSet
Validated: 1
EndChar

StartChar: yen
Encoding: 165 165 104
Width: 617
VWidth: 1661
Flags: W
HStem: 0 21G<264 324> 194 60<115 264 324 473> 314 60<115 214 375 473> 696 20G<55 115 473 533>
VStem: 55 60<537 716> 264 60<0 194 254 314> 473 60<535 716>
CounterMasks: 1 0e
LayerCount: 2
Fore
SplineSet
473 716 m 1
 533 716 l 1
 533 507 l 1
 375 374 l 1
 473 374 l 1
 473 314 l 1
 324 314 l 1
 324 254 l 1
 473 254 l 1
 473 194 l 1
 324 194 l 1
 324 0 l 1
 264 0 l 1
 264 194 l 1
 115 194 l 1
 115 254 l 1
 264 254 l 1
 264 314 l 1
 115 314 l 1
 115 374 l 1
 214 374 l 1
 55 510 l 1
 55 716 l 1
 115 716 l 1
 115 537 l 1
 294 382 l 1
 473 535 l 1
 473 716 l 1
EndSplineSet
Validated: 1
EndChar

StartChar: brokenbar
Encoding: 166 166 105
Width: 199
VWidth: 1661
Flags: W
HStem: -209 21G<56 115>
VStem: 56 59<-209 299 359 836>
LayerCount: 2
Fore
SplineSet
56 836 m 1
 115 836 l 1
 115 359 l 1
 56 359 l 1
 56 836 l 1
56 -209 m 1
 56 299 l 1
 115 299 l 1
 115 -209 l 1
 56 -209 l 1
EndSplineSet
Validated: 1
EndChar

StartChar: section
Encoding: 167 167 106
Width: 556
VWidth: 1661
Flags: W
HStem: -60 60<199 359> 179 60<199 359> 419 59<169 329> 658 60<169 329>
VStem: 55 60<324 364 533 603> 85 60<55 90> 384 60<568 603> 414 59<55 126 294 334>
LayerCount: 2
Fore
SplineSet
414 209 m 1xf9
 473 150 l 1
 473 30 l 1xf9
 384 -60 l 1
 174 -60 l 1
 85 30 l 1
 85 90 l 1
 145 90 l 1
 145 55 l 1xf6
 199 0 l 1
 359 0 l 1
 414 55 l 1
 414 126 l 1
 359 179 l 1
 174 179 l 1
 55 299 l 1
 55 389 l 1
 115 449 l 1
 55 508 l 1
 55 628 l 1xf9
 145 718 l 1
 354 718 l 1
 444 628 l 1
 444 568 l 1
 384 568 l 1
 384 603 l 1xf6
 329 658 l 1
 169 658 l 1
 115 603 l 1
 115 533 l 1
 169 478 l 1
 352 478 l 1
 473 359 l 1
 473 269 l 1
 414 209 l 1xf9
199 239 m 1
 359 239 l 1
 414 294 l 1
 414 334 l 1
 329 419 l 1
 169 419 l 1
 115 364 l 1
 115 324 l 1
 199 239 l 1
EndSplineSet
Validated: 1
EndChar

StartChar: dieresis
Encoding: 168 168 107
Width: 408
VWidth: 1661
Flags: W
HStem: 777 108<81 126 249 294>
VStem: 50 108<809 854> 218 108<809 854>
LayerCount: 2
Fore
SplineSet
81 885 m 1
 126 885 l 1
 158 854 l 1
 158 809 l 1
 126 777 l 1
 81 777 l 1
 50 809 l 1
 50 854 l 1
 81 885 l 1
294 885 m 1
 326 854 l 1
 326 809 l 1
 294 777 l 1
 249 777 l 1
 218 809 l 1
 218 854 l 1
 249 885 l 1
 294 885 l 1
EndSplineSet
Validated: 1
EndChar

StartChar: copyright
Encoding: 169 169 108
Width: 734
VWidth: 1661
Flags: W
HStem: 60 60<228 477> 179 60<287 417> 478 59<287 415> 596 60<228 477>
VStem: 53 60<234 482> 173 60<294 422> 472 60<294 329 389 422> 591 60<234 483>
LayerCount: 2
Fore
SplineSet
502 656 m 1
 651 508 l 1
 651 209 l 1
 502 60 l 1
 203 60 l 1
 53 209 l 1
 53 507 l 1
 203 656 l 1
 502 656 l 1
591 234 m 1
 591 483 l 1
 477 596 l 1
 228 596 l 1
 113 482 l 1
 113 234 l 1
 228 120 l 1
 477 120 l 1
 591 234 l 1
440 537 m 1
 532 447 l 1
 532 389 l 1
 472 389 l 1
 472 422 l 1
 415 478 l 1
 287 478 l 1
 233 422 l 1
 233 294 l 1
 287 239 l 1
 417 239 l 1
 472 294 l 1
 472 329 l 1
 532 329 l 1
 532 269 l 1
 442 179 l 1
 262 179 l 1
 173 269 l 1
 173 447 l 1
 262 537 l 1
 440 537 l 1
EndSplineSet
Validated: 1
EndChar

StartChar: ordfeminine
Encoding: 170 170 109
Width: 505
VWidth: 1661
Flags: W
HStem: 276 55<148 284> 463 57<125 365> 608 56<125 350.307>
VStem: 55 55<369 427 542 592.448> 365 55<276 357 405.779 463 520 593.163>
LayerCount: 2
Fore
SplineSet
148 608 m 1
 133 593 116 579 110 571 c 1
 110 542 l 1
 55 542 l 1
 55 595 l 1
 125 664 l 1
 351 664 l 1
 420 595 l 1
 420 276 l 1
 365 276 l 1
 365 357 l 1
 284 276 l 1
 125 276 l 1
 55 346 l 1
 55 450 l 1
 125 520 l 1
 365 520 l 1
 365 571 l 1
 359 579 332 604 329 608 c 1
 148 608 l 1
148 463 m 1
 146 462 140 457 129 446 c 2
 110 427 l 1
 110 369 l 1
 148 331 l 1
 269 331 l 1
 270 332 276 337 285 347 c 0
 301 364 363 425 365 429 c 1
 365 463 l 1
 148 463 l 1
EndSplineSet
Validated: 1
EndChar

StartChar: guillemotleft
Encoding: 171 171 110
Width: 501
VWidth: 1661
Flags: W
LayerCount: 2
Fore
SplineSet
118 279 m 1
 118 272 l 1
 238 163 l 1
 238 81 l 1
 58 246 l 1
 58 306 l 1
 238 470 l 1
 238 389 l 1
 118 279 l 1
417 389 m 1
 297 279 l 1
 297 272 l 1
 417 163 l 1
 417 81 l 1
 238 246 l 1
 238 306 l 1
 417 470 l 1
 417 389 l 1
EndSplineSet
Validated: 1
EndChar

StartChar: logicalnot
Encoding: 172 172 111
Width: 649
VWidth: 1661
Flags: W
HStem: 329 60<56 505>
VStem: 505 60<150 329>
LayerCount: 2
Fore
SplineSet
56 389 m 1
 565 389 l 1
 565 150 l 1
 505 150 l 1
 505 329 l 1
 56 329 l 1
 56 389 l 1
EndSplineSet
Validated: 1
EndChar

StartChar: registered
Encoding: 174 174 112
Width: 549
VWidth: 1661
Flags: W
HStem: 306 41<193 324> 477 38<224 282> 571 40<224 282> 676 42<194 324>
VStem: 53 42<445 576> 184 40<414 477 515 571> 309 40<412 450 543 545> 424 41<447 575>
LayerCount: 2
Fore
SplineSet
341 718 m 1
 465 593 l 1
 465 430 l 2
 465 429 459 422 446 410 c 2
 361 325 l 2
 348 312 342 306 341 306 c 2
 176 306 l 1
 74 410 l 2
 61 422 54 429 53 429 c 1
 53 593 l 1
 178 718 l 1
 341 718 l 1
424 447 m 1
 424 575 l 1
 324 676 l 1
 194 676 l 1
 95 576 l 1
 95 445 l 1
 193 347 l 1
 324 347 l 1
 424 447 l 1
184 611 m 1
 299 611 l 1
 349 561 l 1
 349 527 l 1
 336 513 l 1
 319 497 l 1
 320 494 322 492 324 490 c 0
 332 482 340 474 349 465 c 1
 349 412 l 1
 309 412 l 1
 309 450 l 1
 282 477 l 1
 224 477 l 1
 224 414 l 1
 184 414 l 1
 184 611 l 1
309 543 m 1
 309 545 l 1
 282 571 l 1
 224 571 l 1
 224 515 l 1
 282 515 l 1
 309 543 l 1
EndSplineSet
Validated: 1
EndChar

StartChar: macron
Encoding: 175 175 113
Width: 350
VWidth: 1661
Flags: W
HStem: 802 60<56 266>
VStem: 56 210<802 862>
LayerCount: 2
Fore
SplineSet
266 802 m 1
 56 802 l 1
 56 862 l 1
 266 862 l 1
 266 802 l 1
EndSplineSet
Validated: 1
EndChar

StartChar: degree
Encoding: 176 176 114
Width: 294
VWidth: 1661
Flags: W
HStem: 507 53<141 184> 664 52<141 184>
VStem: 58 52<590 633> 214 53<590 633>
LayerCount: 2
Fore
SplineSet
206 716 m 1
 267 655 l 1
 267 568 l 1
 206 507 l 1
 120 507 l 1
 58 568 l 1
 58 655 l 1
 120 716 l 1
 206 716 l 1
214 590 m 1
 214 633 l 1
 184 664 l 1
 141 664 l 1
 110 633 l 1
 110 590 l 1
 141 560 l 1
 184 560 l 1
 214 590 l 1
EndSplineSet
Validated: 1
EndChar

StartChar: plusminus
Encoding: 177 177 115
Width: 672
VWidth: 1661
Flags: W
HStem: 0 60<51 289 349 588> 299 60<51 289 349 588>
VStem: 289 60<60 299 359 598>
LayerCount: 2
Fore
SplineSet
588 299 m 1
 349 299 l 1
 349 60 l 1
 588 60 l 1
 588 0 l 1
 51 0 l 1
 51 60 l 1
 289 60 l 1
 289 299 l 1
 51 299 l 1
 51 359 l 1
 289 359 l 1
 289 598 l 1
 349 598 l 1
 349 359 l 1
 588 359 l 1
 588 299 l 1
EndSplineSet
Validated: 1
EndChar

StartChar: twosuperior
Encoding: 178 178 116
Width: 411
VWidth: 1661
Flags: W
HStem: 296 55<111 327> 659 55<121.344 248>
VStem: 56 55<351 389.882> 65 55<610 658> 271 56<571.979 636>
LayerCount: 2
Fore
SplineSet
143 659 m 1xe8
 140 658 125 640 120 636 c 1
 120 610 l 1
 65 610 l 1
 65 658 l 1xd8
 121 714 l 1
 271 714 l 1
 327 659 l 1
 327 566 l 1
 147 403 l 2
 124 382 112 371 111 370 c 1
 111 351 l 1
 327 351 l 1
 327 296 l 1
 56 296 l 1
 56 394 l 1
 236 559 l 2
 258 580 270 590 271 591 c 1
 271 636 l 1
 248 659 l 1
 143 659 l 1xe8
EndSplineSet
Validated: 1
EndChar

StartChar: threesuperior
Encoding: 179 179 117
Width: 411
VWidth: 1661
Flags: W
HStem: 296 55<136 270.738> 493 57<140 270.875> 659 55<121.494 248>
VStem: 56 55<354.188 400> 65 55<610 656.453> 272 55<352.658 470 573 656.938>
LayerCount: 2
Fore
SplineSet
145 659 m 1xf4
 137 653 126 640 120 636 c 1
 120 610 l 1
 65 610 l 1
 65 658 l 1xec
 121 714 l 1
 271 714 l 1
 327 659 l 1
 327 550 l 1
 316 538 l 2
 306 528 303 528 299 522 c 1
 302 516 309 512 316 505 c 2
 327 493 l 1
 327 352 l 1
 271 296 l 1
 113 296 l 1
 56 352 l 1
 56 400 l 1
 111 400 l 1
 111 374 l 1
 114 373 118 369 124 363 c 2
 136 351 l 1
 248 351 l 2
 249 351 269 372 272 374 c 1
 272 470 l 1
 260 482 l 2
 254 489 250 492 248 493 c 1
 140 493 l 1
 140 550 l 1
 248 550 l 1
 250 551 254 555 260 561 c 2
 272 573 l 1
 272 636 l 1
 270 637 266 641 260 647 c 2
 248 659 l 1
 145 659 l 1xf4
EndSplineSet
Validated: 1
EndChar

StartChar: acute
Encoding: 180 180 118
Width: 259
VWidth: 1661
Flags: W
HStem: 756 119
VStem: 55 119
LayerCount: 2
Fore
SplineSet
55 756 m 1
 100 875 l 1
 174 875 l 1
 85 756 l 1
 55 756 l 1
EndSplineSet
Validated: 1
EndChar

StartChar: mu
Encoding: 181 181 119
Width: 586
VWidth: 1661
Flags: W
HStem: -209 21G<55 115> 0 60<169 309> 487 20G<55 115 444 503>
VStem: 55 60<-209 30 113 507> 444 59<0 120 193 507>
LayerCount: 2
Fore
SplineSet
444 507 m 1
 503 507 l 1
 503 0 l 1
 444 0 l 1
 444 120 l 1
 324 0 l 1
 145 0 l 1
 115 30 l 1
 115 -209 l 1
 55 -209 l 1
 55 507 l 1
 115 507 l 1
 115 113 l 1
 169 60 l 1
 309 60 l 1
 444 193 l 1
 444 507 l 1
EndSplineSet
Validated: 1
EndChar

StartChar: paragraph
Encoding: 182 182 120
Width: 463
VWidth: 1661
Flags: W
HStem: -209 21G<201 261 321 380>
VStem: 51 210<485 621> 201 60<-209 389> 321 59<-209 718>
LayerCount: 2
Fore
SplineSet
321 718 m 1x90
 380 718 l 1
 380 -209 l 1
 321 -209 l 1
 321 718 l 1x90
148 718 m 1
 261 718 l 1
 261 -209 l 1
 201 -209 l 1
 201 389 l 1xb0
 148 389 l 1
 51 485 l 1
 51 621 l 1xd0
 148 718 l 1
EndSplineSet
Validated: 1
EndChar

StartChar: periodcentered
Encoding: 183 183 121
Width: 264
VWidth: 1661
Flags: W
HStem: 299 118<95 145>
VStem: 60 119<334 382>
LayerCount: 2
Fore
SplineSet
179 382 m 1
 179 334 l 1
 145 299 l 1
 95 299 l 1
 60 334 l 1
 60 382 l 1
 95 417 l 1
 145 417 l 1
 179 382 l 1
EndSplineSet
Validated: 1
EndChar

StartChar: cedilla
Encoding: 184 184 122
Width: 285
VWidth: 1661
Flags: W
HStem: -251 52<51 120>
VStem: 150 53<-168 -133>
LayerCount: 2
Fore
SplineSet
141 -50 m 1
 203 -110 l 1
 203 -189 l 1
 141 -251 l 1
 51 -251 l 1
 51 -199 l 1
 120 -199 l 1
 150 -168 l 1
 150 -133 l 1
 120 -101 l 1
 51 -101 l 1
 51 -71 l 1
 136 33 l 1
 164 15 l 1
 128 -50 l 1
 141 -50 l 1
EndSplineSet
Validated: 1
EndChar

StartChar: onesuperior
Encoding: 185 185 123
Width: 257
VWidth: 1661
Flags: W
HStem: 696 20G<103 173>
VStem: 118 55<296 631>
LayerCount: 2
Fore
SplineSet
173 716 m 1
 173 296 l 1
 118 296 l 1
 118 631 l 1
 111 627 106 619 98 611 c 2
 86 600 l 1
 47 640 l 1
 123 716 l 1
 173 716 l 1
EndSplineSet
Validated: 1
EndChar

StartChar: ordmasculine
Encoding: 186 186 124
Width: 411
VWidth: 1661
Flags: W
HStem: 389 51<141 244> 605 51<141 244>
VStem: 58 52<470 573> 274 53<470 573>
LayerCount: 2
Fore
SplineSet
266 656 m 1
 327 596 l 1
 327 449 l 1
 266 389 l 1
 120 389 l 1
 58 449 l 1
 58 596 l 1
 120 656 l 1
 266 656 l 1
274 470 m 1
 274 573 l 1
 244 605 l 1
 141 605 l 1
 110 573 l 1
 110 470 l 1
 141 440 l 1
 244 440 l 1
 274 470 l 1
EndSplineSet
Validated: 1
EndChar

StartChar: guillemotright
Encoding: 187 187 125
Width: 501
VWidth: 1661
Flags: W
LayerCount: 2
Fore
SplineSet
239 470 m 1
 419 306 l 1
 419 246 l 1
 239 81 l 1
 239 161 l 1
 359 271 l 1
 359 279 l 1
 239 389 l 1
 239 470 l 1
239 306 m 1
 239 246 l 1
 60 81 l 1
 60 161 l 1
 179 271 l 1
 179 279 l 1
 60 389 l 1
 60 470 l 1
 239 306 l 1
EndSplineSet
Validated: 1
EndChar

StartChar: onequarter
Encoding: 188 188 126
Width: 764
VWidth: 1661
Flags: W
HStem: 0 21G<111 190.476 591 646> 66 55<465 591 646 679>
VStem: 121 55<297 633> 410 55<121 146> 591 55<0 66 121 359>
LayerCount: 2
Fore
SplineSet
679 121 m 1
 679 66 l 1
 646 66 l 1
 646 0 l 1
 591 0 l 1
 591 66 l 1
 410 66 l 1
 410 146 l 1
 563 419 l 1
 646 419 l 1
 646 121 l 1
 679 121 l 1
591 359 m 1
 589 354 581 340 568 316 c 2
 484 166 l 2
 471 144 465 132 465 131 c 2
 465 121 l 1
 591 121 l 1
 591 359 l 1
591 718 m 1
 179 0 l 1
 111 0 l 1
 522 718 l 1
 591 718 l 1
121 633 m 1
 90 601 l 1
 51 641 l 1
 128 718 l 1
 176 718 l 1
 176 297 l 1
 121 297 l 1
 121 633 l 1
EndSplineSet
Validated: 1
LCarets2: 2 0 0 
Ligature2: "'frac' Diagonal Fractions in Latin lookup 0 subtable" one fraction four
Ligature2: "'frac' Diagonal Fractions in Latin lookup 0 subtable" one slash four
EndChar

StartChar: onehalf
Encoding: 189 189 127
Width: 850
VWidth: 1661
Flags: W
HStem: 0 55<552 766> 364 55<561.049 709.232>
VStem: 120 54<299 633> 497 55<55 95.5479> 505 55<312 362> 711 55<276.566 361.705>
LayerCount: 2
Fore
SplineSet
583 364 m 1xf4
 580 358 565 346 560 341 c 1
 560 312 l 1
 505 312 l 1
 505 362 l 1
 560 419 l 1xec
 711 419 l 1
 766 362 l 1
 766 271 l 1
 586 107 l 2
 564 86 553 76 552 75 c 1
 552 55 l 1
 766 55 l 1
 766 0 l 1
 497 0 l 1
 497 98 l 1
 676 264 l 2
 698 284 710 295 711 296 c 1
 711 341 l 1
 708 342 690 358 688 364 c 1
 583 364 l 1xf4
120 633 m 1
 117 631 114 628 110 625 c 2
 88 603 l 1
 50 641 l 1
 126 718 l 1
 174 718 l 1
 174 299 l 1
 120 299 l 1
 120 633 l 1
590 718 m 1
 179 0 l 1
 110 0 l 1
 522 718 l 1
 590 718 l 1
EndSplineSet
Validated: 1
LCarets2: 2 0 0 
Ligature2: "'frac' Diagonal Fractions in Latin lookup 0 subtable" one fraction two
Ligature2: "'frac' Diagonal Fractions in Latin lookup 0 subtable" one slash two
EndChar

StartChar: threequarters
Encoding: 190 190 128
Width: 911
VWidth: 1661
Flags: W
HStem: 0 21G<256 337.421 739 794> 66 55<613 739 794 827> 297 57<128 262.875> 497 55<133 241> 663 55<116.453 261.527>
VStem: 50 55<377 404> 58 55<613 638> 264 55<355.02 473 575 661> 558 55<121 146> 739 55<0 66 121 359>
LayerCount: 2
Fore
SplineSet
264 638 m 1xfdc0
 260 644 247 655 241 663 c 1
 136 663 l 1
 135 660 132 656 126 650 c 2
 113 638 l 1
 113 613 l 1
 58 613 l 1
 58 661 l 1xfbc0
 115 718 l 1
 264 718 l 1
 319 661 l 1
 319 553 l 1
 307 542 l 2
 297 532 297 529 291 525 c 1
 296 520 300 514 307 507 c 2
 319 495 l 1
 319 354 l 1
 264 297 l 1
 106 297 l 1
 50 354 l 1
 50 404 l 1
 105 404 l 1
 105 377 l 1
 128 354 l 1
 241 354 l 1
 257 365 259 372 264 377 c 1
 264 473 l 1
 252 484 l 2
 246 490 242 494 241 497 c 1
 133 497 l 1
 133 552 l 1
 241 552 l 1
 264 575 l 1
 264 638 l 1xfdc0
827 121 m 1
 827 66 l 1
 794 66 l 1
 794 0 l 1
 739 0 l 1
 739 66 l 1
 558 66 l 1
 558 146 l 1
 711 419 l 1
 794 419 l 1
 794 121 l 1
 827 121 l 1
739 359 m 1
 737 354 729 340 716 316 c 2
 632 166 l 2
 619 144 613 132 613 131 c 2
 613 121 l 1
 739 121 l 1
 739 359 l 1
736 718 m 1
 326 0 l 1
 256 0 l 1
 668 718 l 1
 736 718 l 1
EndSplineSet
Validated: 1
LCarets2: 2 0 0 
Ligature2: "'frac' Diagonal Fractions in Latin lookup 0 subtable" three fraction four
Ligature2: "'frac' Diagonal Fractions in Latin lookup 0 subtable" three slash four
EndChar

StartChar: questiondown
Encoding: 191 191 129
Width: 584
VWidth: 1661
Flags: W
HStem: -209 59<166 385> 432 75<261 292>
VStem: 53 60<-95 5> 239 75<455 485> 246 60<208 359> 440 60<-95 -60>
LayerCount: 2
Fore
SplineSet
292 432 m 1xf4
 261 432 l 1
 239 455 l 1
 239 485 l 1
 261 507 l 1
 292 507 l 1
 314 485 l 1
 314 455 l 1
 292 432 l 1xf4
440 -60 m 1
 500 -60 l 1
 500 -120 l 1
 410 -209 l 1
 141 -209 l 1
 53 -120 l 1
 53 32 l 1
 246 208 l 1
 246 359 l 1
 306 359 l 1
 306 181 l 1xec
 113 5 l 1
 113 -95 l 1
 166 -150 l 1
 385 -150 l 1
 440 -95 l 1
 440 -60 l 1
EndSplineSet
Validated: 1
EndChar

StartChar: AE
Encoding: 198 198 135
Width: 1003
VWidth: 1661
Flags: W
HStem: 0 60<585 919> 209 60<111 470> 329 60<530 889> 658 60<449 470 585 919>
VStem: 51 60<0 209 269 372> 470 60<115 209 269 329 389 603>
LayerCount: 2
Fore
SplineSet
585 658 m 1
 530 603 l 1
 530 389 l 1
 889 389 l 1
 889 329 l 1
 530 329 l 1
 530 115 l 1
 585 60 l 1
 919 60 l 1
 919 0 l 1
 560 0 l 1
 470 90 l 1
 470 209 l 1
 111 209 l 1
 111 0 l 1
 51 0 l 1
 51 389 l 1
 440 718 l 1
 530 718 l 1
 530 688 l 1
 560 718 l 1
 919 718 l 1
 919 658 l 1
 585 658 l 1
111 269 m 1
 470 269 l 1
 470 658 l 1
 449 658 l 1
 111 372 l 1
 111 269 l 1
EndSplineSet
Validated: 1
EndChar

StartChar: Ccedilla
Encoding: 199 199 136
Width: 616
VWidth: 1661
Flags: W
HStem: -251 52<219 287> 0 60<169 277 324 419> 656 60<169 419>
VStem: 55 60<113 601> 317 53<-168 -133> 473 60<115 150 566 603>
LayerCount: 2
Fore
SplineSet
370 -110 m 1
 370 -189 l 1
 309 -251 l 1
 219 -251 l 1
 219 -199 l 1
 287 -199 l 1
 317 -168 l 1
 317 -133 l 1
 287 -101 l 1
 219 -101 l 1
 219 -71 l 1
 277 0 l 1
 145 0 l 1
 55 90 l 1
 55 626 l 1
 145 716 l 1
 444 716 l 1
 533 626 l 1
 533 566 l 1
 473 566 l 1
 473 603 l 1
 419 656 l 1
 169 656 l 1
 115 601 l 1
 115 113 l 1
 169 60 l 1
 419 60 l 1
 473 115 l 1
 473 150 l 1
 533 150 l 1
 533 90 l 1
 444 0 l 1
 324 0 l 1
 296 -50 l 1
 309 -50 l 1
 370 -110 l 1
EndSplineSet
Validated: 1
EndChar

StartChar: Eth
Encoding: 208 208 145
Width: 676
VWidth: 1661
Flags: W
HStem: 0 60<173 477> 329 60<53 113 173 352> 656 60<173 477>
VStem: 113 60<60 329 389 656> 532 59<115 603>
LayerCount: 2
Fore
SplineSet
502 716 m 1
 591 626 l 1
 591 90 l 1
 502 0 l 1
 113 0 l 1
 113 329 l 1
 53 329 l 1
 53 389 l 1
 113 389 l 1
 113 716 l 1
 502 716 l 1
532 115 m 1
 532 603 l 1
 477 656 l 1
 173 656 l 1
 173 389 l 1
 352 389 l 1
 352 329 l 1
 173 329 l 1
 173 60 l 1
 477 60 l 1
 532 115 l 1
EndSplineSet
Validated: 1
EndChar

StartChar: multiply
Encoding: 215 215 152
Width: 591
VWidth: 1661
Flags: W
LayerCount: 2
Fore
SplineSet
279 392 m 1
 438 552 l 2
 457 571 467 582 468 583 c 1
 469 582 471 580 473 578 c 2
 484 567 l 2
 491 561 502 550 507 547 c 1
 316 355 l 1
 474 198 l 2
 493 178 504 167 507 166 c 1
 468 128 l 1
 279 319 l 1
 121 161 l 2
 101 141 91 130 90 128 c 1
 51 166 l 1
 150 262 l 1
 243 355 l 1
 51 547 l 1
 55 549 66 559 68 561 c 2
 90 583 l 1
 91 581 101 570 121 550 c 2
 279 392 l 1
EndSplineSet
Validated: 1
EndChar

StartChar: Oslash
Encoding: 216 216 153
Width: 644
VWidth: 1661
Flags: W
HStem: 0 60<168 447> 656 60<168 447>
VStem: 53 60<113 601> 502 59<115 603>
LayerCount: 2
Fore
SplineSet
561 716 m 1
 527 661 l 1
 561 628 l 1
 561 90 l 1
 472 0 l 1
 143 0 l 1
 130 12 l 1
 105 -32 l 1
 53 0 l 1
 86 55 l 1
 53 90 l 1
 53 626 l 1
 143 716 l 1
 472 716 l 1
 483 704 l 1
 510 748 l 1
 561 716 l 1
113 113 m 1
 120 108 l 1
 452 651 l 1
 447 656 l 1
 168 656 l 1
 113 601 l 1
 113 113 l 1
502 603 m 1
 495 608 l 1
 163 65 l 1
 168 60 l 1
 447 60 l 1
 502 115 l 1
 502 603 l 1
EndSplineSet
Validated: 1
EndChar

StartChar: Thorn
Encoding: 222 222 159
Width: 588
VWidth: 1661
Flags: W
HStem: 0 21G<55 115> 164 60<115 389> 492 60<115 389> 696 20G<55 115>
VStem: 55 60<0 164 224 492 552 716> 444 59<279 439>
LayerCount: 2
Fore
SplineSet
414 552 m 1
 503 463 l 1
 503 254 l 1
 414 164 l 1
 115 164 l 1
 115 0 l 1
 55 0 l 1
 55 716 l 1
 115 716 l 1
 115 552 l 1
 414 552 l 1
444 279 m 1
 444 439 l 1
 389 492 l 1
 115 492 l 1
 115 224 l 1
 389 224 l 1
 444 279 l 1
EndSplineSet
Validated: 1
EndChar

StartChar: uni00DF
Encoding: 223 223 160
Width: 556
VWidth: 1661
Flags: W
HStem: -209 21G<53 113> 0 60<173 357> 656 60<168 327>
VStem: 53 60<-209 603> 382 60<472 601> 412 60<115 204>
LayerCount: 2
Fore
SplineSet
347 354 m 1xf8
 472 229 l 1
 472 90 l 1xf4
 382 0 l 1xf8
 173 0 l 1
 173 60 l 1
 357 60 l 1
 412 115 l 1
 412 204 l 1xf4
 262 354 l 1
 382 472 l 1
 382 601 l 1
 327 656 l 1
 168 656 l 1
 113 603 l 1
 113 -209 l 1
 53 -209 l 1
 53 626 l 1
 143 716 l 1
 352 716 l 1
 442 626 l 1
 442 449 l 1
 347 354 l 1xf8
EndSplineSet
Validated: 1
EndChar

StartChar: ae
Encoding: 230 230 167
Width: 1034
VWidth: 1661
Flags: W
HStem: 0 60<168 337 585 831> 224 60<532 889> 254 60<168 472> 449 59<168 417 586 836>
VStem: 53 60<115 199 359 394> 472 60<115 121 194 224 314 394> 889 60<284 394>
LayerCount: 2
Fore
SplineSet
949 224 m 1xde
 532 224 l 1
 532 115 l 1
 585 60 l 1
 831 60 l 1
 831 0 l 1
 561 0 l 1
 472 90 l 1
 472 121 l 1
 352 0 l 1
 143 0 l 1
 53 90 l 1
 53 224 l 1xde
 143 314 l 1
 472 314 l 1xbe
 472 394 l 1
 417 449 l 1
 168 449 l 1
 113 394 l 1
 113 359 l 1
 53 359 l 1
 53 419 l 1
 143 508 l 1
 442 508 l 1
 502 449 l 1
 561 508 l 1
 861 508 l 1
 949 419 l 1
 949 224 l 1xde
586 449 m 1
 532 394 l 1
 532 284 l 1
 889 284 l 1
 889 394 l 1
 836 449 l 1
 586 449 l 1
113 115 m 1
 168 60 l 1
 337 60 l 1
 472 194 l 1
 472 254 l 1
 168 254 l 1xbe
 113 199 l 1
 113 115 l 1
EndSplineSet
Validated: 1
EndChar

StartChar: ccedilla
Encoding: 231 231 168
Width: 619
VWidth: 1661
Flags: W
HStem: -249 51<218 286> 0 60<169 274 321 419> 449 59<169 419>
VStem: 55 60<115 394> 316 53<-166 -131> 473 60<115 150 359 394>
LayerCount: 2
Fore
SplineSet
369 -108 m 1
 369 -188 l 1
 307 -249 l 1
 218 -249 l 1
 218 -198 l 1
 286 -198 l 1
 316 -166 l 1
 316 -131 l 1
 286 -100 l 1
 218 -100 l 1
 218 -70 l 1
 274 0 l 1
 145 0 l 1
 55 90 l 1
 55 419 l 1
 145 508 l 1
 444 508 l 1
 533 419 l 1
 533 359 l 1
 473 359 l 1
 473 394 l 1
 419 449 l 1
 169 449 l 1
 115 394 l 1
 115 115 l 1
 169 60 l 1
 419 60 l 1
 473 115 l 1
 473 150 l 1
 533 150 l 1
 533 90 l 1
 444 0 l 1
 321 0 l 1
 294 -48 l 1
 307 -48 l 1
 369 -108 l 1
EndSplineSet
Validated: 1
EndChar

StartChar: eth
Encoding: 240 240 177
Width: 617
VWidth: 1661
Flags: W
HStem: 0 60<169 419> 449 59<169 341> 507 21G<383.444 428.913>
VStem: 55 60<115 394> 473 60<115 314 389 553 648 718>
LayerCount: 2
Fore
SplineSet
640 648 m 1xb8
 533 586 l 1
 533 90 l 1
 444 0 l 1
 145 0 l 1
 55 90 l 1
 55 419 l 1
 145 508 l 1
 354 508 l 1xd8
 473 389 l 1
 473 553 l 1
 395 507 l 1
 369 552 l 1
 473 613 l 1
 473 718 l 1
 533 718 l 1
 533 648 l 1
 613 693 l 1
 640 648 l 1xb8
473 115 m 1
 473 314 l 1
 341 449 l 1
 169 449 l 1
 115 394 l 1
 115 115 l 1
 169 60 l 1
 419 60 l 1
 473 115 l 1
EndSplineSet
Validated: 1
EndChar

StartChar: divide
Encoding: 247 247 184
Width: 672
VWidth: 1661
Flags: W
HStem: 176 90<301 339> 326 59<50 588> 445 90<301 339>
VStem: 274 90<203 239 472 508>
CounterMasks: 1 e0
LayerCount: 2
Fore
SplineSet
50 385 m 1
 588 385 l 1
 588 326 l 1
 50 326 l 1
 50 385 l 1
339 445 m 1
 301 445 l 1
 274 472 l 1
 274 508 l 1
 301 535 l 1
 339 535 l 1
 364 508 l 1
 364 472 l 1
 339 445 l 1
301 266 m 1
 339 266 l 1
 364 239 l 1
 364 203 l 1
 339 176 l 1
 301 176 l 1
 274 203 l 1
 274 239 l 1
 301 266 l 1
EndSplineSet
Validated: 1
EndChar

StartChar: oslash
Encoding: 248 248 185
Width: 616
VWidth: 1661
Flags: W
HStem: 0 60<171 417> 449 59<168 410>
VStem: 53 60<115 394> 472 60<115 394>
LayerCount: 2
Fore
SplineSet
532 419 m 1
 532 90 l 1
 442 0 l 1
 143 0 l 1
 133 12 l 1
 100 -30 l 1
 53 8 l 1
 90 55 l 1
 53 90 l 1
 53 419 l 1
 143 508 l 1
 442 508 l 1
 452 500 l 1
 483 540 l 1
 530 502 l 1
 493 457 l 1
 532 419 l 1
113 115 m 1
 128 101 l 1
 410 449 l 1
 168 449 l 1
 113 394 l 1
 113 115 l 1
417 60 m 1
 472 115 l 1
 472 394 l 1
 455 410 l 1
 171 60 l 1
 417 60 l 1
EndSplineSet
Validated: 1
EndChar

StartChar: thorn
Encoding: 254 254 191
Width: 617
VWidth: 1661
Flags: W
HStem: 0 60<168 419> 449 59<169 419>
VStem: 55 60<-179 30 115 394 478 688> 472 60<115 394>
LayerCount: 2
Fore
SplineSet
532 419 m 1
 532 90 l 1
 442 0 l 1
 145 0 l 1
 115 30 l 1
 115 -179 l 1
 55 -179 l 1
 55 688 l 1
 115 688 l 1
 115 478 l 1
 145 508 l 1
 444 508 l 1
 532 419 l 1
419 60 m 1
 472 115 l 1
 472 394 l 1
 419 449 l 1
 169 449 l 1
 115 394 l 1
 115 115 l 1
 168 60 l 1
 419 60 l 1
EndSplineSet
Validated: 1
EndChar

StartChar: Lslash
Encoding: 321 321 193
Width: 563
VWidth: 1661
Flags: W
HStem: 0 60<120 478>
VStem: 60 60<60 272 415 718>
LayerCount: 2
Fore
SplineSet
120 60 m 1
 478 60 l 1
 478 0 l 1
 60 0 l 1
 60 272 l 1
 0 213 l 1
 0 297 l 1
 60 357 l 1
 60 718 l 1
 120 718 l 1
 120 415 l 1
 209 505 l 1
 209 422 l 1
 120 332 l 1
 120 60 l 1
EndSplineSet
Validated: 1
EndChar

StartChar: lslash
Encoding: 322 322 194
Width: 265
VWidth: 1661
Flags: W
HStem: 0 21G<60 120>
VStem: 60 60<0 286 429 718>
LayerCount: 2
Fore
SplineSet
179 488 m 1
 179 405 l 1
 120 346 l 1
 120 0 l 1
 60 0 l 1
 60 286 l 1
 0 226 l 1
 0 309 l 1
 60 369 l 1
 60 718 l 1
 120 718 l 1
 120 429 l 1
 179 488 l 1
EndSplineSet
Validated: 1
EndChar

StartChar: OE
Encoding: 338 338 195
Width: 1005
VWidth: 1661
Flags: W
HStem: 0 60<168 502 586 920> 329 60<532 890> 658 60<168 502 586 920>
VStem: 53 60<115 603> 472 60<115 329 389 603>
CounterMasks: 1 e0
LayerCount: 2
Fore
SplineSet
586 658 m 1
 532 603 l 1
 532 389 l 1
 890 389 l 1
 890 329 l 1
 532 329 l 1
 532 115 l 1
 586 60 l 1
 920 60 l 1
 920 0 l 1
 143 0 l 1
 53 90 l 1
 53 628 l 1
 143 718 l 1
 920 718 l 1
 920 658 l 1
 586 658 l 1
113 115 m 1
 168 60 l 1
 502 60 l 1
 472 90 l 1
 472 628 l 1
 502 658 l 1
 168 658 l 1
 113 603 l 1
 113 115 l 1
EndSplineSet
Validated: 1
EndChar

StartChar: oe
Encoding: 339 339 196
Width: 1033
VWidth: 1661
Flags: W
HStem: 0 60<168 417 586 831> 224 60<532 890> 449 59<168 417 586 836>
VStem: 53 60<115 394> 472 60<115 224 284 394> 890 60<284 394>
LayerCount: 2
Fore
SplineSet
950 419 m 1
 950 224 l 1
 532 224 l 1
 532 115 l 1
 586 60 l 1
 831 60 l 1
 831 0 l 1
 561 0 l 1
 502 60 l 1
 442 0 l 1
 143 0 l 1
 53 90 l 1
 53 419 l 1
 143 508 l 1
 442 508 l 1
 502 449 l 1
 561 508 l 1
 861 508 l 1
 950 419 l 1
417 60 m 1
 472 115 l 1
 472 394 l 1
 417 449 l 1
 168 449 l 1
 113 394 l 1
 113 115 l 1
 168 60 l 1
 417 60 l 1
532 394 m 1
 532 284 l 1
 890 284 l 1
 890 394 l 1
 836 449 l 1
 586 449 l 1
 532 394 l 1
EndSplineSet
Validated: 1
EndChar

StartChar: florin
Encoding: 402 402 202
Width: 617
VWidth: 1661
Flags: W
HStem: 0 60<56 148> 389 60<166 272 346 452> 658 60<444 535>
LayerCount: 2
Fore
SplineSet
444 658 m 1
 379 603 l 1
 346 449 l 1
 465 449 l 1
 452 389 l 1
 332 389 l 1
 269 90 l 1
 159 0 l 1
 56 0 l 1
 56 60 l 1
 148 60 l 1
 214 115 l 1
 272 389 l 1
 153 389 l 1
 166 449 l 1
 286 449 l 1
 324 628 l 1
 432 718 l 1
 535 718 l 1
 535 658 l 1
 444 658 l 1
EndSplineSet
Validated: 1
EndChar

StartChar: circumflex
Encoding: 710 710 203
Width: 430
VWidth: 1661
Flags: W
HStem: 756 149
VStem: 50 296
LayerCount: 2
Fore
SplineSet
50 777 m 1
 179 905 l 1
 218 905 l 1
 346 777 l 1
 326 756 l 1
 198 841 l 1
 71 756 l 1
 50 777 l 1
EndSplineSet
Validated: 1
EndChar

StartChar: caron
Encoding: 711 711 204
Width: 430
VWidth: 1661
Flags: W
HStem: 756 149
VStem: 51 296
LayerCount: 2
Fore
SplineSet
347 884 m 1
 219 756 l 1
 179 756 l 1
 51 884 l 1
 71 905 l 1
 199 821 l 1
 326 905 l 1
 347 884 l 1
EndSplineSet
Validated: 1
EndChar

StartChar: breve
Encoding: 728 728 205
Width: 435
VWidth: 1661
Flags: W
HStem: 756 60<159 243>
VStem: 51 300
LayerCount: 2
Fore
SplineSet
321 905 m 1
 351 890 l 1
 272 756 l 1
 130 756 l 1
 51 890 l 1
 81 905 l 1
 159 816 l 1
 243 816 l 1
 321 905 l 1
EndSplineSet
Validated: 1
EndChar

StartChar: dotaccent
Encoding: 729 729 206
Width: 244
VWidth: 1661
Flags: W
HStem: 756 108<83 128>
VStem: 51 108<787 832>
LayerCount: 2
Fore
SplineSet
159 832 m 1
 159 787 l 1
 128 756 l 1
 83 756 l 1
 51 787 l 1
 51 832 l 1
 83 864 l 1
 128 864 l 1
 159 832 l 1
EndSplineSet
Validated: 1
EndChar

StartChar: ring
Encoding: 730 730 207
Width: 315
VWidth: 1661
Flags: W
HStem: 756 53<126 158> 884 51<126 158>
VStem: 51 54<831 861> 179 52<831 861>
LayerCount: 2
Fore
SplineSet
105 935 m 1
 179 935 l 1
 231 884 l 1
 231 809 l 1
 179 756 l 1
 105 756 l 1
 51 809 l 1
 51 884 l 1
 105 935 l 1
158 884 m 1
 126 884 l 1
 105 861 l 1
 105 831 l 1
 126 809 l 1
 158 809 l 1
 179 831 l 1
 179 861 l 1
 158 884 l 1
EndSplineSet
Validated: 1
EndChar

StartChar: ogonek
Encoding: 731 731 208
Width: 285
VWidth: 1661
Flags: W
HStem: -251 52<134 203>
VStem: 51 53<-168 -133>
LayerCount: 2
Fore
SplineSet
113 -50 m 1
 126 -50 l 1
 90 15 l 1
 118 33 l 1
 203 -71 l 1
 203 -101 l 1
 134 -101 l 1
 104 -133 l 1
 104 -168 l 1
 134 -199 l 1
 203 -199 l 1
 203 -251 l 1
 113 -251 l 1
 51 -189 l 1
 51 -110 l 1
 113 -50 l 1
EndSplineSet
Validated: 1
EndChar

StartChar: tilde
Encoding: 732 732 209
Width: 400
VWidth: 1661
Flags: W
HStem: 606 120
VStem: 48 268
LayerCount: 2
Fore
SplineSet
279 726 m 1
 316 689 l 1
 233 606 l 1
 188 633 l 1
 155 651 l 2
 146 656 141 660 140 661 c 1
 85 606 l 1
 48 643 l 1
 131 726 l 1
 208 681 l 2
 216 676 222 672 224 671 c 1
 279 726 l 1
EndSplineSet
Validated: 1
EndChar

StartChar: uni0E01
Encoding: 3585 3585 212
Width: 647
VWidth: 1661
Flags: W
HStem: 0 21G<85 145 503 563> 598 60<169 449>
VStem: 85 60<0 384> 503 60<0 543>
LayerCount: 2
Fore
SplineSet
473 658 m 1
 563 568 l 1
 563 0 l 1
 503 0 l 1
 503 543 l 1
 449 598 l 1
 169 598 l 1
 140 568 l 1
 234 473 l 1
 145 384 l 1
 145 0 l 1
 85 0 l 1
 85 409 l 1
 150 473 l 1
 55 568 l 1
 145 658 l 1
 473 658 l 1
EndSplineSet
Validated: 1
EndChar

StartChar: uni0E02
Encoding: 3586 3586 213
Width: 622
VWidth: 1661
Flags: W
HStem: 0 21G<369 468.778> 359 51<113 156> 515 53<115 156> 598 60<145 244>
VStem: 30 51<442 485> 186 53<442 485> 299 60<115 543> 478 60<115 658>
LayerCount: 2
Fore
SplineSet
478 658 m 1
 538 658 l 1
 538 90 l 1
 449 0 l 1
 389 0 l 1
 299 90 l 1
 299 543 l 1
 244 598 l 1
 145 598 l 1
 115 568 l 1
 178 568 l 1
 239 507 l 1
 239 420 l 1
 178 359 l 1
 91 359 l 1
 30 420 l 1
 30 568 l 1
 120 658 l 1
 269 658 l 1
 359 568 l 1
 359 115 l 1
 414 60 l 1
 424 60 l 1
 478 115 l 1
 478 658 l 1
186 485 m 1
 156 515 l 1
 113 515 l 1
 81 485 l 1
 81 442 l 1
 113 410 l 1
 156 410 l 1
 186 442 l 1
 186 485 l 1
EndSplineSet
Validated: 1
EndChar

StartChar: uni0E03
Encoding: 3587 3587 214
Width: 624
VWidth: 1661
Flags: W
HStem: 0 21G<370.222 470> 359 51<115 158> 515 53<116 158> 598 60<146 211 331 362>
VStem: 32 53<442 485> 188 53<442 485> 301 59<115 463> 375 60<553 585> 480 60<115 658>
LayerCount: 2
Fore
SplineSet
480 658 m 1
 540 658 l 1
 540 90 l 1
 450 0 l 1
 390 0 l 1
 301 90 l 1
 301 478 l 1
 375 553 l 1
 375 585 l 1
 362 598 l 1
 331 598 l 1
 271 538 l 1
 211 598 l 1
 146 598 l 1
 116 568 l 1
 179 568 l 1
 241 507 l 1
 241 420 l 1
 179 359 l 1
 93 359 l 1
 32 420 l 1
 32 568 l 1
 121 658 l 1
 226 658 l 1
 271 611 l 1
 316 658 l 1
 375 658 l 1
 435 600 l 1
 435 538 l 1
 360 463 l 1
 360 115 l 1
 415 60 l 1
 425 60 l 1
 480 115 l 1
 480 658 l 1
158 515 m 1
 115 515 l 1
 85 485 l 1
 85 442 l 1
 115 410 l 1
 158 410 l 1
 188 442 l 1
 188 485 l 1
 158 515 l 1
EndSplineSet
Validated: 1
EndChar

StartChar: uni0E04
Encoding: 3588 3588 215
Width: 664
VWidth: 1661
Flags: W
HStem: 0 21G<71 131 520 580> 239 53<304 347> 395 54<304 347> 598 60<186 465>
VStem: 71 60<0 224 297 543> 377 53<322 365> 520 60<0 543>
LayerCount: 2
Fore
SplineSet
490 658 m 1
 580 568 l 1
 580 0 l 1
 520 0 l 1
 520 543 l 1
 465 598 l 1
 186 598 l 1
 131 543 l 1
 131 297 l 1
 282 449 l 1
 369 449 l 1
 430 387 l 1
 430 301 l 1
 369 239 l 1
 282 239 l 1
 221 301 l 1
 221 314 l 1
 131 224 l 1
 131 0 l 1
 71 0 l 1
 71 568 l 1
 161 658 l 1
 490 658 l 1
377 365 m 1
 347 395 l 1
 304 395 l 1
 272 365 l 1
 272 322 l 1
 304 292 l 1
 347 292 l 1
 377 322 l 1
 377 365 l 1
EndSplineSet
Validated: 1
EndChar

StartChar: uni0E05
Encoding: 3589 3589 216
Width: 662
VWidth: 1661
Flags: W
HStem: 0 21G<71 131 520 580> 238 53<304 347> 395 52<304 347> 507 21G<305.775 346> 596 60<186 236 415 465>
VStem: 71 60<0 223 296 542> 377 53<321 364> 520 60<0 542>
LayerCount: 2
Fore
SplineSet
490 656 m 1
 580 566 l 1
 580 0 l 1
 520 0 l 1
 520 542 l 1
 465 596 l 1
 415 596 l 1
 326 507 l 1
 236 596 l 1
 186 596 l 1
 131 542 l 1
 131 296 l 1
 282 447 l 1
 369 447 l 1
 430 385 l 1
 430 299 l 1
 369 238 l 1
 282 238 l 1
 221 299 l 1
 221 312 l 1
 131 223 l 1
 131 0 l 1
 71 0 l 1
 71 566 l 1
 161 656 l 1
 261 656 l 1
 326 591 l 1
 392 656 l 1
 490 656 l 1
377 364 m 1
 347 395 l 1
 304 395 l 1
 272 364 l 1
 272 321 l 1
 304 291 l 1
 347 291 l 1
 377 321 l 1
 377 364 l 1
EndSplineSet
Validated: 1
EndChar

StartChar: uni0E06
Encoding: 3590 3590 217
Width: 744
VWidth: 1661
Flags: W
HStem: 0 51<264 307> 156 53<264 301> 359 53<115 158> 517 51<116 158> 598 60<146 219 339 362>
VStem: 32 53<442 485> 181 53<83 126> 189 52<442 485> 301 59<209 463> 339 51<83 116> 375 60<553 585> 600 59<60 656>
LayerCount: 2
Fore
SplineSet
600 656 m 1xfeb0
 659 656 l 1
 659 0 l 1
 600 0 l 1
 390 116 l 1
 390 61 l 1xfc50
 329 0 l 1
 243 0 l 1
 181 61 l 1
 181 148 l 1
 243 209 l 1
 301 209 l 1
 301 478 l 1
 375 553 l 1
 375 585 l 1xfeb0
 362 598 l 1
 339 598 l 1
 279 538 l 1
 219 598 l 1
 146 598 l 1
 116 568 l 1
 179 568 l 1
 241 507 l 1
 241 420 l 1xfd50
 179 359 l 1
 93 359 l 1
 32 420 l 1
 32 568 l 1
 121 658 l 1
 234 658 l 1
 279 613 l 1
 324 658 l 1
 375 658 l 1
 435 600 l 1
 435 538 l 1
 360 463 l 1
 360 193 l 1
 600 60 l 1
 600 656 l 1xfeb0
158 517 m 1
 115 517 l 1
 85 485 l 1
 85 442 l 1
 115 412 l 1
 158 412 l 1
 189 442 l 1
 189 485 l 1xfd10
 158 517 l 1
339 83 m 1xfe50
 339 126 l 1
 307 156 l 1
 264 156 l 1
 234 126 l 1
 234 83 l 1
 264 51 l 1
 307 51 l 1
 339 83 l 1xfe50
EndSplineSet
Validated: 1
EndChar

StartChar: uni0E07
Encoding: 3591 3591 218
Width: 531
VWidth: 1661
Flags: W
HStem: 0 21G<372.136 447> 449 53<321 364> 606 52<321 364>
VStem: 238 53<532 575> 387 60<100 450> 395 52<532 575>
LayerCount: 2
Fore
SplineSet
385 658 m 1xf8
 447 596 l 1
 447 0 l 1xf4
 387 0 l 1
 60 440 l 1
 106 475 l 1
 387 100 l 1
 387 450 l 1
 385 449 l 1
 299 449 l 1
 238 510 l 1
 238 596 l 1
 299 658 l 1
 385 658 l 1xf8
364 502 m 1
 395 532 l 1
 395 575 l 1
 364 606 l 1
 321 606 l 1
 291 575 l 1
 291 532 l 1
 321 502 l 1
 364 502 l 1
EndSplineSet
Validated: 1
EndChar

StartChar: uni0E08
Encoding: 3592 3592 219
Width: 646
VWidth: 1661
Flags: W
HStem: 0 21G<502 561> 239 53<286 329> 397 52<286 329> 508 21G<53 113> 598 60<168 447>
VStem: 53 60<508 543> 203 53<322 365> 502 59<0 224 297 543>
LayerCount: 2
Fore
SplineSet
472 658 m 1
 561 568 l 1
 561 0 l 1
 502 0 l 1
 502 224 l 1
 412 314 l 1
 412 301 l 1
 351 239 l 1
 264 239 l 1
 203 301 l 1
 203 387 l 1
 264 449 l 1
 351 449 l 1
 502 297 l 1
 502 543 l 1
 447 598 l 1
 168 598 l 1
 113 543 l 1
 113 508 l 1
 53 508 l 1
 53 568 l 1
 143 658 l 1
 472 658 l 1
359 322 m 1
 359 365 l 1
 329 397 l 1
 286 397 l 1
 256 365 l 1
 256 322 l 1
 286 292 l 1
 329 292 l 1
 359 322 l 1
EndSplineSet
Validated: 1
EndChar

StartChar: uni0E09
Encoding: 3593 3593 220
Width: 712
VWidth: 1661
Flags: W
HStem: 0 51<527 570> 239 52<168 211> 395 54<168 211> 508 21G<55 115> 598 60<169 449>
VStem: 55 60<508 543> 85 53<322 365> 234 60<63 241> 243 51<322 365> 444 53<83 103> 503 60<209 543> 601 52<83 126>
LayerCount: 2
Fore
SplineSet
591 209 m 1xfd70
 653 148 l 1
 653 61 l 1
 591 0 l 1
 505 0 l 1
 444 61 l 1
 444 103 l 1
 294 0 l 1xfcf0
 234 0 l 1
 234 241 l 1xf970
 233 239 l 1
 146 239 l 1
 85 301 l 1
 85 387 l 1
 146 449 l 1
 233 449 l 1
 294 387 l 1xfaf0
 294 63 l 1
 503 208 l 1
 503 543 l 1
 449 598 l 1
 169 598 l 1
 115 543 l 1
 115 508 l 1
 55 508 l 1
 55 568 l 1
 145 658 l 1
 473 658 l 1
 563 568 l 1
 563 209 l 1
 591 209 l 1xfd70
211 291 m 1
 243 322 l 1
 243 365 l 1
 211 395 l 1
 168 395 l 1
 138 365 l 1
 138 322 l 1xfaf0
 168 291 l 1
 211 291 l 1
601 83 m 1
 601 126 l 1
 570 156 l 1
 527 156 l 1
 497 126 l 1
 497 83 l 1
 527 51 l 1
 570 51 l 1
 601 83 l 1
EndSplineSet
Validated: 1
EndChar

StartChar: uni0E0A
Encoding: 3594 3594 221
Width: 624
VWidth: 1661
Flags: W
HStem: 0 21G<369.773 470> 357 53<115 158> 515 51<116 158> 596 60<146 248>
VStem: 32 53<440 483> 189 52<440 483> 301 59<113 543> 480 60<115 507>
LayerCount: 2
Fore
SplineSet
505 566 m 1
 540 530 l 1
 540 90 l 1
 450 0 l 1
 390 0 l 1
 301 88 l 1
 301 543 l 1
 248 596 l 1
 146 596 l 1
 116 566 l 1
 181 566 l 1
 241 505 l 1
 241 419 l 1
 181 357 l 1
 93 357 l 1
 32 419 l 1
 32 566 l 1
 121 656 l 1
 271 656 l 1
 360 566 l 1
 360 113 l 1
 415 60 l 1
 425 60 l 1
 480 115 l 1
 482 507 l 1
 420 566 l 1
 601 746 l 1
 643 704 l 1
 505 566 l 1
189 483 m 1
 158 515 l 1
 115 515 l 1
 85 483 l 1
 85 440 l 1
 115 410 l 1
 158 410 l 1
 189 440 l 1
 189 483 l 1
EndSplineSet
Validated: 1
EndChar

StartChar: uni0E0B
Encoding: 3595 3595 222
Width: 622
VWidth: 1661
Flags: W
HStem: 0 21G<368.545 468.778> 357 53<115 158> 515 51<116 158> 596 60<145 218 337 362>
VStem: 32 51<440 483> 188 51<440 483> 299 60<113 463> 478 60<115 507>
LayerCount: 2
Fore
SplineSet
641 704 m 1
 503 566 l 1
 540 530 l 1
 538 90 l 1
 449 0 l 1
 389 0 l 1
 299 88 l 1
 299 477 l 1
 374 552 l 1
 374 585 l 1
 362 596 l 1
 337 596 l 1
 277 537 l 1
 218 596 l 1
 145 596 l 1
 116 566 l 1
 179 566 l 1
 239 505 l 1
 239 419 l 1
 179 357 l 1
 91 357 l 1
 32 419 l 1
 32 566 l 1
 121 656 l 1
 233 656 l 1
 277 611 l 1
 324 656 l 1
 374 656 l 1
 434 598 l 1
 434 581 l 1
 600 746 l 1
 641 704 l 1
158 515 m 1
 113 515 l 1
 83 483 l 1
 83 440 l 1
 115 410 l 1
 158 410 l 1
 188 440 l 1
 188 483 l 1
 158 515 l 1
478 115 m 1
 480 507 l 1
 434 552 l 1
 434 538 l 1
 359 463 l 1
 359 113 l 1
 414 60 l 1
 424 60 l 1
 478 115 l 1
EndSplineSet
Validated: 1
EndChar

StartChar: uni0E0C
Encoding: 3596 3596 223
Width: 943
VWidth: 1661
Flags: W
HStem: 0 51<166 209 463 507> 156 52<166 209 463 500> 596 60<168 447>
VStem: 83 60<208 382> 83 52<81 126> 239 53<81 126> 380 54<81 126> 500 60<208 543> 538 52<81 115> 799 60<60 656>
LayerCount: 2
Fore
SplineSet
799 656 m 1xf740
 859 656 l 1
 859 0 l 1
 799 0 l 1
 590 115 l 1
 590 60 l 1xe6c0
 530 0 l 1
 442 0 l 1
 380 60 l 1
 380 148 l 1
 442 208 l 1
 500 208 l 1
 500 543 l 1
 447 596 l 1
 168 596 l 1
 136 566 l 1
 233 472 l 1
 143 382 l 1
 143 208 l 1
 231 208 l 1
 292 148 l 1
 292 60 l 1
 231 0 l 1
 143 0 l 1xf740
 83 60 l 1
 83 407 l 1xee40
 148 472 l 1
 53 566 l 1
 143 656 l 1
 472 656 l 1
 560 566 l 1
 560 191 l 1
 799 60 l 1
 799 656 l 1xf740
166 156 m 1
 135 126 l 1
 135 81 l 1xee40
 166 51 l 1
 209 51 l 1
 239 81 l 1
 239 126 l 1
 209 156 l 1
 166 156 l 1
538 81 m 1xe6c0
 538 126 l 1
 507 156 l 1
 463 156 l 1
 434 126 l 1
 434 81 l 1
 463 51 l 1
 507 51 l 1
 538 81 l 1xe6c0
EndSplineSet
Validated: 1
EndChar

StartChar: uni0E0D
Encoding: 3597 3597 224
Width: 945
VWidth: 1661
Flags: W
HStem: -267 59<681 728> -267 51<576 606> -141 53<575 606> 0 60<561 746> 0 51<166 209> 156 53<166 209> 598 60<168 447>
VStem: 83 60<208 382> 83 53<83 126> 241 51<83 126> 502 59<60 543> 502 51<-193 -163> 628 53<-194 -163> 801 60<115 658>
LayerCount: 2
Fore
SplineSet
728 -208 m 1xa65c
 817 -118 l 1
 861 -161 l 1
 753 -267 l 1
 553 -267 l 1x665c
 502 -214 l 1
 502 -141 l 1
 555 -88 l 1
 628 -88 l 1
 681 -141 l 1
 681 -208 l 1
 728 -208 l 1xa65c
606 -216 m 1
 628 -194 l 1
 628 -163 l 1
 606 -141 l 1
 575 -141 l 1
 553 -163 l 1
 553 -193 l 1
 576 -216 l 1
 606 -216 l 1
801 658 m 1
 861 658 l 1
 861 90 l 1
 771 0 l 1
 502 0 l 1x2e5c
 502 543 l 1
 447 598 l 1
 168 598 l 1
 138 568 l 1
 233 472 l 1
 143 382 l 1
 143 208 l 1x2f6c
 145 209 l 1
 231 209 l 1
 292 148 l 1
 292 61 l 1
 231 0 l 1
 145 0 l 1
 83 61 l 1
 83 407 l 1x2ecc
 148 472 l 1
 53 566 l 1
 53 568 l 1
 143 658 l 1
 472 658 l 1
 561 568 l 1
 561 60 l 1
 746 60 l 1x376c
 801 115 l 1
 801 658 l 1
166 156 m 1
 136 126 l 1
 136 83 l 1x2ecc
 166 51 l 1
 209 51 l 1
 241 83 l 1
 241 126 l 1
 209 156 l 1
 166 156 l 1
EndSplineSet
Validated: 1
Substitution2: "Single Substitution lookup 22 subtable" uni0E0D.alt1
Substitution2: "Single Substitution lookup 22 subtable" uni0E0D.alt1
EndChar

StartChar: uni0E0E
Encoding: 3598 3598 225
Width: 742
VWidth: 1661
Flags: W
HStem: -299 60<266 450> -150 60<266 450> 0 51<115 158> 156 53<115 158> 598 60<266 545>
VStem: 32 53<83 126> 181 60<-214 -174 208 384> 189 52<83 126> 600 59<-214 543>
LayerCount: 2
Fore
SplineSet
570 658 m 1xfd80
 659 568 l 1
 659 -299 l 1
 600 -299 l 1
 538 -236 l 1
 475 -299 l 1
 241 -299 l 1xfd80
 181 -239 l 1
 181 -150 l 1xfe80
 241 -90 l 1xfd80
 475 -90 l 1
 600 -214 l 1
 600 543 l 1
 545 598 l 1
 266 598 l 1
 236 568 l 1
 331 473 l 1
 241 384 l 1xfe80
 241 61 l 1xfd80
 179 0 l 1
 93 0 l 1
 32 61 l 1
 32 148 l 1
 93 209 l 1
 179 209 l 1
 181 208 l 1
 181 407 l 1xfe80
 246 473 l 1
 151 568 l 1
 241 658 l 1
 570 658 l 1xfd80
189 83 m 1
 189 126 l 1
 158 156 l 1
 115 156 l 1
 85 126 l 1
 85 83 l 1
 115 51 l 1
 158 51 l 1
 189 83 l 1
450 -239 m 1
 495 -194 l 1
 450 -150 l 1
 266 -150 l 1
 241 -174 l 1
 241 -214 l 1xfe80
 266 -239 l 1
 450 -239 l 1
EndSplineSet
Validated: 1
Substitution2: "Single Substitution lookup 22 subtable" uni0E0E.alt1
Substitution2: "Single Substitution lookup 22 subtable" uni0E0E.alt1
EndChar

StartChar: uni0E0F
Encoding: 3599 3599 226
Width: 744
VWidth: 1661
Flags: W
HStem: -297 59<266 324> -148 58<266 324> 0 53<115 158> 158 51<115 158> 598 60<266 545>
VStem: 32 51<83 126> 181 60<-213 -173 208 384> 188 53<83 126> 600 59<-214 543>
LayerCount: 2
Fore
SplineSet
570 658 m 1xfd80
 659 568 l 1
 659 -297 l 1
 598 -297 l 1
 537 -236 l 1
 473 -299 l 1
 412 -236 l 1
 349 -297 l 1
 241 -297 l 1xfd80
 181 -238 l 1
 181 -148 l 1xfe80
 241 -90 l 1xfd80
 349 -90 l 1
 473 -214 l 1
 537 -151 l 1
 600 -214 l 1
 600 543 l 1
 545 598 l 1
 266 598 l 1
 236 568 l 1
 331 473 l 1
 241 384 l 1xfe80
 241 61 l 1xfd80
 179 0 l 1
 93 0 l 1
 32 61 l 1
 32 148 l 1
 93 209 l 1
 179 209 l 1
 181 208 l 1
 181 409 l 1xfe80
 246 473 l 1
 151 568 l 1
 241 658 l 1
 570 658 l 1xfd80
188 83 m 1
 188 126 l 1
 158 158 l 1
 115 158 l 1
 83 126 l 1
 83 83 l 1
 115 53 l 1
 158 53 l 1
 188 83 l 1
324 -238 m 1
 369 -193 l 1
 324 -148 l 1
 266 -148 l 1
 241 -173 l 1
 241 -213 l 1xfe80
 266 -238 l 1
 324 -238 l 1
EndSplineSet
Validated: 1
Substitution2: "Single Substitution lookup 22 subtable" uni0E0F.alt1
Substitution2: "Single Substitution lookup 22 subtable" uni0E0F.alt1
EndChar

StartChar: uni0E10
Encoding: 3600 3600 227
Width: 616
VWidth: 1661
Flags: W
HStem: -269 53<427 457> -141 53<427 457> 0 21G<472 532> 178 53<256 299> 336 51<256 299> 596 60<168 532>
VStem: 173 51<261 304> 472 60<-194 -164 0 163 236 409>
LayerCount: 2
Fore
SplineSet
532 596 m 1
 168 596 l 1
 116 547 l 1
 532 449 l 1
 532 0 l 1
 472 0 l 1
 472 163 l 1
 382 253 l 1
 382 239 l 1
 321 178 l 1
 234 178 l 1
 173 239 l 1
 173 326 l 1
 234 387 l 1
 321 387 l 1
 472 236 l 1
 472 409 l 1
 53 507 l 1
 53 566 l 1
 143 656 l 1
 532 656 l 1
 532 596 l 1
329 261 m 1
 329 304 l 1
 299 336 l 1
 256 336 l 1
 224 304 l 1
 224 261 l 1
 256 231 l 1
 299 231 l 1
 329 261 l 1
478 -88 m 1
 532 -141 l 1
 532 -216 l 1
 478 -267 l 1
 405 -269 l 1
 302 -168 l 1
 203 -267 l 1
 65 -130 l 1
 101 -93 l 1
 203 -194 l 1
 302 -93 l 1
 352 -143 l 1
 405 -88 l 1
 478 -88 l 1
478 -194 m 1
 478 -164 l 1
 457 -141 l 1
 427 -141 l 1
 405 -164 l 1
 405 -194 l 1
 427 -216 l 1
 457 -216 l 1
 478 -194 l 1
EndSplineSet
Validated: 1
Substitution2: "Single Substitution lookup 22 subtable" uni0E10.alt1
Substitution2: "Single Substitution lookup 22 subtable" uni0E10.alt1
EndChar

StartChar: uni0E11
Encoding: 3601 3601 228
Width: 802
VWidth: 1661
Flags: W
HStem: 0 21G<301 367.124 658 718> 359 51<115 158> 515 53<116 158> 598 60<146 219 337 362 573 605>
VStem: 32 51<442 485> 188 53<442 485> 301 59<154 463> 375 60<552 585> 658 60<0 543>
LayerCount: 2
Fore
SplineSet
630 658 m 1
 718 568 l 1
 718 0 l 1
 658 0 l 1
 658 543 l 1
 605 598 l 1
 573 598 l 1
 360 0 l 1
 301 0 l 1
 301 477 l 1
 375 552 l 1
 375 585 l 1
 362 598 l 1
 337 598 l 1
 277 538 l 1
 219 598 l 1
 146 598 l 1
 116 568 l 1
 179 568 l 1
 241 507 l 1
 241 420 l 1
 179 359 l 1
 93 359 l 1
 32 420 l 1
 32 568 l 1
 121 658 l 1
 233 658 l 1
 277 611 l 1
 324 658 l 1
 375 658 l 1
 435 598 l 1
 435 538 l 1
 360 463 l 1
 360 154 l 1
 538 656 l 1
 538 658 l 1
 630 658 l 1
158 515 m 1
 115 515 l 1
 83 485 l 1
 83 442 l 1
 115 410 l 1
 158 410 l 1
 188 442 l 1
 188 485 l 1
 158 515 l 1
EndSplineSet
Validated: 1
EndChar

StartChar: uni0E12
Encoding: 3602 3602 229
Width: 961
VWidth: 1661
Flags: W
HStem: 0 51<482 525> 156 53<482 518> 395 54<302 346> 507 21G<303.775 344.225> 596 60<184 234 414 463>
VStem: 70 60<75 543> 219 53<322 365> 375 54<322 365> 399 51<83 126> 518 60<209 543> 555 53<83 116> 817 60<60 656>
LayerCount: 2
Fore
SplineSet
817 656 m 1xff50
 877 656 l 1
 877 0 l 1
 817 0 l 1
 608 116 l 1
 608 61 l 1
 547 0 l 1
 460 0 l 1
 399 61 l 1
 399 148 l 1xfeb0
 460 209 l 1
 518 209 l 1
 518 543 l 1
 463 596 l 1
 414 596 l 1
 324 507 l 1
 234 596 l 1
 184 596 l 1
 130 543 l 1
 130 75 l 1
 294 239 l 1
 281 239 l 1
 219 301 l 1
 219 387 l 1
 281 449 l 1
 367 449 l 1
 429 387 l 1
 429 301 l 1
 130 0 l 1
 70 0 l 1
 70 566 l 1
 159 656 l 1
 259 656 l 1
 324 591 l 1
 389 656 l 1
 488 656 l 1
 578 568 l 1
 578 193 l 1
 817 60 l 1
 817 656 l 1xff50
272 322 m 1
 302 291 l 1
 346 291 l 1
 375 322 l 1
 375 365 l 1xff10
 346 395 l 1
 302 395 l 1
 272 365 l 1
 272 322 l 1
555 83 m 1xfeb0
 555 126 l 1
 525 156 l 1
 482 156 l 1
 450 126 l 1
 450 83 l 1
 482 51 l 1
 525 51 l 1
 555 83 l 1xfeb0
EndSplineSet
Validated: 1
EndChar

StartChar: uni0E13
Encoding: 3603 3603 230
Width: 1010
VWidth: 1661
Flags: W
HStem: 0 51<168 211 826 869> 156 52<168 211 862 869> 596 60<169 449>
VStem: 85 60<208 382> 85 51<81 126> 241 53<81 126> 503 60<61 543> 743 51<81 110> 802 60<208 656> 899 53<81 126>
LayerCount: 2
Fore
SplineSet
890 208 m 1xf7c0
 952 148 l 1
 952 60 l 1
 890 0 l 1
 804 0 l 1
 743 60 l 1
 743 110 l 1
 561 0 l 1
 503 0 l 1
 503 543 l 1
 449 596 l 1
 169 596 l 1
 140 566 l 1
 234 472 l 1
 145 382 l 1
 145 208 l 1xf7c0
 233 208 l 1
 294 148 l 1
 294 60 l 1
 233 0 l 1
 146 0 l 1
 85 60 l 1
 85 407 l 1xefc0
 150 472 l 1
 55 566 l 1
 145 656 l 1
 473 656 l 1
 563 566 l 1
 563 61 l 1
 801 206 l 1
 802 208 l 1
 802 656 l 1
 862 656 l 1
 862 208 l 1
 890 208 l 1xf7c0
168 156 m 1
 136 126 l 1
 136 81 l 1xefc0
 168 51 l 1
 211 51 l 1
 241 81 l 1
 241 126 l 1
 211 156 l 1
 168 156 l 1
899 81 m 1
 899 126 l 1
 869 156 l 1
 827 156 l 1
 794 126 l 1
 794 81 l 1
 826 51 l 1
 869 51 l 1
 899 81 l 1
EndSplineSet
Validated: 1
EndChar

StartChar: uni0E14
Encoding: 3604 3604 231
Width: 666
VWidth: 1661
Flags: W
HStem: 0 21G<73 153 522 581> 395 52<306 349> 596 60<188 467>
VStem: 73 60<73 542> 223 51<321 365> 379 53<321 365> 522 59<0 543>
LayerCount: 2
Fore
SplineSet
492 656 m 1
 581 566 l 1
 581 0 l 1
 522 0 l 1
 522 543 l 1
 467 596 l 1
 188 596 l 1
 133 542 l 1
 133 73 l 1
 296 239 l 1
 284 239 l 1
 223 299 l 1
 223 387 l 1
 284 447 l 1
 370 447 l 1
 432 387 l 1
 432 299 l 1
 133 0 l 1
 73 0 l 1
 73 566 l 1
 163 656 l 1
 492 656 l 1
274 321 m 1
 306 291 l 1
 349 291 l 1
 379 321 l 1
 379 365 l 1
 349 395 l 1
 306 395 l 1
 274 365 l 1
 274 321 l 1
EndSplineSet
Validated: 1
EndChar

StartChar: uni0E15
Encoding: 3605 3605 232
Width: 664
VWidth: 1661
Flags: W
HStem: 0 21G<71 150.933 518 578> 395 52<302 347> 507 21G<305.326 346> 596 60<186 234 415 465>
VStem: 71 60<73 542> 221 51<321 365> 377 52<321 365> 518 60<0 543>
LayerCount: 2
Fore
SplineSet
490 656 m 1
 578 566 l 1
 578 0 l 1
 518 0 l 1
 518 543 l 1
 465 596 l 1
 415 596 l 1
 326 507 l 1
 234 596 l 1
 186 596 l 1
 131 542 l 1
 131 73 l 1
 294 239 l 1
 281 239 l 1
 221 299 l 1
 221 387 l 1
 281 447 l 1
 369 447 l 1
 429 387 l 1
 429 299 l 1
 131 0 l 1
 71 0 l 1
 71 566 l 1
 161 656 l 1
 259 656 l 1
 326 591 l 1
 390 656 l 1
 490 656 l 1
272 321 m 1
 302 291 l 1
 347 291 l 1
 377 321 l 1
 377 365 l 1
 347 395 l 1
 302 395 l 1
 272 365 l 1
 272 321 l 1
EndSplineSet
Validated: 1
EndChar

StartChar: uni0E16
Encoding: 3606 3606 233
Width: 642
VWidth: 1661
Flags: W
HStem: 0 53<166 209> 158 51<166 209> 598 60<168 447>
VStem: 83 60<209 384> 83 52<83 126> 239 53<83 126> 502 58<0 543>
LayerCount: 2
Fore
SplineSet
472 658 m 1xf6
 560 568 l 1
 560 0 l 1
 502 0 l 1
 502 543 l 1
 447 598 l 1
 168 598 l 1
 138 568 l 1
 233 473 l 1
 143 384 l 1
 143 209 l 1xf6
 231 209 l 1
 292 148 l 1
 292 61 l 1
 231 0 l 1
 145 0 l 1
 83 61 l 1
 83 409 l 1xee
 148 473 l 1
 53 568 l 1
 143 658 l 1
 472 658 l 1xf6
166 158 m 1
 135 126 l 1
 135 83 l 1xee
 166 53 l 1
 209 53 l 1
 239 83 l 1
 239 126 l 1
 209 158 l 1
 166 158 l 1
EndSplineSet
Validated: 1
EndChar

StartChar: uni0E17
Encoding: 3607 3607 234
Width: 740
VWidth: 1661
Flags: W
HStem: 0 21G<179 249.93 598 658> 449 53<113 156> 598 60<508 543> 605 53<113 156>
VStem: 30 53<532 575> 179 60<126 450> 188 51<532 575> 598 60<0 543>
LayerCount: 2
Fore
SplineSet
568 658 m 1xdd
 658 568 l 1
 658 0 l 1
 598 0 l 1
 598 543 l 1
 543 598 l 1
 508 598 l 1
 241 0 l 1
 179 0 l 1
 179 450 l 1xed
 178 449 l 1
 91 449 l 1
 30 510 l 1
 30 596 l 1
 91 658 l 1
 178 658 l 1
 239 596 l 1xdb
 239 126 l 1
 478 658 l 1
 568 658 l 1xdd
156 502 m 1
 188 532 l 1
 188 575 l 1
 156 605 l 1
 113 605 l 1xdb
 83 575 l 1
 83 532 l 1
 113 502 l 1
 156 502 l 1
EndSplineSet
Validated: 1
EndChar

StartChar: uni0E18
Encoding: 3608 3608 235
Width: 616
VWidth: 1661
Flags: W
HStem: 0 60<198 417> 598 60<168 532>
VStem: 83 60<115 419> 472 60<115 410>
LayerCount: 2
Fore
SplineSet
532 598 m 1
 168 598 l 1
 116 547 l 1
 532 449 l 1
 532 90 l 1
 442 0 l 1
 173 0 l 1
 83 90 l 1
 83 419 l 1
 143 419 l 1
 143 115 l 1
 198 60 l 1
 417 60 l 1
 472 115 l 1
 472 410 l 1
 53 508 l 1
 53 568 l 1
 143 658 l 1
 532 658 l 1
 532 598 l 1
EndSplineSet
Validated: 1
EndChar

StartChar: uni0E19
Encoding: 3609 3609 236
Width: 747
VWidth: 1661
Flags: W
HStem: 0 53<561 605> 449 51<113 156> 605 53<113 156>
VStem: 30 53<532 575> 179 60<58 450> 188 51<532 575> 478 54<83 120> 538 60<209 658> 636 52<83 126>
LayerCount: 2
Fore
SplineSet
626 209 m 1xfb80
 688 148 l 1
 688 61 l 1
 626 0 l 1
 540 0 l 1
 478 61 l 1
 478 120 l 1
 239 0 l 1xf780
 179 0 l 1
 179 450 l 1xfb80
 178 449 l 1
 91 449 l 1
 30 510 l 1
 30 596 l 1
 91 658 l 1
 178 658 l 1
 239 596 l 1xf780
 239 58 l 1
 538 208 l 1
 538 658 l 1
 598 658 l 1
 598 209 l 1
 626 209 l 1xfb80
156 500 m 1
 188 532 l 1
 188 575 l 1
 156 605 l 1
 113 605 l 1
 83 575 l 1
 83 532 l 1
 113 500 l 1
 156 500 l 1
636 83 m 1
 636 126 l 1
 605 158 l 1
 561 158 l 1
 532 126 l 1
 532 83 l 1
 561 53 l 1
 605 53 l 1
 636 83 l 1
EndSplineSet
Validated: 1
EndChar

StartChar: uni0E1A
Encoding: 3610 3610 237
Width: 712
VWidth: 1661
Flags: W
HStem: 0 60<294 513> 449 51<113 156> 605 53<113 156>
VStem: 30 53<532 575> 179 60<115 450> 186 53<532 575> 568 60<115 658>
LayerCount: 2
Fore
SplineSet
568 658 m 1xfa
 628 658 l 1
 628 90 l 1
 538 0 l 1
 269 0 l 1
 179 90 l 1
 179 450 l 1xfa
 178 449 l 1
 91 449 l 1
 30 510 l 1
 30 596 l 1
 91 658 l 1
 178 658 l 1
 239 596 l 1xf6
 239 115 l 1
 294 60 l 1
 513 60 l 1
 568 115 l 1
 568 658 l 1xfa
156 500 m 1
 186 532 l 1
 186 575 l 1xf6
 156 605 l 1
 113 605 l 1
 83 575 l 1
 83 532 l 1
 113 500 l 1
 156 500 l 1
EndSplineSet
Validated: 1
EndChar

StartChar: uni0E1B
Encoding: 3611 3611 238
Width: 712
VWidth: 1661
Flags: W
HStem: 0 60<296 515> 447 53<115 158> 605 51<115 158>
VStem: 32 51<530 573> 181 60<113 449> 188 53<530 573> 570 60<113 955>
LayerCount: 2
Fore
SplineSet
570 955 m 1xfa
 630 955 l 1
 630 90 l 1
 540 0 l 1
 271 0 l 1
 181 88 l 1
 181 449 l 1xfa
 179 447 l 1
 93 447 l 1
 32 508 l 1
 32 595 l 1
 93 656 l 1
 179 656 l 1
 241 595 l 1xf6
 241 113 l 1
 296 60 l 1
 515 60 l 1
 570 113 l 1
 570 955 l 1xfa
158 500 m 1
 188 530 l 1
 188 573 l 1xf6
 158 605 l 1
 115 605 l 1
 83 573 l 1
 83 530 l 1
 115 500 l 1
 158 500 l 1
EndSplineSet
Validated: 1
EndChar

StartChar: uni0E1C
Encoding: 3612 3612 239
Width: 662
VWidth: 1661
Flags: W
HStem: 0 21G<70 147.557 500.443 578> 449 51<153 196> 605 53<153 196>
VStem: 70 60<80 450> 70 53<532 575> 228 51<532 575> 518 60<80 658>
LayerCount: 2
Fore
SplineSet
578 658 m 1xf6
 578 0 l 1
 518 0 l 1
 324 221 l 1
 130 0 l 1xf6
 70 0 l 1
 70 596 l 1xee
 131 658 l 1
 218 658 l 1
 279 596 l 1
 279 510 l 1
 218 449 l 1
 131 449 l 1
 130 450 l 1
 130 80 l 1
 324 299 l 1
 518 80 l 1
 518 658 l 1
 578 658 l 1xf6
123 575 m 1xee
 123 532 l 1
 153 500 l 1
 196 500 l 1
 228 532 l 1
 228 575 l 1
 196 605 l 1
 153 605 l 1
 123 575 l 1xee
EndSplineSet
Validated: 1
EndChar

StartChar: uni0E1D
Encoding: 3613 3613 240
Width: 661
VWidth: 1661
Flags: W
HStem: 0 21G<70 147.717 499.374 576> 447 53<153 196> 605 51<153 196>
VStem: 70 60<78 449> 70 51<530 573> 226 53<530 573> 517 59<78 955>
LayerCount: 2
Fore
SplineSet
576 955 m 1xf6
 576 0 l 1
 517 0 l 1
 324 219 l 1
 130 0 l 1xf6
 70 0 l 1
 70 595 l 1xee
 131 656 l 1
 218 656 l 1
 279 595 l 1
 279 508 l 1
 218 447 l 1
 131 447 l 1
 130 449 l 1
 130 78 l 1
 324 299 l 1
 517 78 l 1
 517 955 l 1
 576 955 l 1xf6
121 573 m 1xee
 121 530 l 1
 153 500 l 1
 196 500 l 1
 226 530 l 1
 226 573 l 1
 196 605 l 1
 153 605 l 1
 121 573 l 1xee
EndSplineSet
Validated: 1
EndChar

StartChar: uni0E1E
Encoding: 3614 3614 241
Width: 772
VWidth: 1661
Flags: W
HStem: 0 21G<181 248.608 622.353 689> 447 53<115 158> 605 51<115 158>
VStem: 32 51<530 573> 181 60<146 449> 188 53<530 573> 630 59<145 656>
LayerCount: 2
Fore
SplineSet
630 656 m 1xfa
 689 656 l 1
 689 0 l 1
 630 0 l 1
 435 510 l 1
 241 0 l 1xf6
 181 0 l 1
 181 449 l 1xfa
 179 447 l 1
 93 447 l 1
 32 508 l 1
 32 595 l 1
 93 656 l 1
 179 656 l 1
 241 595 l 1xf6
 241 146 l 1
 435 656 l 1
 630 145 l 1
 630 656 l 1xfa
158 500 m 1
 188 530 l 1
 188 573 l 1
 158 605 l 1
 115 605 l 1
 83 573 l 1
 83 530 l 1
 115 500 l 1
 158 500 l 1
EndSplineSet
Validated: 1
EndChar

StartChar: uni0E1F
Encoding: 3615 3615 242
Width: 772
VWidth: 1661
Flags: W
HStem: 0 21G<181 248.569 620.392 688> 447 53<115 158> 605 51<115 158>
VStem: 32 51<530 573> 181 60<146 449> 188 53<530 573> 628 60<146 955>
LayerCount: 2
Fore
SplineSet
628 955 m 1xfa
 688 955 l 1
 688 0 l 1
 628 0 l 1
 434 510 l 1
 241 0 l 1xf6
 181 0 l 1
 181 449 l 1xfa
 179 447 l 1
 93 447 l 1
 32 508 l 1
 32 595 l 1
 93 656 l 1
 179 656 l 1
 241 595 l 1xf6
 241 146 l 1
 434 656 l 1
 628 146 l 1
 628 955 l 1xfa
158 500 m 1
 188 530 l 1
 188 573 l 1
 158 605 l 1
 115 605 l 1
 83 573 l 1
 83 530 l 1
 115 500 l 1
 158 500 l 1
EndSplineSet
Validated: 1
EndChar

StartChar: uni0E20
Encoding: 3616 3616 243
Width: 740
VWidth: 1661
Flags: W
HStem: 0 51<113 156> 156 53<113 156> 598 60<264 543>
VStem: 30 53<83 126> 179 60<208 382> 188 51<83 126> 598 60<0 543>
LayerCount: 2
Fore
SplineSet
568 658 m 1xf6
 658 568 l 1
 658 0 l 1
 598 0 l 1
 598 543 l 1
 543 598 l 1
 264 598 l 1
 234 568 l 1
 329 472 l 1
 239 382 l 1xfa
 239 61 l 1xf6
 178 0 l 1
 91 0 l 1
 30 61 l 1
 30 148 l 1
 91 209 l 1
 178 209 l 1
 179 208 l 1
 179 407 l 1xfa
 244 472 l 1
 150 568 l 1
 239 658 l 1
 568 658 l 1xf6
188 83 m 1xf6
 188 126 l 1
 156 156 l 1
 113 156 l 1
 83 126 l 1
 83 83 l 1
 113 51 l 1
 156 51 l 1
 188 83 l 1xf6
EndSplineSet
Validated: 1
EndChar

StartChar: uni0E21
Encoding: 3617 3617 244
Width: 682
VWidth: 1661
Flags: W
HStem: 0 53<143 186> 158 51<143 179> 449 51<113 156> 605 53<113 156>
VStem: 30 53<532 575> 60 53<83 126> 179 60<209 450> 188 51<532 575> 218 51<83 125> 538 60<58 658>
LayerCount: 2
Fore
SplineSet
538 658 m 1xf940
 598 658 l 1
 598 0 l 1
 538 0 l 1
 269 125 l 1
 269 61 l 1xf0c0
 208 0 l 1
 121 0 l 1
 60 61 l 1
 60 148 l 1
 121 209 l 1
 179 209 l 1
 179 450 l 1xf640
 178 449 l 1
 91 449 l 1
 30 510 l 1
 30 596 l 1
 91 658 l 1
 178 658 l 1
 239 596 l 1
 239 196 l 1
 538 58 l 1
 538 658 l 1xf940
156 500 m 1
 188 532 l 1
 188 575 l 1
 156 605 l 1
 113 605 l 1xf540
 83 575 l 1
 83 532 l 1xf840
 113 500 l 1xf440
 156 500 l 1
218 83 m 1xf4c0
 218 126 l 1
 186 158 l 1
 143 158 l 1
 113 126 l 1
 113 83 l 1
 143 53 l 1
 186 53 l 1
 218 83 l 1xf4c0
EndSplineSet
Validated: 1
EndChar

StartChar: uni0E22
Encoding: 3618 3618 245
Width: 647
VWidth: 1661
Flags: W
HStem: 0 60<201 450> 449 53<140 183> 606 52<140 183>
VStem: 56 60<419 450> 56 52<532 575> 86 60<115 209> 213 53<532 575> 505 60<115 658>
LayerCount: 2
Fore
SplineSet
505 658 m 1xe7
 565 658 l 1
 565 90 l 1
 475 0 l 1
 176 0 l 1
 86 90 l 1
 86 234 l 1xe7
 151 299 l 1
 56 394 l 1
 56 596 l 1xeb
 118 658 l 1
 204 658 l 1
 266 596 l 1
 266 510 l 1
 204 449 l 1
 118 449 l 1
 116 450 l 1
 116 419 l 1xf3
 236 299 l 1
 146 209 l 1
 146 115 l 1
 201 60 l 1
 450 60 l 1
 505 115 l 1
 505 658 l 1xe7
108 575 m 1xeb
 108 532 l 1
 140 502 l 1
 183 502 l 1
 213 532 l 1
 213 575 l 1
 183 606 l 1
 140 606 l 1
 108 575 l 1xeb
EndSplineSet
Validated: 1
EndChar

StartChar: uni0E23
Encoding: 3619 3619 246
Width: 528
VWidth: 1661
Flags: W
HStem: 0 51<316 359> 156 52<316 359> 596 60<168 472>
VStem: 53 60<518 542> 233 53<81 126> 382 60<208 407> 390 52<81 126>
LayerCount: 2
Fore
SplineSet
168 596 m 1xfc
 113 542 l 1
 113 518 l 1
 442 447 l 1
 442 60 l 1xfa
 380 0 l 1
 294 0 l 1
 233 60 l 1
 233 148 l 1
 294 208 l 1
 382 208 l 1
 382 407 l 1
 53 477 l 1
 53 566 l 1
 143 656 l 1
 472 656 l 1
 472 596 l 1
 168 596 l 1xfc
390 81 m 1
 390 126 l 1
 359 156 l 1
 316 156 l 1
 286 126 l 1
 286 81 l 1
 316 51 l 1
 359 51 l 1
 390 81 l 1
EndSplineSet
Validated: 1
EndChar

StartChar: uni0E24
Encoding: 3620 3620 247
Width: 646
VWidth: 1661
Flags: W
HStem: 0 51<166 209> 156 53<166 209> 598 60<168 447>
VStem: 83 60<208 382> 83 53<83 126> 239 53<83 126> 502 59<-299 543>
LayerCount: 2
Fore
SplineSet
472 658 m 1xf6
 561 568 l 1
 561 -299 l 1
 502 -299 l 1
 502 543 l 1
 447 598 l 1
 168 598 l 1
 138 568 l 1
 233 472 l 1
 143 382 l 1
 143 208 l 1xf6
 145 209 l 1
 231 209 l 1
 292 148 l 1
 292 61 l 1
 231 0 l 1
 145 0 l 1
 83 61 l 1
 83 407 l 1xee
 148 472 l 1
 53 568 l 1
 143 658 l 1
 472 658 l 1xf6
166 156 m 1
 136 126 l 1
 136 83 l 1xee
 166 51 l 1
 209 51 l 1
 239 83 l 1
 239 126 l 1
 209 156 l 1
 166 156 l 1
EndSplineSet
Validated: 1
EndChar

StartChar: uni0E25
Encoding: 3621 3621 248
Width: 646
VWidth: 1661
Flags: W
HStem: 0 53<168 211> 158 51<168 211> 389 60<199 359> 508 21G<55 115> 598 60<169 449>
VStem: 55 60<508 543> 85 60<208 334> 85 53<83 126> 241 53<83 126> 503 60<0 244 329 543>
LayerCount: 2
Fore
SplineSet
473 658 m 1xfac0
 563 568 l 1
 563 0 l 1
 503 0 l 1
 503 244 l 1
 359 389 l 1
 199 389 l 1
 145 334 l 1
 145 208 l 1xfac0
 146 209 l 1
 233 209 l 1
 294 148 l 1
 294 61 l 1
 233 0 l 1
 146 0 l 1
 85 61 l 1
 85 359 l 1xf9c0
 174 449 l 1
 384 449 l 1
 503 329 l 1
 503 543 l 1
 449 598 l 1
 169 598 l 1
 115 543 l 1
 115 508 l 1
 55 508 l 1
 55 568 l 1xfcc0
 145 658 l 1
 473 658 l 1xfac0
168 158 m 1
 138 126 l 1
 138 83 l 1xf9c0
 168 53 l 1
 211 53 l 1
 241 83 l 1
 241 126 l 1
 211 158 l 1
 168 158 l 1
EndSplineSet
Validated: 1
EndChar

StartChar: uni0E26
Encoding: 3622 3622 249
Width: 742
VWidth: 1661
Flags: W
HStem: 0 51<115 158> 156 52<115 158> 596 60<266 545>
VStem: 32 53<83 126> 181 60<208 382> 189 52<81 126> 600 59<-299 543>
LayerCount: 2
Fore
SplineSet
570 656 m 1xf6
 659 566 l 1
 659 -299 l 1
 600 -299 l 1
 600 543 l 1
 545 596 l 1
 266 596 l 1
 236 566 l 1
 331 472 l 1
 241 382 l 1xfa
 241 60 l 1xf6
 179 0 l 1
 93 0 l 1
 32 60 l 1
 32 148 l 1
 93 208 l 1
 181 208 l 1
 181 407 l 1xfa
 246 472 l 1
 151 566 l 1
 241 656 l 1
 570 656 l 1xf6
189 81 m 1xf6
 189 126 l 1
 158 156 l 1
 115 156 l 1
 85 126 l 1
 85 83 l 1
 115 51 l 1
 158 51 l 1
 189 81 l 1xf6
EndSplineSet
Validated: 1
EndChar

StartChar: uni0E27
Encoding: 3623 3623 250
Width: 586
VWidth: 1661
Flags: W
HStem: 0 53<375 419> 158 51<375 419> 508 21G<53 113> 598 60<168 387>
VStem: 53 60<508 543> 292 54<83 126> 442 60<208 543> 450 52<83 126>
LayerCount: 2
Fore
SplineSet
412 658 m 1xfe
 502 568 l 1
 502 61 l 1xfd
 440 0 l 1
 354 0 l 1
 292 61 l 1
 292 148 l 1
 354 209 l 1
 440 209 l 1
 442 208 l 1
 442 543 l 1
 387 598 l 1
 168 598 l 1
 113 543 l 1
 113 508 l 1
 53 508 l 1
 53 568 l 1
 143 658 l 1
 412 658 l 1xfe
450 83 m 1
 450 126 l 1
 419 158 l 1
 375 158 l 1
 346 126 l 1
 346 83 l 1
 375 53 l 1
 419 53 l 1
 450 83 l 1
EndSplineSet
Validated: 1
EndChar

StartChar: uni0E28
Encoding: 3624 3624 251
Width: 664
VWidth: 1661
Flags: W
HStem: 0 21G<73 133 520 580> 239 53<304 349> 397 52<304 349> 598 60<186 467>
VStem: 73 60<0 224 297 543> 379 51<322 365> 520 60<0 543>
LayerCount: 2
Fore
SplineSet
528 621 m 1
 580 568 l 1
 580 0 l 1
 520 0 l 1
 520 543 l 1
 467 598 l 1
 186 598 l 1
 133 543 l 1
 133 297 l 1
 282 449 l 1
 370 449 l 1
 430 387 l 1
 430 301 l 1
 370 239 l 1
 282 239 l 1
 223 301 l 1
 223 314 l 1
 133 224 l 1
 133 0 l 1
 73 0 l 1
 73 568 l 1
 163 658 l 1
 490 658 l 1
 580 748 l 1
 618 711 l 1
 528 621 l 1
379 365 m 1
 349 397 l 1
 304 397 l 1
 274 365 l 1
 274 322 l 1
 304 292 l 1
 349 292 l 1
 379 322 l 1
 379 365 l 1
EndSplineSet
Validated: 1
EndChar

StartChar: uni0E29
Encoding: 3625 3625 252
Width: 712
VWidth: 1661
Flags: W
HStem: 0 60<294 513> 238 53<382 427 500 568> 395 52<382 427> 447 53<115 158> 605 51<115 158>
VStem: 32 51<530 573> 181 60<113 449> 188 53<530 573> 301 51<321 364> 457 51<321 364> 568 60<113 238 291 656>
LayerCount: 2
Fore
SplineSet
568 656 m 1xfee0
 628 656 l 1
 628 90 l 1
 538 0 l 1
 269 0 l 1
 181 88 l 1
 181 449 l 1xfee0
 179 447 l 1
 93 447 l 1
 32 508 l 1
 32 595 l 1
 93 656 l 1
 179 656 l 1
 241 595 l 1xfde0
 241 113 l 1
 294 60 l 1
 513 60 l 1
 568 113 l 1
 568 238 l 1
 360 238 l 1
 301 299 l 1
 301 387 l 1
 360 447 l 1
 449 447 l 1
 508 387 l 1
 508 299 l 1
 500 291 l 1
 568 291 l 1
 568 656 l 1xfee0
427 291 m 1
 457 321 l 1
 457 364 l 1
 427 395 l 1
 382 395 l 1
 352 364 l 1
 352 321 l 1
 382 291 l 1
 427 291 l 1
158 500 m 1
 188 530 l 1
 188 573 l 1xfde0
 158 605 l 1
 115 605 l 1
 83 573 l 1
 83 530 l 1
 115 500 l 1
 158 500 l 1
EndSplineSet
Validated: 1
EndChar

StartChar: uni0E2A
Encoding: 3626 3626 253
Width: 646
VWidth: 1661
Flags: W
HStem: 0 51<168 211> 156 53<168 211> 387 60<199 359> 507 21G<55 115> 596 60<169 449>
VStem: 55 60<507 542> 85 60<208 334> 85 51<83 126> 241 53<83 126> 502 59<0 244 327 543>
LayerCount: 2
Fore
SplineSet
510 620 m 1xfac0
 561 566 l 1
 561 0 l 1
 502 0 l 1
 502 244 l 1
 359 387 l 1
 199 387 l 1
 145 334 l 1
 145 208 l 1xfac0
 146 209 l 1
 233 209 l 1
 294 148 l 1
 294 61 l 1
 233 0 l 1
 146 0 l 1
 85 61 l 1
 85 357 l 1xf9c0
 174 447 l 1
 384 447 l 1
 502 327 l 1
 502 543 l 1
 449 596 l 1
 169 596 l 1
 115 542 l 1
 115 507 l 1
 55 507 l 1
 55 566 l 1xfcc0
 145 656 l 1
 473 656 l 1
 563 746 l 1
 600 709 l 1
 510 620 l 1xfac0
168 156 m 1
 136 126 l 1
 136 83 l 1xf9c0
 168 51 l 1
 211 51 l 1
 241 83 l 1
 241 126 l 1
 211 156 l 1
 168 156 l 1
EndSplineSet
Validated: 1
EndChar

StartChar: uni0E2B
Encoding: 3627 3627 254
Width: 742
VWidth: 1661
Flags: W
HStem: 0 21G<179 254 598 658> 449 51<113 156> 605 53<113 156 532 575>
VStem: 30 53<532 575> 179 60<88 449> 188 51<532 575> 449 53<532 575> 598 60<0 362> 606 52<532 575>
LayerCount: 2
Fore
SplineSet
658 510 m 1xfa80
 596 449 l 1
 658 387 l 1xfa80
 658 0 l 1
 598 0 l 1
 598 362 l 1
 548 412 l 1
 239 0 l 1xf7
 179 0 l 1
 179 449 l 1
 91 449 l 1
 30 510 l 1
 30 596 l 1
 91 658 l 1
 179 658 l 1xfa
 239 596 l 1xf6
 239 88 l 1
 510 449 l 1
 449 510 l 1
 449 596 l 1
 510 658 l 1
 596 658 l 1
 658 596 l 1
 658 510 l 1xfa80
156 500 m 1
 188 532 l 1
 188 575 l 1xf6
 156 605 l 1
 113 605 l 1
 83 575 l 1
 83 532 l 1
 113 500 l 1
 156 500 l 1
502 532 m 1
 532 500 l 1
 575 500 l 1
 606 532 l 1
 606 575 l 1xf280
 575 605 l 1
 532 605 l 1
 502 575 l 1
 502 532 l 1
EndSplineSet
Validated: 1
EndChar

StartChar: uni0E2C
Encoding: 3628 3628 255
Width: 742
VWidth: 1661
Flags: W
HStem: 0 21G<181 252.401 588.535 659> 449 53<115 158> 478 54<533 576> 606 52<115 158> 636 52<533 576>
VStem: 32 53<532 575> 181 60<106 450> 189 52<532 575> 450 52<561 605> 600 59<106 480>
LayerCount: 2
Fore
SplineSet
734 689 m 1xaec0
 772 653 l 1
 659 540 l 1
 659 0 l 1
 600 0 l 1
 420 314 l 1
 241 0 l 1xadc0
 181 0 l 1
 181 450 l 1xaec0
 179 449 l 1
 93 449 l 1
 32 510 l 1
 32 596 l 1
 93 658 l 1
 179 658 l 1
 241 596 l 1xd5c0
 241 106 l 1
 420 419 l 1
 600 106 l 1
 600 480 l 1
 598 478 l 1
 512 478 l 1
 450 540 l 1
 450 626 l 1
 512 688 l 1
 598 688 l 1
 659 626 l 1
 659 613 l 1
 734 689 l 1xaec0
158 502 m 1xc5c0
 189 532 l 1
 189 575 l 1
 158 606 l 1
 115 606 l 1
 85 575 l 1
 85 532 l 1xb5c0
 115 502 l 1
 158 502 l 1xc5c0
576 532 m 1
 606 561 l 1
 606 605 l 1
 576 636 l 1
 533 636 l 1xacc0
 502 605 l 1
 502 561 l 1
 533 532 l 1
 576 532 l 1
EndSplineSet
Validated: 1
Substitution2: "Single Substitution lookup 22 subtable" uni0E2C.alt1
Substitution2: "Single Substitution lookup 22 subtable" uni0E2C.alt1
EndChar

StartChar: uni0E2D
Encoding: 3629 3629 256
Width: 647
VWidth: 1661
Flags: W
HStem: 0 60<199 449> 239 52<168 211> 395 52<168 211> 507 21G<55 115> 596 60<169 449>
VStem: 55 60<507 542> 85 60<113 239> 85 51<321 365> 241 53<321 365> 503 60<115 543>
LayerCount: 2
Fore
SplineSet
473 656 m 1xfac0
 563 566 l 1
 563 90 l 1
 473 0 l 1
 174 0 l 1
 85 90 l 1
 85 387 l 1xf9c0
 146 447 l 1
 233 447 l 1
 294 387 l 1
 294 299 l 1
 233 239 l 1
 145 239 l 1
 145 113 l 1xfac0
 199 60 l 1
 449 60 l 1
 503 115 l 1
 503 543 l 1
 449 596 l 1
 169 596 l 1
 115 542 l 1
 115 507 l 1
 55 507 l 1
 55 566 l 1xfcc0
 145 656 l 1
 473 656 l 1xfac0
136 365 m 1
 136 321 l 1
 168 291 l 1
 211 291 l 1
 241 321 l 1
 241 365 l 1
 211 395 l 1
 168 395 l 1
 136 365 l 1
EndSplineSet
Validated: 1
EndChar

StartChar: uni0E2E
Encoding: 3630 3630 257
Width: 647
VWidth: 1661
Flags: W
HStem: 0 60<199 449> 179 54<168 211> 337 52<168 211> 449 59<140 324> 598 60<140 414>
VStem: 55 60<533 573> 85 60<115 181> 85 51<262 306> 241 53<262 306> 503 60<115 543>
LayerCount: 2
Fore
SplineSet
600 711 m 1xfcc0
 510 621 l 1
 563 568 l 1
 563 90 l 1
 473 0 l 1
 174 0 l 1
 85 90 l 1
 85 327 l 1xf9c0
 146 389 l 1
 233 389 l 1
 294 327 l 1
 294 241 l 1
 233 179 l 1
 146 179 l 1
 145 181 l 1
 145 115 l 1xfac0
 199 60 l 1
 449 60 l 1
 503 115 l 1
 503 543 l 1
 468 578 l 1
 339 449 l 1
 115 449 l 1
 55 508 l 1
 55 598 l 1
 115 658 l 1
 473 658 l 1
 563 748 l 1
 600 711 l 1xfcc0
136 306 m 1
 136 262 l 1
 168 233 l 1
 211 233 l 1
 241 262 l 1
 241 306 l 1
 211 337 l 1
 168 337 l 1
 136 306 l 1
414 598 m 1
 140 598 l 1
 115 573 l 1
 115 533 l 1xfcc0
 140 508 l 1
 324 508 l 1
 414 598 l 1
EndSplineSet
Validated: 1
EndChar

StartChar: uni0E2F
Encoding: 3631 3631 258
Width: 533
VWidth: 1661
Flags: W
HStem: 0 21G<390 450> 449 53<115 158 239 276> 606 52<115 158>
VStem: 32 53<532 575> 189 52<532 575> 390 60<0 538 623 658>
LayerCount: 2
Fore
SplineSet
390 658 m 1
 450 658 l 1
 450 0 l 1
 390 0 l 1
 390 538 l 1
 301 449 l 1
 93 449 l 1
 32 510 l 1
 32 596 l 1
 93 658 l 1
 179 658 l 1
 241 596 l 1
 241 510 l 1
 239 508 l 1
 276 508 l 1
 390 623 l 1
 390 658 l 1
115 502 m 1
 158 502 l 1
 189 532 l 1
 189 575 l 1
 158 606 l 1
 115 606 l 1
 85 575 l 1
 85 532 l 1
 115 502 l 1
EndSplineSet
Validated: 1
EndChar

StartChar: uni0E30
Encoding: 3632 3632 259
Width: 533
VWidth: 1661
Flags: W
HStem: 0 60<236 317> 0 53<131 161> 128 51<131 161> 447 60<236 317> 447 53<131 161> 575 51<131 161>
VStem: 56 54<75 106 522 553> 184 52<75 106 522 553>
LayerCount: 2
Fore
SplineSet
56 500 m 1x2f
 56 575 l 1
 110 626 l 1
 183 626 l 1
 236 575 l 1
 236 507 l 1
 317 507 l 1x37
 405 596 l 1
 449 555 l 1
 341 447 l 1
 110 447 l 1
 56 500 l 1x2f
110 553 m 1
 110 522 l 1
 131 500 l 1
 161 500 l 1x2f
 184 522 l 1
 184 553 l 1
 161 575 l 1
 131 575 l 1
 110 553 l 1
56 53 m 1x67
 56 128 l 1
 110 179 l 1
 183 179 l 1
 236 128 l 1
 236 60 l 1
 317 60 l 1xa7
 405 150 l 1
 449 108 l 1
 341 0 l 1
 110 0 l 1
 56 53 l 1x67
110 75 m 1
 131 53 l 1
 161 53 l 1x67
 184 75 l 1
 184 106 l 1
 161 128 l 1
 131 128 l 1
 110 106 l 1
 110 75 l 1
EndSplineSet
Validated: 1
EndChar

StartChar: uni0E31
Encoding: 3633 3633 260
Width: 0
VWidth: 1661
Flags: W
HStem: 756 51<-317 -286 -213 -42> 882 53<-317 -286>
VStem: -392 53<831 861> -264 51<831 861>
LayerCount: 2
Fore
SplineSet
56 905 m 1
 93 869 l 1
 -22 756 l 1
 -339 756 l 1
 -392 807 l 1
 -392 882 l 1
 -339 935 l 1
 -266 935 l 1
 -213 882 l 1
 -213 809 l 1
 -42 807 l 1
 56 905 l 1
-317 807 m 1
 -286 807 l 1
 -264 831 l 1
 -264 861 l 1
 -286 882 l 1
 -317 882 l 1
 -339 861 l 1
 -339 831 l 1
 -317 807 l 1
EndSplineSet
Validated: 1
Substitution2: "Single Substitution lookup 22 subtable" uni0E31.alt1
Substitution2: "Single Substitution lookup 22 subtable" uni0E31.alt1
EndChar

StartChar: uni0E32
Encoding: 3634 3634 261
Width: 586
VWidth: 1661
Flags: W
HStem: 0 21G<442 502> 507 21G<53 113> 596 60<168 387>
VStem: 53 60<507 543> 442 60<0 543>
LayerCount: 2
Fore
SplineSet
412 656 m 1
 502 568 l 1
 502 0 l 1
 442 0 l 1
 442 543 l 1
 387 596 l 1
 168 596 l 1
 113 543 l 1
 113 507 l 1
 53 507 l 1
 53 566 l 1
 143 656 l 1
 412 656 l 1
EndSplineSet
Validated: 1
EndChar

StartChar: uni0E34
Encoding: 3636 3636 263
Width: 0
VWidth: 1661
Flags: W
HStem: 756 53<-510 -136> 884 51<-452 -174>
VStem: -561 51<809 826> -136 51<809 846>
LayerCount: 2
Fore
SplineSet
-174 935 m 1
 -85 846 l 1
 -85 756 l 1
 -561 756 l 1
 -561 847 l 1
 -473 935 l 1
 -174 935 l 1
-510 809 m 1
 -136 809 l 1
 -136 824 l 1
 -155 845 -175 865 -196 884 c 1
 -452 884 l 1
 -510 826 l 1
 -510 809 l 1
EndSplineSet
Validated: 1
Substitution2: "Single Substitution lookup 22 subtable" uni0E34.alt1
Substitution2: "Single Substitution lookup 22 subtable" uni0E34.alt1
EndChar

StartChar: uni0E35
Encoding: 3637 3637 264
Width: 0
VWidth: 1661
Flags: W
HStem: 756 51<-510 -136> 882 53<-452 -194>
VStem: -561 51<807 824> -136 51<807 824 897 1025>
LayerCount: 2
Fore
SplineSet
-136 1025 m 1
 -85 1025 l 1
 -85 756 l 1
 -561 756 l 1
 -561 846 l 1
 -473 935 l 1
 -173 935 l 1
 -136 897 l 1
 -136 1025 l 1
-510 807 m 1
 -136 807 l 1
 -136 824 l 1
 -194 882 l 1
 -452 882 l 1
 -510 824 l 1
 -510 807 l 1
EndSplineSet
Validated: 1
Substitution2: "Single Substitution lookup 22 subtable" uni0E35.alt1
Substitution2: "Single Substitution lookup 22 subtable" uni0E35.alt1
EndChar

StartChar: uni0E36
Encoding: 3638 3638 265
Width: 0
VWidth: 1661
Flags: W
HStem: 756 51<-510 -136> 882 53<-452 -211> 972 51<-136 -106>
VStem: -561 51<807 824> -211 53<935 950> -136 51<807 824> -85 53<919 950>
LayerCount: 2
Fore
SplineSet
-32 897 m 1
 -85 846 l 1
 -85 756 l 1
 -561 756 l 1
 -561 846 l 1
 -473 935 l 1
 -211 935 l 1
 -211 972 l 1
 -158 1023 l 1
 -85 1023 l 1
 -32 972 l 1
 -32 897 l 1
-136 807 m 1
 -136 824 l 1
 -194 882 l 1
 -452 882 l 1
 -510 824 l 1
 -510 807 l 1
 -136 807 l 1
-106 897 m 1
 -85 919 l 1
 -85 950 l 1
 -106 972 l 1
 -136 972 l 1
 -158 950 l 1
 -158 920 l 1
 -155 916 -151 912 -148 909 c 2
 -136 897 l 1
 -106 897 l 1
EndSplineSet
Validated: 1
Substitution2: "Single Substitution lookup 22 subtable" uni0E36.alt1
Substitution2: "Single Substitution lookup 22 subtable" uni0E36.alt1
EndChar

StartChar: uni0E37
Encoding: 3639 3639 266
Width: 0
VWidth: 1661
Flags: W
HStem: 754 53<-510 -136> 882 52<-450 -256 -203 -194>
VStem: -561 51<807 844.149> -256 53<934 1023> -136 53<807 822 897 1023>
LayerCount: 2
Fore
SplineSet
-136 1023 m 1
 -83 1023 l 1
 -83 754 l 1
 -561 754 l 1
 -561 846 l 1
 -472 934 l 1
 -256 934 l 1
 -256 1023 l 1
 -203 1023 l 1
 -203 934 l 1
 -173 934 l 1
 -136 897 l 1
 -136 1023 l 1
-510 807 m 1
 -136 807 l 1
 -136 822 l 1
 -194 882 l 1
 -450 882 l 1
 -479 853 l 2
 -490 842 -500 833 -510 824 c 1
 -510 807 l 1
EndSplineSet
Validated: 1
Substitution2: "Single Substitution lookup 22 subtable" uni0E37.alt1
Substitution2: "Single Substitution lookup 22 subtable" uni0E37.alt1
EndChar

StartChar: uni0E38
Encoding: 3640 3640 267
Width: 0
VWidth: 1661
Flags: W
HStem: -228 54<-189 -158> -100 52<-189 -158>
VStem: -262 51<-153 -123> -143 60<-377 -228> -136 53<-153 -123>
LayerCount: 2
Fore
SplineSet
-83 -377 m 1xf0
 -143 -377 l 1
 -143 -228 l 1xf0
 -211 -228 l 1
 -262 -174 l 1
 -262 -100 l 1
 -211 -48 l 1
 -136 -48 l 1
 -83 -100 l 1xe8
 -83 -377 l 1xf0
-189 -174 m 1
 -158 -174 l 1
 -136 -153 l 1
 -136 -123 l 1xe8
 -158 -100 l 1
 -189 -100 l 1
 -211 -123 l 1
 -211 -153 l 1
 -189 -174 l 1
EndSplineSet
Validated: 1
Substitution2: "Single Substitution lookup 21 subtable" a
Substitution2: "Single Substitution lookup 22 subtable" uni0E38.alt1
Substitution2: "Single Substitution lookup 21 subtable" a
Substitution2: "Single Substitution lookup 22 subtable" uni0E38.alt1
EndChar

StartChar: uni0E39
Encoding: 3641 3641 268
Width: 0
VWidth: 1661
Flags: W
HStem: -375 59<-234 -145> -226 52<-341 -309> -100 52<-341 -309>
VStem: -414 52<-153 -121> -294 60<-316 -226> -287 53<-153 -121> -145 60<-316 -48>
LayerCount: 2
Fore
SplineSet
-145 -48 m 1xfa
 -85 -48 l 1
 -85 -375 l 1
 -294 -375 l 1
 -294 -226 l 1xfa
 -362 -226 l 1
 -414 -174 l 1
 -414 -100 l 1
 -360 -48 l 1
 -287 -48 l 1
 -234 -100 l 1xf6
 -234 -316 l 1
 -145 -316 l 1
 -145 -48 l 1xfa
-341 -174 m 1
 -309 -174 l 1
 -287 -153 l 1
 -287 -121 l 1xf6
 -309 -100 l 1
 -341 -100 l 1
 -362 -121 l 1
 -362 -153 l 1
 -341 -174 l 1
EndSplineSet
Validated: 1
Substitution2: "Single Substitution lookup 21 subtable" b
Substitution2: "Single Substitution lookup 22 subtable" uni0E39.alt1
Substitution2: "Single Substitution lookup 21 subtable" b
Substitution2: "Single Substitution lookup 22 subtable" uni0E39.alt1
EndChar

StartChar: uni0E3A
Encoding: 3642 3642 269
Width: 0
VWidth: 1661
Flags: W
HStem: -168 120<-169 -120>
VStem: -204 119<-131 -83>
LayerCount: 2
Fore
SplineSet
-85 -83 m 1
 -85 -131 l 1
 -120 -168 l 1
 -169 -168 l 1
 -204 -131 l 1
 -204 -83 l 1
 -169 -48 l 1
 -120 -48 l 1
 -85 -83 l 1
EndSplineSet
Validated: 1
Substitution2: "Single Substitution lookup 21 subtable" c
Substitution2: "Single Substitution lookup 22 subtable" uni0E3A.alt1
Substitution2: "Single Substitution lookup 21 subtable" c
Substitution2: "Single Substitution lookup 22 subtable" uni0E3A.alt1
EndChar

StartChar: uni0E3F
Encoding: 3647 3647 270
Width: 588
VWidth: 1661
Flags: W
HStem: 0 60<115 219 279 389> 329 60<115 219 279 359> 658 60<115 219 279 359>
VStem: 55 60<60 329 389 658> 219 60<-60 0 60 329 389 658 718 777> 414 59<444 603> 444 59<115 274>
CounterMasks: 1 e0
LayerCount: 2
Fore
SplineSet
429 374 m 1xfc
 503 299 l 1
 503 90 l 1xfa
 414 0 l 1
 279 0 l 1
 279 -60 l 1
 219 -60 l 1
 219 0 l 1
 55 0 l 1
 55 718 l 1
 219 718 l 1
 219 777 l 1
 279 777 l 1
 279 718 l 1
 384 718 l 1
 473 628 l 1
 473 419 l 1
 429 374 l 1xfc
359 658 m 1
 279 658 l 1
 279 389 l 1
 359 389 l 1
 414 444 l 1
 414 603 l 1xfc
 359 658 l 1
115 658 m 1
 115 389 l 1
 219 389 l 1
 219 658 l 1
 115 658 l 1
115 60 m 1
 219 60 l 1
 219 329 l 1
 115 329 l 1
 115 60 l 1
444 115 m 1xfa
 444 274 l 1
 389 329 l 1
 279 329 l 1
 279 60 l 1
 389 60 l 1
 444 115 l 1xfa
EndSplineSet
Validated: 1
EndChar

StartChar: uni0E40
Encoding: 3648 3648 271
Width: 302
VWidth: 1661
Flags: W
HStem: 0 53<136 179> 158 51<136 179> 638 20G<53 113>
VStem: 53 60<208 658> 53 53<83 126> 209 53<83 126>
LayerCount: 2
Fore
SplineSet
201 209 m 1xf4
 262 150 l 1
 262 61 l 1
 201 0 l 1
 115 0 l 1
 53 61 l 1xec
 53 658 l 1
 113 658 l 1
 113 208 l 1
 115 209 l 1
 201 209 l 1xf4
209 83 m 1
 209 126 l 1
 179 158 l 1
 136 158 l 1
 106 126 l 1
 106 83 l 1
 136 53 l 1
 179 53 l 1
 209 83 l 1
EndSplineSet
Validated: 1
EndChar

StartChar: uni0E41
Encoding: 3649 3649 272
Width: 571
VWidth: 1661
Flags: W
HStem: 0 51<136 181 405 449> 156 53<136 181 405 449> 638 20G<55 115 322 382>
VStem: 55 60<209 658> 55 51<83 126> 211 51<83 126> 322 60<208 658> 322 53<83 126> 480 52<83 126>
LayerCount: 2
Fore
SplineSet
115 209 m 1xf480
 203 209 l 1
 262 148 l 1
 262 61 l 1
 203 0 l 1
 115 0 l 1xf480
 55 61 l 1xec80
 55 658 l 1
 115 658 l 1
 115 209 l 1xf480
211 83 m 1
 211 126 l 1
 181 156 l 1
 136 156 l 1
 106 126 l 1
 106 83 l 1xec80
 136 51 l 1
 181 51 l 1
 211 83 l 1
470 209 m 1
 532 148 l 1
 532 61 l 1
 470 0 l 1
 384 0 l 1
 322 61 l 1xe580
 322 658 l 1
 382 658 l 1
 382 208 l 1xe680
 384 209 l 1
 470 209 l 1
480 83 m 1
 480 126 l 1
 449 156 l 1
 405 156 l 1
 375 126 l 1
 375 83 l 1
 405 51 l 1
 449 51 l 1
 480 83 l 1
EndSplineSet
Validated: 1
EndChar

StartChar: uni0E42
Encoding: 3650 3650 273
Width: 485
VWidth: 1661
Flags: W
HStem: 0 53<319 362> 158 51<319 362> 957 60<81 326>
VStem: 236 60<208 774> 236 53<83 126> 394 51<83 126>
LayerCount: 2
Fore
SplineSet
384 209 m 1xf4
 445 148 l 1
 445 61 l 1
 384 0 l 1
 297 0 l 1
 236 61 l 1xec
 236 774 l 1
 -33 882 l 1
 -33 927 l 1
 56 1017 l 1
 326 1017 l 1
 326 957 l 1
 81 957 l 1
 37 910 l 1
 296 807 l 1
 296 208 l 1
 297 209 l 1
 384 209 l 1xf4
394 83 m 1
 394 126 l 1
 362 158 l 1
 319 158 l 1
 289 126 l 1
 289 83 l 1
 319 53 l 1
 362 53 l 1
 394 83 l 1
EndSplineSet
Validated: 1
EndChar

StartChar: uni0E43
Encoding: 3651 3651 274
Width: 486
VWidth: 1661
Flags: W
HStem: 0 51<321 364> 156 53<321 364> 718 51<51 95> 874 53<53 95> 957 58<83 183>
VStem: -32 52<801 844> 125 53<801 844> 238 59<208 902> 238 51<83 126> 394 53<83 126>
LayerCount: 2
Fore
SplineSet
385 209 m 1xff40
 447 148 l 1
 447 61 l 1
 385 0 l 1
 299 0 l 1
 238 61 l 1xfec0
 238 902 l 1
 183 957 l 1
 83 957 l 1
 53 927 l 1
 116 927 l 1
 178 865 l 1
 178 779 l 1
 116 718 l 1
 30 718 l 1
 -32 779 l 1
 -32 925 l 1
 58 1015 l 1
 208 1015 l 1
 297 927 l 1
 297 208 l 1
 299 209 l 1
 385 209 l 1xff40
125 844 m 1
 95 874 l 1
 51 874 l 1
 20 844 l 1
 20 801 l 1
 51 769 l 1
 95 769 l 1
 125 801 l 1
 125 844 l 1
394 83 m 1
 394 126 l 1
 364 156 l 1
 321 156 l 1
 289 126 l 1
 289 83 l 1
 321 51 l 1
 364 51 l 1
 394 83 l 1
EndSplineSet
Validated: 1
EndChar

StartChar: uni0E44
Encoding: 3652 3652 275
Width: 485
VWidth: 1661
Flags: W
HStem: 0 51<319 364> 156 53<319 364> 955 60<-32 23>
VStem: 238 59<209 930> 238 51<83 126> 394 51<83 126>
LayerCount: 2
Fore
SplineSet
385 209 m 1xf4
 445 148 l 1
 445 61 l 1
 385 0 l 1
 297 0 l 1xf4
 238 61 l 1xec
 238 930 l 1xf4
 143 836 l 1
 23 955 l 1
 -32 955 l 1
 -32 1015 l 1
 48 1015 l 1
 143 920 l 1
 238 1017 l 1xec
 297 1017 l 1
 297 209 l 1
 385 209 l 1xf4
394 83 m 1
 394 126 l 1
 364 156 l 1
 319 156 l 1
 289 126 l 1
 289 83 l 1xec
 319 51 l 1
 364 51 l 1
 394 83 l 1
EndSplineSet
Validated: 1
EndChar

StartChar: uni0E45
Encoding: 3653 3653 276
Width: 588
VWidth: 1661
Flags: W
HStem: 508 21G<55 115> 598 60<169 389>
VStem: 55 60<508 543> 444 59<-297 543>
LayerCount: 2
Fore
SplineSet
414 658 m 1
 503 568 l 1
 503 -297 l 1
 444 -297 l 1
 444 543 l 1
 389 598 l 1
 169 598 l 1
 115 543 l 1
 115 508 l 1
 55 508 l 1
 55 568 l 1
 145 658 l 1
 414 658 l 1
EndSplineSet
Validated: 1
EndChar

StartChar: uni0E46
Encoding: 3654 3654 277
Width: 561
VWidth: 1661
Flags: W
HStem: 327 55<141 184> 485 53<141 184> 596 60<173 223 342 362>
VStem: 58 52<412 455> 214 53<412 455> 417 60<-301 542>
LayerCount: 2
Fore
SplineSet
387 656 m 1
 477 566 l 1
 477 -301 l 1
 417 -301 l 1
 417 542 l 1
 362 596 l 1
 342 596 l 1
 282 537 l 1
 223 596 l 1
 173 596 l 1
 118 542 l 1
 118 537 l 1
 120 538 l 1
 206 538 l 1
 267 477 l 1
 267 389 l 1
 206 327 l 1
 120 327 l 1
 58 390 l 1
 58 566 l 1
 148 656 l 1
 248 656 l 1
 282 621 l 1
 317 656 l 1
 387 656 l 1
141 485 m 1
 110 455 l 1
 110 412 l 1
 141 382 l 1
 184 382 l 1
 214 412 l 1
 214 455 l 1
 184 485 l 1
 141 485 l 1
EndSplineSet
Validated: 1
EndChar

StartChar: uni0E47
Encoding: 3655 3655 278
Width: 0
VWidth: 1661
Flags: W
HStem: 756 53<-272 -257 -186 -158> 877 50<-186 -158> 944 51<-332 -168>
VStem: -444 52<824 884> -257 51<829 857> -138 53<829 857>
LayerCount: 2
Fore
SplineSet
-136 927 m 1
 -85 879 l 1
 -85 807 l 1
 -135 756 l 1
 -294 756 l 1
 -339 802 l 1
 -385 756 l 1
 -444 756 l 1
 -444 905 l 1
 -354 995 l 1
 -168 995 l 1
 -106 1055 l 1
 -70 1018 l 1
 -145 944 l 1
 -332 944 l 1
 -392 884 l 1
 -392 824 l 1
 -353 863 l 0
 -347 869 -342 873 -339 875 c 1
 -272 809 l 1
 -257 809 l 1
 -257 879 l 1
 -209 927 l 1
 -136 927 l 1
-138 829 m 1
 -138 857 l 1
 -158 877 l 1
 -186 877 l 1
 -206 857 l 1
 -206 829 l 1
 -186 809 l 1
 -158 809 l 1
 -138 829 l 1
EndSplineSet
Validated: 1
Substitution2: "Single Substitution lookup 22 subtable" uni0E47.alt1
Substitution2: "Single Substitution lookup 22 subtable" uni0E47.alt1
EndChar

StartChar: uni0E48
Encoding: 3656 3656 279
Width: 0
VWidth: 1661
Flags: W
HStem: 1063 239<-138 -85>
VStem: -138 53<1063 1302>
LayerCount: 2
Fore
SplineSet
-85 1302 m 1
 -85 1063 l 1
 -138 1063 l 1
 -138 1302 l 1
 -85 1302 l 1
EndSplineSet
Validated: 1
Substitution2: "Single Substitution lookup 22 subtable" uni0E48.alt2
Substitution2: "Single Substitution lookup 22 subtable" uni0E48.alt2
EndChar

StartChar: uni0E49
Encoding: 3657 3657 280
Width: 0
VWidth: 1661
Flags: W
HStem: 1065 50<-307 -272 -199 -118> 1249 52<-234 -206>
VStem: -307 53<1201 1229> -186 50<1201 1229>
LayerCount: 2
Fore
SplineSet
42 1274 m 1
 44 1271 43 1275 80 1238 c 1
 -83 1065 l 1
 -307 1065 l 1
 -307 1115 l 1
 -272 1115 l 1
 -257 1130 l 1
 -307 1179 l 1
 -307 1251 l 1
 -257 1301 l 1
 -184 1301 l 1
 -136 1253 l 1
 -136 1179 l 1
 -199 1115 l 1
 -118 1115 l 1
 42 1274 l 1
-254 1229 m 1
 -254 1201 l 1
 -234 1181 l 1
 -206 1181 l 1
 -186 1201 l 1
 -186 1229 l 1
 -206 1249 l 1
 -234 1249 l 1
 -254 1229 l 1
EndSplineSet
Validated: 1
Substitution2: "Single Substitution lookup 22 subtable" uni0E49.alt2
Substitution2: "Single Substitution lookup 22 subtable" uni0E49.alt2
EndChar

StartChar: uni0E4A
Encoding: 3658 3658 281
Width: 0
VWidth: 1661
Flags: W
HStem: 1101 52<-234 -206> 1221 51<-234 -206>
VStem: -306 52<1173 1201>
LayerCount: 2
Fore
SplineSet
75 1279 m 1
 111 1243 l 1
 -68 1063 l 1
 -105 1100 l 1
 -47 1158 l 1
 -86 1198 l 1
 -184 1101 l 1
 -256 1101 l 2
 -257 1101 -260 1104 -264 1108 c 2
 -306 1150 l 1
 -306 1223 l 1
 -257 1272 l 1
 -184 1272 l 1
 -136 1223 l 1
 -86 1272 l 1
 -10 1194 l 1
 75 1279 l 1
-234 1153 m 1
 -206 1153 l 1
 -186 1173 l 1
 -186 1201 l 1
 -206 1221 l 1
 -234 1221 l 1
 -254 1201 l 1
 -254 1173 l 1
 -234 1153 l 1
EndSplineSet
Validated: 1
Substitution2: "Single Substitution lookup 22 subtable" uni0E4A.alt2
Substitution2: "Single Substitution lookup 22 subtable" uni0E4A.alt2
EndChar

StartChar: uni0E4B
Encoding: 3659 3659 282
Width: 0
VWidth: 1661
Flags: W
HStem: 1156 53<-231 -138 -85 8>
VStem: -138 53<1063 1156 1209 1302>
LayerCount: 2
Fore
SplineSet
8 1209 m 1
 8 1156 l 1
 -85 1156 l 1
 -85 1063 l 1
 -138 1063 l 1
 -138 1156 l 1
 -231 1156 l 1
 -231 1209 l 1
 -138 1209 l 1
 -138 1302 l 1
 -85 1302 l 1
 -85 1209 l 1
 8 1209 l 1
EndSplineSet
Validated: 1
Substitution2: "Single Substitution lookup 22 subtable" uni0E4B.alt2
Substitution2: "Single Substitution lookup 22 subtable" uni0E4B.alt2
EndChar

StartChar: uni0E4C
Encoding: 3660 3660 283
Width: 0
VWidth: 1661
Flags: W
HStem: 970 53<-189 -158>
VStem: -264 53<1045 1076> -136 51<1045 1076>
LayerCount: 2
Fore
SplineSet
-85 1098 m 1
 -85 1023 l 1
 -136 970 l 1
 -211 970 l 1
 -264 1023 l 1
 -264 1098 l 1
 -61 1301 l 1
 -25 1264 l 1
 -37 1251 -49 1238 -61 1226 c 2
 -99 1189 l 2
 -113 1176 -126 1163 -138 1150 c 1
 -85 1098 l 1
-136 1045 m 1
 -136 1076 l 1
 -158 1098 l 1
 -189 1098 l 1
 -211 1076 l 1
 -211 1045 l 1
 -189 1023 l 1
 -158 1023 l 1
 -136 1045 l 1
EndSplineSet
Validated: 1
Substitution2: "Single Substitution lookup 22 subtable" uni0E4C.alt2
Substitution2: "Single Substitution lookup 22 subtable" uni0E4C.alt2
EndChar

StartChar: uni0E4D
Encoding: 3661 3661 284
Width: 0
VWidth: 1661
Flags: W
HStem: 756 53<-209 -166> 914 51<-209 -166>
VStem: -292 53<839 882> -135 52<839 882>
LayerCount: 2
Fore
SplineSet
-231 965 m 1
 -145 965 l 1
 -83 904 l 1
 -83 817 l 1
 -145 756 l 1
 -231 756 l 1
 -292 817 l 1
 -292 904 l 1
 -231 965 l 1
-135 839 m 1
 -135 882 l 1
 -166 914 l 1
 -209 914 l 1
 -239 882 l 1
 -239 839 l 1
 -209 809 l 1
 -166 809 l 1
 -135 839 l 1
EndSplineSet
Validated: 1
Substitution2: "Single Substitution lookup 22 subtable" uni0E4D.alt1
Substitution2: "Single Substitution lookup 22 subtable" uni0E4D.alt1
EndChar

StartChar: uni0E4E
Encoding: 3662 3662 285
Width: 0
VWidth: 1661
Flags: W
HStem: 861 59<-135 -100> 965 60<-30 65>
VStem: -204 59<756 849> -100 60<920 954>
LayerCount: 2
Fore
SplineSet
-55 1025 m 1
 65 1025 l 1
 65 965 l 1
 -30 965 l 1
 -40 954 l 1
 -40 861 l 1
 -135 861 l 1
 -145 849 l 1
 -145 756 l 1
 -204 756 l 1
 -204 874 l 1
 -158 920 l 1
 -100 920 l 1
 -100 978 l 1
 -55 1025 l 1
EndSplineSet
Validated: 1
Substitution2: "Single Substitution lookup 22 subtable" uni0E4E.alt1
Substitution2: "Single Substitution lookup 22 subtable" uni0E4E.alt1
EndChar

StartChar: uni0E4F
Encoding: 3663 3663 286
Width: 586
VWidth: 1661
Flags: W
HStem: 0 60<211 341> 120 59<257 296> 269 60<257 296> 389 60<213 341>
VStem: 53 60<159 289> 174 59<206 243> 322 60<206 243> 442 60<159 287>
LayerCount: 2
Fore
SplineSet
321 329 m 1
 382 267 l 1
 382 181 l 1
 321 120 l 1
 234 120 l 1
 174 179 l 1
 174 269 l 1
 234 329 l 1
 321 329 l 1
322 206 m 1
 322 243 l 1
 296 269 l 1
 257 269 l 1
 233 243 l 1
 233 206 l 1
 257 179 l 1
 296 179 l 1
 322 206 l 1
365 449 m 1
 502 312 l 1
 502 135 l 1
 365 0 l 1
 186 0 l 1
 53 135 l 1
 53 314 l 1
 188 449 l 1
 365 449 l 1
442 159 m 1
 442 287 l 1
 341 389 l 1
 213 389 l 1
 113 289 l 1
 113 159 l 1
 211 60 l 1
 341 60 l 1
 442 159 l 1
EndSplineSet
Validated: 1
EndChar

StartChar: uni0E50
Encoding: 3664 3664 287
Width: 646
VWidth: 1661
Flags: W
HStem: 0 60<168 447> 419 58<168 447>
VStem: 53 60<115 364> 502 59<113 364>
LayerCount: 2
Fore
SplineSet
472 478 m 1
 561 387 l 1
 561 90 l 1
 472 0 l 1
 143 0 l 1
 53 90 l 1
 53 389 l 1
 143 477 l 1
 472 478 l 1
502 113 m 1
 502 364 l 1
 447 419 l 1
 168 419 l 1
 113 364 l 1
 113 115 l 1
 168 60 l 1
 447 60 l 1
 502 113 l 1
EndSplineSet
Validated: 1
EndChar

StartChar: uni0E51
Encoding: 3665 3665 288
Width: 647
VWidth: 1661
Flags: W
HStem: 0 51<257 301> 156 53<257 301> 417 60<169 449>
VStem: 55 60<115 364> 174 54<83 126> 331 53<83 126> 503 60<53 362>
LayerCount: 2
Fore
SplineSet
473 477 m 1
 563 387 l 1
 563 30 l 1
 473 -60 l 1
 432 -18 l 1
 503 53 l 1
 503 362 l 1
 449 417 l 1
 169 417 l 1
 115 364 l 1
 115 115 l 1
 169 60 l 1
 176 60 l 1
 174 61 l 1
 174 148 l 1
 236 209 l 1
 322 209 l 1
 384 148 l 1
 384 61 l 1
 322 0 l 1
 145 0 l 1
 55 90 l 1
 55 387 l 1
 145 477 l 1
 473 477 l 1
228 126 m 1
 228 83 l 1
 257 51 l 1
 301 51 l 1
 331 83 l 1
 331 126 l 1
 301 156 l 1
 257 156 l 1
 228 126 l 1
EndSplineSet
Validated: 1
EndChar

StartChar: uni0E52
Encoding: 3666 3666 289
Width: 765
VWidth: 1661
Flags: W
HStem: 0 60<168 566> 148 53<286 329> 306 51<286 329> 417 60<317 367 547 566>
VStem: 53 60<115 566> 203 51<231 274> 359 53<231 274> 621 60<115 362>
LayerCount: 2
Fore
SplineSet
591 477 m 1
 681 387 l 1
 681 90 l 1
 591 0 l 1
 143 0 l 1
 53 90 l 1
 53 566 l 1
 113 566 l 1
 113 115 l 1
 168 60 l 1
 566 60 l 1
 621 115 l 1
 621 362 l 1
 566 417 l 1
 547 417 l 1
 457 327 l 1
 367 417 l 1
 317 417 l 1
 262 362 l 1
 262 355 l 1
 264 357 l 1
 351 357 l 1
 412 297 l 1
 412 209 l 1
 351 148 l 1
 264 148 l 1
 203 209 l 1
 203 387 l 1
 292 477 l 1
 392 477 l 1
 457 412 l 1
 522 477 l 1
 591 477 l 1
286 306 m 1
 254 274 l 1
 254 231 l 1
 286 201 l 1
 329 201 l 1
 359 231 l 1
 359 274 l 1
 329 306 l 1
 286 306 l 1
EndSplineSet
Validated: 1
EndChar

StartChar: uni0E53
Encoding: 3667 3667 290
Width: 735
VWidth: 1661
Flags: W
HStem: 0 51<136 179> 156 53<136 179> 417 60<168 299 465 537>
VStem: 53 60<208 362> 53 53<83 126> 211 51<83 126> 352 60<0 364> 591 60<0 364>
LayerCount: 2
Fore
SplineSet
561 477 m 1xef
 651 387 l 1
 651 0 l 1
 591 0 l 1
 591 364 l 1
 537 417 l 1
 465 417 l 1
 412 364 l 1
 412 0 l 1
 352 0 l 1
 352 364 l 1
 299 417 l 1
 168 417 l 1
 113 362 l 1
 113 208 l 1xf7
 115 209 l 1
 201 209 l 1
 262 148 l 1
 262 61 l 1
 201 0 l 1
 115 0 l 1
 53 61 l 1
 53 387 l 1
 143 477 l 1
 322 477 l 1
 382 417 l 1
 442 477 l 1
 561 477 l 1xef
136 156 m 1
 106 126 l 1
 106 83 l 1xef
 136 51 l 1
 179 51 l 1
 211 83 l 1
 211 126 l 1
 179 156 l 1
 136 156 l 1
EndSplineSet
Validated: 1
EndChar

StartChar: uni0E54
Encoding: 3668 3668 291
Width: 676
VWidth: 1661
Flags: W
HStem: 0 60<168 354 429 591> 276 53<316 359> 417 60<168 520>
VStem: 53 60<115 362> 233 53<203 246> 390 52<203 246>
LayerCount: 2
Fore
SplineSet
429 60 m 1
 591 60 l 1
 591 0 l 1
 143 0 l 1
 53 90 l 1
 53 387 l 1
 143 477 l 1
 520 477 l 1
 610 566 l 1
 651 525 l 1
 545 417 l 1
 168 417 l 1
 113 362 l 1
 113 115 l 1
 168 60 l 1
 354 60 l 1
 233 181 l 1
 233 267 l 1
 294 329 l 1
 380 329 l 1
 442 267 l 1
 442 181 l 1
 380 120 l 1
 369 120 l 1
 429 60 l 1
286 246 m 1
 286 203 l 1
 316 171 l 1
 359 171 l 1
 390 203 l 1
 390 246 l 1
 359 276 l 1
 316 276 l 1
 286 246 l 1
EndSplineSet
Validated: 1
EndChar

StartChar: uni0E55
Encoding: 3669 3669 292
Width: 676
VWidth: 1661
Flags: W
HStem: 0 60<169 355 429 593> 276 53<317 360> 417 60<169 236 309 367 442 520> 575 51<317 360>
VStem: 55 60<115 364> 234 52<203 246 500 543> 390 54<203 246 500 543>
LayerCount: 2
Fore
SplineSet
429 60 m 1
 593 60 l 1
 593 0 l 1
 145 0 l 1
 55 90 l 1
 55 387 l 1
 145 477 l 1
 236 477 l 1
 234 478 l 1
 234 565 l 1
 296 626 l 1
 382 626 l 1
 444 565 l 1
 444 478 l 1
 442 477 l 1
 520 477 l 1
 611 568 l 1
 653 525 l 1
 545 417 l 1
 169 417 l 1
 115 364 l 1
 115 115 l 1
 169 60 l 1
 355 60 l 1
 234 181 l 1
 234 267 l 1
 296 329 l 1
 382 329 l 1
 444 267 l 1
 444 181 l 1
 382 120 l 1
 369 120 l 1
 429 60 l 1
286 246 m 1
 286 203 l 1
 317 171 l 1
 360 171 l 1
 390 203 l 1
 390 246 l 1
 360 276 l 1
 317 276 l 1
 286 246 l 1
286 500 m 1
 309 477 l 1
 367 477 l 1
 390 500 l 1
 390 543 l 1
 360 575 l 1
 317 575 l 1
 286 543 l 1
 286 500 l 1
EndSplineSet
Validated: 1
EndChar

StartChar: uni0E56
Encoding: 3670 3670 293
Width: 722
VWidth: 1661
Flags: W
HStem: 0 60<369 525> 0 51<244 287> 156 53<244 287> 417 60<173 525>
VStem: 161 52<83 126> 317 53<83 126> 580 60<115 362>
LayerCount: 2
Fore
SplineSet
550 477 m 1xbe
 640 387 l 1
 640 90 l 1
 550 0 l 1
 223 0 l 1x7e
 161 61 l 1
 161 148 l 1
 223 209 l 1
 309 209 l 1
 370 148 l 1
 370 61 l 1
 369 60 l 1
 525 60 l 1
 580 115 l 1
 580 362 l 1
 525 417 l 1
 148 417 l 1
 42 525 l 1
 83 566 l 1
 173 477 l 1
 550 477 l 1xbe
244 51 m 1
 287 51 l 1
 317 83 l 1
 317 126 l 1
 287 156 l 1
 244 156 l 1
 213 126 l 1
 213 83 l 1
 244 51 l 1
EndSplineSet
Validated: 1
EndChar

StartChar: uni0E57
Encoding: 3671 3671 294
Width: 825
VWidth: 1661
Flags: W
HStem: 0 51<136 179> 156 53<136 179> 417 60<168 233 412 477>
VStem: 53 60<208 362> 53 53<83 126> 211 51<83 126> 532 59<85 364> 681 60<174 566>
LayerCount: 2
Fore
SplineSet
681 566 m 1xef
 741 566 l 1
 741 150 l 1
 591 0 l 1
 532 0 l 1
 532 364 l 1
 477 417 l 1
 412 417 l 1
 322 327 l 1
 233 417 l 1
 168 417 l 1
 113 362 l 1
 113 208 l 1xf7
 115 209 l 1
 201 209 l 1
 262 148 l 1
 262 60 l 1
 201 0 l 1
 115 0 l 1
 53 60 l 1
 53 387 l 1
 143 477 l 1
 257 477 l 1
 322 412 l 1
 387 477 l 1
 502 477 l 1
 591 387 l 1
 591 85 l 1
 681 174 l 1
 681 566 l 1xef
136 156 m 1
 106 126 l 1
 106 83 l 1xef
 136 51 l 1
 179 51 l 1
 211 83 l 1
 211 126 l 1
 179 156 l 1
 136 156 l 1
EndSplineSet
Validated: 1
EndChar

StartChar: uni0E58
Encoding: 3672 3672 295
Width: 704
VWidth: 1661
Flags: W
HStem: 0 61<355 410> 0 53<493 537> 158 51<493 537> 419 59<168 518>
VStem: 51 60<115 364> 410 52<83 126> 566 54<83 126>
LayerCount: 2
Fore
SplineSet
472 209 m 1xbe
 558 209 l 1
 620 148 l 1
 620 60 l 1
 558 0 l 1
 331 0 l 1
 236 95 l 1
 141 0 l 1x7e
 51 90 l 1
 51 389 l 1
 141 478 l 1
 518 478 l 1
 606 568 l 1
 650 527 l 1
 543 419 l 1
 168 419 l 1
 111 364 l 1
 111 115 l 1
 141 85 l 1
 236 179 l 1
 355 61 l 1
 410 61 l 1
 410 148 l 1
 472 209 l 1xbe
566 83 m 1
 566 126 l 1
 537 158 l 1
 493 158 l 1
 462 126 l 1
 462 83 l 1
 493 53 l 1
 537 53 l 1
 566 83 l 1
EndSplineSet
Validated: 1
EndChar

StartChar: uni0E59
Encoding: 3673 3673 296
Width: 727
VWidth: 1661
Flags: W
HStem: 0 51<256 299> 156 53<256 299> 417 60<168 226 467 522>
VStem: 53 60<113 364> 173 53<83 126> 331 51<83 126>
LayerCount: 2
Fore
SplineSet
168 417 m 1
 113 364 l 1
 113 113 l 1
 168 60 l 1
 173 60 l 1
 173 148 l 1
 234 209 l 1
 321 209 l 1
 382 148 l 1
 382 60 l 1
 321 0 l 1
 143 0 l 1
 53 90 l 1
 53 387 l 1
 143 477 l 1
 241 477 l 1
 341 375 l 1
 442 477 l 1
 522 477 l 1
 611 566 l 1
 653 525 l 1
 547 417 l 1
 467 417 l 1
 384 334 l 1
 681 37 l 1
 645 0 l 1
 226 417 l 1
 168 417 l 1
226 126 m 1
 226 83 l 1
 256 51 l 1
 299 51 l 1
 331 83 l 1
 331 126 l 1
 299 156 l 1
 256 156 l 1
 226 126 l 1
EndSplineSet
Validated: 1
EndChar

StartChar: uni0E5A
Encoding: 3674 3674 297
Width: 742
VWidth: 1661
Flags: W
HStem: 0 21G<389 449 598 658> 447 60<238 274 449 483> 447 53<113 156> 605 51<113 156>
VStem: 30 53<530 573> 188 51<530 573> 389 60<0 447 507 537 621 656> 598 60<0 537 621 656>
LayerCount: 2
Fore
SplineSet
598 656 m 1xdf
 658 656 l 1
 658 0 l 1
 598 0 l 1
 598 537 l 1
 508 447 l 1xbf
 449 447 l 1xdf
 449 0 l 1
 389 0 l 1
 389 537 l 1
 299 447 l 1
 91 447 l 1xbf
 30 508 l 1
 30 595 l 1
 91 656 l 1
 178 656 l 1
 239 595 l 1
 239 508 l 1
 238 507 l 1
 274 507 l 1
 389 621 l 1
 389 656 l 1
 449 656 l 1
 449 507 l 1
 483 507 l 1
 598 621 l 1
 598 656 l 1xdf
113 500 m 1
 156 500 l 1
 188 530 l 1
 188 573 l 1
 156 605 l 1
 113 605 l 1
 83 573 l 1
 83 530 l 1
 113 500 l 1
EndSplineSet
Validated: 1
EndChar

StartChar: uni0E5B
Encoding: 3675 3675 298
Width: 1225
VWidth: 1661
Flags: W
HStem: 90 60<166 415> 209 52<269 312> 351 14<1091.8 1145> 365 54<269 312> 478 60<166 282>
VStem: 51 60<203 424> 186 53<292 336> 344 51<292 336> 470 60<204 299>
LayerCount: 2
Fore
SplineSet
1145 365 m 1
 1145 351 l 1
 993 331 l 1
 965 359 l 1
 884 276 l 1
 801 359 l 1
 718 276 l 1
 636 359 l 1
 553 276 l 1
 530 299 l 1
 530 179 l 1
 440 90 l 1
 141 90 l 1
 51 179 l 1
 51 449 l 1
 141 538 l 1
 306 538 l 1
 395 449 l 1
 395 271 l 1
 334 209 l 1
 248 209 l 1
 186 271 l 1
 186 357 l 1
 248 419 l 1
 334 419 l 1
 336 417 l 1
 336 424 l 1
 282 478 l 1
 166 478 l 1
 111 424 l 1
 111 203 l 1
 166 150 l 1
 415 150 l 1
 470 204 l 1
 470 434 l 1
 553 351 l 1
 636 434 l 1
 718 351 l 1
 801 434 l 1
 884 351 l 1
 965 434 l 1
 1022 377 l 1
 1145 365 l 1
344 292 m 1
 344 336 l 1
 312 365 l 1
 269 365 l 1
 239 336 l 1
 239 292 l 1
 269 261 l 1
 312 261 l 1
 344 292 l 1
EndSplineSet
Validated: 1
EndChar

StartChar: zerowidthnonjoiner
Encoding: 8204 8204 299
Width: 0
VWidth: 1661
Flags: W
LayerCount: 2
Back
SplineSet
30 -512 m 1
 -28 -512 l 1
 -28 399 l 1
 30 399 l 1
 30 -512 l 1
EndSplineSet
EndChar

StartChar: zerowidthjoiner
Encoding: 8205 8205 300
Width: 0
VWidth: 1661
Flags: W
LayerCount: 2
Back
SplineSet
30 -512 m 1
 -28 -512 l 1
 -28 249 l 1
 -61 214 l 1
 -91 243 l 1
 -28 306 l 1
 -91 370 l 1
 -61 399 l 1
 0 336 l 1
 63 399 l 1
 93 370 l 1
 30 306 l 1
 93 243 l 1
 63 214 l 1
 30 249 l 1
 30 -512 l 1
EndSplineSet
EndChar

StartChar: lefttorightmark
Encoding: 8206 8206 301
Width: 0
VWidth: 1661
Flags: W
LayerCount: 2
Back
SplineSet
30 -512 m 1
 -28 -512 l 1
 -28 339 l 1
 194 339 l 1
 166 369 l 1
 193 397 l 1
 281 309 l 1
 193 221 l 1
 166 251 l 1
 194 279 l 1
 30 279 l 1
 30 -512 l 1
EndSplineSet
EndChar

StartChar: righttoleftmark
Encoding: 8207 8207 302
Width: 0
VWidth: 1661
Flags: W
LayerCount: 2
Back
SplineSet
30 -512 m 1
 -28 -512 l 1
 -28 279 l 1
 -193 279 l 1
 -164 251 l 1
 -191 221 l 1
 -279 309 l 1
 -191 397 l 1
 -164 369 l 1
 -193 339 l 1
 30 339 l 1
 30 -512 l 1
EndSplineSet
EndChar

StartChar: endash
Encoding: 8211 8211 303
Width: 556
VWidth: 1661
Flags: W
HStem: 329 60<55 472>
LayerCount: 2
Fore
SplineSet
472 329 m 1
 55 329 l 1
 55 389 l 1
 472 389 l 1
 472 329 l 1
EndSplineSet
Validated: 1
EndChar

StartChar: emdash
Encoding: 8212 8212 304
Width: 852
VWidth: 1661
Flags: W
HStem: 329 60<51 767>
LayerCount: 2
Fore
SplineSet
767 389 m 1
 767 329 l 1
 51 329 l 1
 51 389 l 1
 767 389 l 1
EndSplineSet
Validated: 1
EndChar

StartChar: quoteleft
Encoding: 8216 8216 305
Width: 252
VWidth: 1661
Flags: W
HStem: 538 210
VStem: 50 119<573 623>
LayerCount: 2
Fore
SplineSet
50 573 m 1
 50 630 l 1
 140 748 l 1
 169 748 l 1
 125 658 l 1
 133 658 l 1
 169 623 l 1
 169 573 l 1
 133 538 l 1
 85 538 l 1
 50 573 l 1
EndSplineSet
Validated: 1
EndChar

StartChar: quoteright
Encoding: 8217 8217 306
Width: 252
VWidth: 1661
Flags: W
HStem: 538 210
VStem: 50 119<663 713>
LayerCount: 2
Fore
SplineSet
169 713 m 1
 169 658 l 1
 80 538 l 1
 50 538 l 1
 95 628 l 1
 85 628 l 1
 50 663 l 1
 50 713 l 1
 85 748 l 1
 135 748 l 1
 169 713 l 1
EndSplineSet
Validated: 1
EndChar

StartChar: quotesinglbase
Encoding: 8218 8218 307
Width: 250
VWidth: 1661
Flags: W
HStem: -90 210
VStem: 48 120<35 83>
LayerCount: 2
Fore
SplineSet
168 83 m 1
 168 28 l 1
 78 -90 l 1
 48 -90 l 1
 93 0 l 1
 83 0 l 1
 48 35 l 1
 48 83 l 1
 83 120 l 1
 133 120 l 1
 168 83 l 1
EndSplineSet
Validated: 1
EndChar

StartChar: quotedblleft
Encoding: 8220 8220 308
Width: 430
VWidth: 1661
Flags: W
HStem: 537 209
VStem: 48 298
LayerCount: 2
Fore
SplineSet
123 656 m 1
 131 656 l 1
 168 621 l 1
 168 573 l 1
 131 537 l 1
 83 537 l 1
 48 573 l 1
 48 628 l 1
 138 746 l 1
 168 746 l 1
 123 656 l 1
311 656 m 1
 346 621 l 1
 346 573 l 1
 311 537 l 1
 262 537 l 1
 226 573 l 1
 226 628 l 1
 316 746 l 1
 346 746 l 1
 301 656 l 1
 311 656 l 1
EndSplineSet
Validated: 1
EndChar

StartChar: quotedblright
Encoding: 8221 8221 309
Width: 430
VWidth: 1661
Flags: W
HStem: 538 210
VStem: 47 119<663 713>
LayerCount: 2
Fore
SplineSet
311 748 m 1
 346 713 l 1
 346 656 l 1
 256 538 l 1
 226 538 l 1
 271 628 l 1
 261 628 l 1
 226 663 l 1
 226 713 l 1
 261 748 l 1
 311 748 l 1
81 748 m 1
 131 748 l 1
 166 713 l 1
 166 656 l 1
 76 538 l 1
 47 538 l 1
 91 628 l 1
 81 628 l 1
 47 663 l 1
 47 713 l 1
 81 748 l 1
EndSplineSet
Validated: 1
EndChar

StartChar: quotedblbase
Encoding: 8222 8222 310
Width: 431
VWidth: 1661
Flags: W
HStem: -90 210
VStem: 48 299
LayerCount: 2
Fore
SplineSet
83 120 m 1
 133 120 l 1
 168 83 l 1
 168 28 l 1
 78 -90 l 1
 48 -90 l 1
 93 0 l 1
 83 0 l 1
 48 35 l 1
 48 83 l 1
 83 120 l 1
312 120 m 1
 347 83 l 1
 347 28 l 1
 257 -90 l 1
 228 -90 l 1
 272 0 l 1
 262 0 l 1
 228 35 l 1
 228 83 l 1
 262 120 l 1
 312 120 l 1
EndSplineSet
Validated: 1
EndChar

StartChar: dagger
Encoding: 8224 8224 311
Width: 528
VWidth: 1661
Flags: W
HStem: -209 21G<221 281> 417 60<56 221 281 445> 636 20G<221 281>
VStem: 221 60<-209 417 477 656>
LayerCount: 2
Fore
SplineSet
281 477 m 1
 445 477 l 1
 445 417 l 1
 281 417 l 1
 281 -209 l 1
 221 -209 l 1
 221 417 l 1
 56 417 l 1
 56 477 l 1
 221 477 l 1
 221 656 l 1
 281 656 l 1
 281 477 l 1
EndSplineSet
Validated: 1
EndChar

StartChar: daggerdbl
Encoding: 8225 8225 312
Width: 528
VWidth: 1661
Flags: W
HStem: -209 21G<219 279> 178 60<55 219 279 442> 417 60<55 219 279 442> 636 20G<219 279>
VStem: 219 60<-209 178 238 417 477 656>
LayerCount: 2
Fore
SplineSet
442 417 m 1
 279 417 l 1
 279 238 l 1
 442 238 l 1
 442 178 l 1
 279 178 l 1
 279 -209 l 1
 219 -209 l 1
 219 178 l 1
 55 178 l 1
 55 238 l 1
 219 238 l 1
 219 417 l 1
 55 417 l 1
 55 477 l 1
 219 477 l 1
 219 656 l 1
 279 656 l 1
 279 477 l 1
 442 477 l 1
 442 417 l 1
EndSplineSet
Validated: 1
EndChar

StartChar: bullet
Encoding: 8226 8226 313
Width: 373
VWidth: 1661
Flags: W
HStem: 239 239<121 221>
VStem: 51 240<309 407>
LayerCount: 2
Fore
SplineSet
291 407 m 1
 291 309 l 1
 221 239 l 1
 121 239 l 1
 51 309 l 1
 51 407 l 1
 121 478 l 1
 221 478 l 1
 291 407 l 1
EndSplineSet
Validated: 1
EndChar

StartChar: ellipsis
Encoding: 8230 8230 314
Width: 789
VWidth: 1661
Flags: W
HStem: 0 120<83 133 352 402 621 671>
LayerCount: 2
Fore
SplineSet
83 120 m 1
 133 120 l 1
 168 83 l 1
 168 35 l 1
 133 0 l 1
 83 0 l 1
 48 35 l 1
 48 83 l 1
 83 120 l 1
352 120 m 1
 402 120 l 1
 437 83 l 1
 437 35 l 1
 402 0 l 1
 352 0 l 1
 317 35 l 1
 317 83 l 1
 352 120 l 1
671 120 m 1
 706 83 l 1
 706 35 l 1
 671 0 l 1
 621 0 l 1
 586 35 l 1
 586 83 l 1
 621 120 l 1
 671 120 l 1
EndSplineSet
Validated: 1
EndChar

StartChar: perthousand
Encoding: 8240 8240 315
Width: 976
VWidth: 1661
Flags: W
HStem: 0 21G<86 165.476> 60 53<439 512 738 811> 277 52<439 512 738 811> 389 53<140 213> 606 52<140 213>
VStem: 56 54<472 575> 244 52<472 575> 355 54<143 246> 543 52<143 246> 655 51<143 246> 841 53<143 246>
LayerCount: 2
Fore
SplineSet
234 389 m 1
 118 389 l 1
 56 450 l 1
 56 596 l 1
 118 658 l 1
 234 658 l 1
 296 596 l 1
 296 450 l 1
 234 389 l 1
110 575 m 1
 110 472 l 1
 140 442 l 1
 213 442 l 1
 244 472 l 1
 244 575 l 1
 213 606 l 1
 140 606 l 1
 110 575 l 1
417 329 m 1
 533 329 l 1
 595 267 l 1
 595 121 l 1
 533 60 l 1
 417 60 l 1
 355 121 l 1
 355 267 l 1
 417 329 l 1
543 143 m 1
 543 246 l 1
 512 277 l 1
 439 277 l 1
 409 246 l 1
 409 143 l 1
 439 113 l 1
 512 113 l 1
 543 143 l 1
832 329 m 1
 894 267 l 1
 894 121 l 1
 832 60 l 1
 716 60 l 1
 655 121 l 1
 655 267 l 1
 716 329 l 1
 832 329 l 1
841 143 m 1
 841 246 l 1
 811 277 l 1
 738 277 l 1
 706 246 l 1
 706 143 l 1
 738 113 l 1
 811 113 l 1
 841 143 l 1
498 718 m 1
 566 718 l 1
 154 0 l 1
 86 0 l 1
 498 718 l 1
EndSplineSet
Validated: 1
EndChar

StartChar: minute
Encoding: 8242 8242 316
Width: 229
VWidth: 1661
Flags: W
HStem: 565 149
VStem: 85 60<696.617 714>
LayerCount: 2
Fore
SplineSet
55 565 m 1
 85 714 l 1
 145 714 l 1
 85 565 l 1
 55 565 l 1
EndSplineSet
Validated: 1
EndChar

StartChar: second
Encoding: 8243 8243 317
Width: 320
VWidth: 1661
Flags: W
HStem: 566 150
VStem: 85 60<698.5 716> 174 60<698.5 716>
LayerCount: 2
Fore
SplineSet
55 566 m 1
 85 716 l 1
 145 716 l 1
 85 566 l 1
 55 566 l 1
174 716 m 1
 234 716 l 1
 174 566 l 1
 145 566 l 1
 174 716 l 1
EndSplineSet
Validated: 1
EndChar

StartChar: guilsinglleft
Encoding: 8249 8249 318
Width: 317
VWidth: 1661
Flags: W
VStem: 55 179
LayerCount: 2
Fore
SplineSet
234 389 m 1
 115 279 l 1
 115 271 l 1
 234 161 l 1
 234 81 l 1
 55 246 l 1
 55 306 l 1
 234 468 l 1
 234 389 l 1
EndSplineSet
Validated: 1
EndChar

StartChar: guilsinglright
Encoding: 8250 8250 319
Width: 317
VWidth: 1661
Flags: W
VStem: 55 179
LayerCount: 2
Fore
SplineSet
55 468 m 1
 234 304 l 1
 234 244 l 1
 55 81 l 1
 55 161 l 1
 174 271 l 1
 174 277 l 1
 55 389 l 1
 55 468 l 1
EndSplineSet
Validated: 1
EndChar

StartChar: fraction
Encoding: 8260 8260 320
Width: 616
VWidth: 1661
Flags: W
HStem: 0 21G<51 131.508> 696 20G<450.52 532>
LayerCount: 2
Fore
SplineSet
462 716 m 1
 532 716 l 1
 120 0 l 1
 51 0 l 1
 462 716 l 1
EndSplineSet
Validated: 1
EndChar

StartChar: Euro
Encoding: 8364 8364 321
Width: 735
VWidth: 1661
Flags: W
HStem: 0 60<228 537> 238 59<53 113 173 502> 417 60<53 113 173 502> 656 60<228 537>
VStem: 113 60<113 238 297 417 477 601> 591 60<113 148 566 601>
LayerCount: 2
Fore
SplineSet
651 566 m 1
 591 566 l 1
 591 601 l 1
 537 656 l 1
 228 656 l 1
 173 601 l 1
 173 477 l 1
 502 477 l 1
 502 417 l 1
 173 417 l 1
 173 297 l 1
 502 297 l 1
 502 238 l 1
 173 238 l 1
 173 113 l 1
 228 60 l 1
 537 60 l 1
 591 113 l 1
 591 148 l 1
 651 148 l 1
 651 90 l 1
 561 0 l 1
 203 0 l 1
 113 88 l 1
 113 238 l 1
 53 238 l 1
 53 297 l 1
 113 297 l 1
 113 417 l 1
 53 417 l 1
 53 477 l 1
 113 477 l 1
 113 626 l 1
 203 716 l 1
 561 716 l 1
 651 626 l 1
 651 566 l 1
EndSplineSet
Validated: 1
EndChar

StartChar: uni2113
Encoding: 8467 8467 322
Width: 408
VWidth: 1661
Flags: W
HStem: 0 60<229 324>
VStem: 115 59<115 239 384 658> 234 60<444 603>
LayerCount: 2
Fore
SplineSet
229 60 m 1
 324 60 l 1
 324 0 l 1
 204 0 l 1
 115 90 l 1
 115 239 l 1
 86 211 l 1
 43 253 l 1
 115 324 l 1
 115 718 l 1
 204 718 l 1
 294 628 l 1
 294 419 l 1
 174 299 l 1
 174 115 l 1
 229 60 l 1
174 658 m 1
 174 384 l 1
 234 444 l 1
 234 603 l 1
 179 658 l 1
 174 658 l 1
EndSplineSet
Validated: 1
EndChar

StartChar: trademark
Encoding: 8482 8482 323
Width: 913
VWidth: 1661
Flags: W
HStem: 664 52<60 179 231 351>
VStem: 179 52<306 664> 419 51<306 591 669.557 716> 776 53<306 588 667.807 716>
LayerCount: 2
Fore
SplineSet
776 588 m 1
 757 541 651 306 651 306 c 1
 596 306 l 1
 470 591 l 1
 470 306 l 1
 419 306 l 1
 419 716 l 1
 472 716 l 1
 483 688 481 693 496 660 c 2
 625 372 l 1
 752 662 l 2
 771 705 776 711 776 716 c 1
 829 716 l 1
 829 306 l 1
 777 306 l 1
 777 320 776 363 776 449 c 2
 776 588 l 1
351 716 m 1
 351 664 l 1
 231 664 l 1
 231 306 l 1
 179 306 l 1
 179 664 l 1
 60 664 l 1
 60 716 l 1
 351 716 l 1
EndSplineSet
Validated: 1
EndChar

StartChar: Ohm
Encoding: 8486 8486 324
Width: 707
VWidth: 1661
Flags: W
HStem: 0 60<55 204 473 623> 598 60<199 478>
VStem: 85 60<264 543> 204 60<60 120> 414 59<60 120> 533 60<264 543>
LayerCount: 2
Fore
SplineSet
473 60 m 1
 623 60 l 1
 623 0 l 1
 414 0 l 1
 414 145 l 1
 533 264 l 1
 533 543 l 1
 478 598 l 1
 199 598 l 1
 145 543 l 1
 145 264 l 1
 264 145 l 1
 264 0 l 1
 55 0 l 1
 55 60 l 1
 204 60 l 1
 204 120 l 1
 85 239 l 1
 85 568 l 1
 174 658 l 1
 503 658 l 1
 593 568 l 1
 593 239 l 1
 473 120 l 1
 473 60 l 1
EndSplineSet
Validated: 1
EndChar

StartChar: estimated
Encoding: 8494 8494 325
Width: 377
VWidth: 1661
Flags: W
HStem: 0 21G<121.444 221> 269 60<111 231>
VStem: 53 58<115 269 329 454> 231 60<115 150 329 454>
LayerCount: 2
Fore
SplineSet
291 269 m 1
 111 269 l 1
 111 115 l 1
 166 60 l 1
 176 60 l 1
 231 115 l 1
 231 150 l 1
 291 150 l 1
 291 90 l 1
 201 0 l 1
 141 0 l 1
 53 90 l 1
 51 478 l 1
 141 568 l 1
 203 568 l 1
 291 478 l 1
 291 269 l 1
111 329 m 1
 231 329 l 1
 231 454 l 1
 178 508 l 1
 166 508 l 1
 111 454 l 1
 111 329 l 1
EndSplineSet
Validated: 1
EndChar

StartChar: partialdiff
Encoding: 8706 8706 326
Width: 375
VWidth: 1661
Flags: W
HStem: 0 21G<123 222.778> 299 60<168 233>
VStem: 53 60<115 244 419 454> 233 59<115 299 359 454>
LayerCount: 2
Fore
SplineSet
292 478 m 1
 292 90 l 1
 203 0 l 1
 143 0 l 1
 53 90 l 1
 53 269 l 1
 143 359 l 1
 233 359 l 1
 233 454 l 1
 178 508 l 1
 168 508 l 1
 113 454 l 1
 113 419 l 1
 53 419 l 1
 53 478 l 1
 143 568 l 1
 203 568 l 1
 292 478 l 1
178 60 m 1
 233 115 l 1
 233 299 l 1
 168 299 l 1
 113 244 l 1
 113 115 l 1
 168 60 l 1
 178 60 l 1
EndSplineSet
Validated: 1
EndChar

StartChar: Delta
Encoding: 8710 8710 327
Width: 701
VWidth: 1661
Flags: W
HStem: 0 60<115 548> 478 60<324 341>
LayerCount: 2
Fore
SplineSet
377 538 m 1
 616 60 l 1
 616 0 l 1
 48 0 l 1
 48 60 l 1
 287 538 l 1
 377 538 l 1
115 60 m 1
 548 60 l 1
 341 478 l 1
 324 478 l 1
 115 60 l 1
EndSplineSet
Validated: 1
EndChar

StartChar: product
Encoding: 8719 8719 328
Width: 647
VWidth: 1661
Flags: W
HStem: -209 21G<56 116 505 565> 658 60<116 505>
VStem: 56 60<-209 658> 505 60<-209 658>
LayerCount: 2
Fore
SplineSet
116 -209 m 1
 56 -209 l 1
 56 718 l 1
 565 718 l 1
 565 -209 l 1
 505 -209 l 1
 505 658 l 1
 116 658 l 1
 116 -209 l 1
EndSplineSet
Validated: 1
EndChar

StartChar: summation
Encoding: 8721 8721 329
Width: 616
VWidth: 1661
Flags: W
HStem: 0 60<113 532> 658 60<113 532>
VStem: 53 60<60 126 591 658>
LayerCount: 2
Fore
SplineSet
532 658 m 1
 113 658 l 1
 113 591 l 1
 334 359 l 1
 113 126 l 1
 113 60 l 1
 532 60 l 1
 532 0 l 1
 53 0 l 1
 53 150 l 1
 251 359 l 1
 53 568 l 1
 53 718 l 1
 532 718 l 1
 532 658 l 1
EndSplineSet
Validated: 1
EndChar

StartChar: minus
Encoding: 8722 8722 330
Width: 672
VWidth: 1661
Flags: W
HStem: 326 59<51 588>
LayerCount: 2
Fore
SplineSet
588 326 m 1
 51 326 l 1
 51 385 l 1
 588 385 l 1
 588 326 l 1
EndSplineSet
Validated: 1
EndChar

StartChar: radical
Encoding: 8730 8730 331
Width: 651
VWidth: 1661
Flags: W
HStem: 0 21G<228.469 304.493> 239 60<56 146>
LayerCount: 2
Fore
SplineSet
503 718 m 1
 566 718 l 1
 297 0 l 1
 236 0 l 1
 146 239 l 1
 56 239 l 1
 56 299 l 1
 188 299 l 1
 266 90 l 1
 503 718 l 1
EndSplineSet
Validated: 1
EndChar

StartChar: infinity
Encoding: 8734 8734 332
Width: 913
VWidth: 1661
Flags: W
HStem: 163 60<211 292 588 669> 492 60<211 292 588 671>
VStem: 51 60<322 392> 769 60<322 394>
LayerCount: 2
Fore
SplineSet
694 552 m 1
 829 417 l 1
 829 297 l 1
 694 163 l 1
 560 163 l 1
 440 311 l 1
 321 163 l 1
 186 163 l 1
 51 297 l 1
 51 417 l 1
 186 552 l 1
 321 552 l 1
 440 405 l 1
 560 552 l 1
 694 552 l 1
292 223 m 1
 402 357 l 1
 292 492 l 1
 211 492 l 1
 111 392 l 1
 111 322 l 1
 211 223 l 1
 292 223 l 1
769 322 m 1
 769 394 l 1
 671 492 l 1
 588 492 l 1
 478 357 l 1
 588 223 l 1
 669 223 l 1
 769 322 l 1
EndSplineSet
Validated: 1
EndChar

StartChar: integral
Encoding: 8747 8747 333
Width: 559
VWidth: 1661
Flags: W
HStem: 0 60<0 91> 658 60<387 478>
LayerCount: 2
Fore
SplineSet
387 658 m 1
 322 603 l 1
 213 90 l 1
 103 0 l 1
 0 0 l 1
 0 60 l 1
 91 60 l 1
 158 115 l 1
 267 628 l 1
 375 718 l 1
 478 718 l 1
 478 658 l 1
 387 658 l 1
EndSplineSet
Validated: 1
EndChar

StartChar: approxequal
Encoding: 8776 8776 334
Width: 661
VWidth: 1661
Flags: W
HStem: 206 299
LayerCount: 2
Fore
SplineSet
188 440 m 1
 80 379 l 1
 50 430 l 1
 179 505 l 1
 440 435 l 1
 548 498 l 1
 578 447 l 1
 449 370 l 1
 188 440 l 1
440 271 m 1
 548 334 l 1
 578 281 l 1
 449 206 l 1
 188 276 l 1
 80 213 l 1
 50 264 l 1
 179 341 l 1
 440 271 l 1
EndSplineSet
Validated: 1
EndChar

StartChar: notequal
Encoding: 8800 8800 335
Width: 495
VWidth: 1661
Flags: W
HStem: 0 21G<128 192.246> 179 60<53 166 238 412> 374 60<53 208 279 412>
LayerCount: 2
Fore
SplineSet
412 374 m 1
 267 374 l 1
 238 239 l 1
 412 239 l 1
 412 179 l 1
 226 179 l 1
 188 0 l 1
 128 0 l 1
 166 179 l 1
 53 179 l 1
 53 239 l 1
 178 239 l 1
 208 374 l 1
 53 374 l 1
 53 434 l 1
 219 434 l 1
 254 598 l 1
 314 598 l 1
 279 434 l 1
 412 434 l 1
 412 374 l 1
EndSplineSet
Validated: 1
EndChar

StartChar: lessequal
Encoding: 8804 8804 336
Width: 672
VWidth: 1661
Flags: W
HStem: 0 60<50 588>
LayerCount: 2
Fore
SplineSet
50 0 m 1
 50 60 l 1
 588 60 l 1
 588 0 l 1
 50 0 l 1
588 533 m 1
 110 360 l 1
 110 355 l 1
 588 183 l 1
 588 120 l 1
 50 314 l 1
 50 404 l 1
 588 598 l 1
 588 533 l 1
EndSplineSet
Validated: 1
EndChar

StartChar: greaterequal
Encoding: 8805 8805 337
Width: 671
VWidth: 1661
Flags: W
HStem: 0 60<50 588>
LayerCount: 2
Fore
SplineSet
50 0 m 1
 50 60 l 1
 588 60 l 1
 588 0 l 1
 50 0 l 1
50 598 m 1
 588 404 l 1
 588 314 l 1
 50 120 l 1
 50 183 l 1
 528 355 l 1
 528 360 l 1
 50 533 l 1
 50 598 l 1
EndSplineSet
Validated: 1
EndChar

StartChar: lozenge
Encoding: 9674 9674 338
Width: 566
VWidth: 1661
Flags: W
HStem: 0 60<254 271> 628 60<254 271>
LayerCount: 2
Fore
SplineSet
307 688 m 1
 478 344 l 1
 307 0 l 1
 218 0 l 1
 47 344 l 1
 218 688 l 1
 307 688 l 1
271 60 m 1
 412 344 l 1
 271 628 l 1
 254 628 l 1
 113 344 l 1
 254 60 l 1
 271 60 l 1
EndSplineSet
Validated: 1
EndChar

StartChar: dottedcircle
Encoding: 9676 9676 339
Width: 850
VWidth: 1661
Flags: W
HStem: 0 21G<364 453.429> 88 120<173 223 595 645> 299 120<85 135 683 733> 510 120<173 223 595 645>
VStem: 50 119<334 384> 138 119<123 173 545 595> 349 119<35 85 633 683> 560 119<123 173 545 595> 648 119<334 384>
LayerCount: 2
Fore
SplineSet
384 718 m 1xf2
 434 718 l 1
 468 683 l 1
 468 633 l 1
 434 598 l 1
 384 598 l 1
 349 633 l 1
 349 683 l 1
 384 718 l 1xf2
384 120 m 1
 434 120 l 1
 468 85 l 1
 468 35 l 1
 434 0 l 1
 384 0 l 1
 349 35 l 1
 349 85 l 1
 384 120 l 1
169 384 m 1xfa
 169 334 l 1
 135 299 l 1
 85 299 l 1
 50 334 l 1
 50 384 l 1
 85 419 l 1
 135 419 l 1
 169 384 l 1xfa
733 419 m 1
 767 384 l 1
 767 334 l 1
 733 299 l 1
 683 299 l 1
 648 334 l 1
 648 384 l 1xf280
 683 419 l 1
 733 419 l 1
223 208 m 1
 257 173 l 1
 257 123 l 1
 223 88 l 1
 173 88 l 1
 138 123 l 1
 138 173 l 1xf6
 173 208 l 1
 223 208 l 1
595 510 m 1
 560 545 l 1
 560 595 l 1
 595 630 l 1
 645 630 l 1
 679 595 l 1
 679 545 l 1xf3
 645 510 l 1
 595 510 l 1
595 208 m 1
 645 208 l 1
 679 173 l 1
 679 123 l 1
 645 88 l 1
 595 88 l 1
 560 123 l 1
 560 173 l 1
 595 208 l 1
173 630 m 1
 223 630 l 1
 257 595 l 1
 257 545 l 1
 223 510 l 1
 173 510 l 1
 138 545 l 1
 138 595 l 1xf6
 173 630 l 1
EndSplineSet
Validated: 1
EndChar

StartChar: uni0E10.alt1
Encoding: 63232 63232 340
Width: 616
VWidth: 1661
Flags: W
HStem: 0 21G<472 532> 178 53<256 299> 336 51<256 299> 596 60<168 532>
VStem: 173 51<261 304> 472 60<0 163 236 409>
LayerCount: 2
Fore
SplineSet
532 596 m 1
 168 596 l 1
 116 547 l 1
 532 449 l 1
 532 0 l 1
 472 0 l 1
 472 163 l 1
 382 253 l 1
 382 239 l 1
 321 178 l 1
 234 178 l 1
 173 239 l 1
 173 326 l 1
 234 387 l 1
 321 387 l 1
 472 236 l 1
 472 409 l 1
 53 507 l 1
 53 566 l 1
 143 656 l 1
 532 656 l 1
 532 596 l 1
329 261 m 1
 329 304 l 1
 299 336 l 1
 256 336 l 1
 224 304 l 1
 224 261 l 1
 256 231 l 1
 299 231 l 1
 329 261 l 1
EndSplineSet
Validated: 1
EndChar

StartChar: uni0E48.alt2
Encoding: 63242 63242 350
Width: 0
VWidth: 1661
Flags: W
HStem: 756 239<-136 -85>
VStem: -136 51<756 995>
LayerCount: 2
Fore
SplineSet
-85 995 m 1
 -85 756 l 1
 -136 756 l 1
 -136 995 l 1
 -85 995 l 1
EndSplineSet
Validated: 1
Substitution2: "Single Substitution lookup 20 subtable" uni0E48.alt3
Substitution2: "Single Substitution lookup 21 subtable" uni0E48
Substitution2: "Single Substitution lookup 22 subtable" uni0E48.alt1
Substitution2: "Single Substitution lookup 20 subtable" uni0E48.alt3
Substitution2: "Single Substitution lookup 21 subtable" uni0E48
Substitution2: "Single Substitution lookup 22 subtable" uni0E48.alt1
EndChar

StartChar: uni0E49.alt2
Encoding: 63243 63243 351
Width: 0
VWidth: 1661
Flags: W
HStem: 756 51<-292 -243.052 -184 -103> 942 51<-219 -191>
VStem: -292 53<894 922> -171 51<894 922>
LayerCount: 2
Fore
SplineSet
-257 807 m 1
 -252 813 -244 823 -243 824 c 1
 -292 872 l 1
 -292 944 l 1
 -243 993 l 1
 -169 993 l 1
 -120 945 l 1
 -120 872 l 1
 -184 807 l 1
 -103 807 l 1
 56 968 l 1
 95 930 l 1
 -83 756 l 1
 -292 756 l 1
 -292 807 l 1
 -257 807 l 1
-239 922 m 1
 -239 894 l 1
 -219 874 l 1
 -191 874 l 1
 -171 894 l 1
 -171 922 l 1
 -191 942 l 1
 -219 942 l 1
 -239 922 l 1
EndSplineSet
Validated: 1
Substitution2: "Single Substitution lookup 20 subtable" uni0E49.alt3
Substitution2: "Single Substitution lookup 21 subtable" uni0E49
Substitution2: "Single Substitution lookup 22 subtable" uni0E49.alt1
Substitution2: "Single Substitution lookup 20 subtable" uni0E49.alt3
Substitution2: "Single Substitution lookup 21 subtable" uni0E49
Substitution2: "Single Substitution lookup 22 subtable" uni0E49.alt1
EndChar

StartChar: uni0E4A.alt2
Encoding: 63244 63244 352
Width: 0
VWidth: 1661
Flags: W
HStem: 794 50<-234 -204> 912 53<-234 -206>
VStem: -304 50<864 892>
LayerCount: 2
Fore
SplineSet
76 972 m 1
 113 935 l 1
 -66 754 l 1
 -103 792 l 1
 -45 851 l 1
 -85 890 l 1
 -183 794 l 1
 -256 794 l 1
 -304 842 l 1
 -304 915 l 1
 -256 965 l 1
 -183 965 l 1
 -135 915 l 1
 -85 963 l 1
 -8 887 l 1
 76 972 l 1
-234 844 m 1
 -204 844 l 1
 -204 845 -202 848 -199 851 c 2
 -186 864 l 1
 -186 892 l 1
 -206 912 l 1
 -234 912 l 1
 -254 892 l 1
 -254 864 l 1
 -234 844 l 1
EndSplineSet
Validated: 1
Substitution2: "Single Substitution lookup 20 subtable" uni0E4A.alt3
Substitution2: "Single Substitution lookup 21 subtable" uni0E4A
Substitution2: "Single Substitution lookup 22 subtable" uni0E4A.alt1
Substitution2: "Single Substitution lookup 20 subtable" uni0E4A.alt3
Substitution2: "Single Substitution lookup 21 subtable" uni0E4A
Substitution2: "Single Substitution lookup 22 subtable" uni0E4A.alt1
EndChar

StartChar: uni0E4B.alt2
Encoding: 63245 63245 353
Width: 0
VWidth: 1661
Flags: W
HStem: 849 53<-229 -136 -83 10>
VStem: -136 53<756 849 902 995>
LayerCount: 2
Fore
SplineSet
10 902 m 1
 10 849 l 1
 -83 849 l 1
 -83 756 l 1
 -136 756 l 1
 -136 849 l 1
 -229 849 l 1
 -229 902 l 1
 -136 902 l 1
 -136 995 l 1
 -83 995 l 1
 -83 902 l 1
 10 902 l 1
EndSplineSet
Validated: 1
Substitution2: "Single Substitution lookup 20 subtable" uni0E4B.alt3
Substitution2: "Single Substitution lookup 21 subtable" uni0E4B
Substitution2: "Single Substitution lookup 22 subtable" uni0E4B.alt1
Substitution2: "Single Substitution lookup 20 subtable" uni0E4B.alt3
Substitution2: "Single Substitution lookup 21 subtable" uni0E4B
Substitution2: "Single Substitution lookup 22 subtable" uni0E4B.alt1
EndChar

StartChar: uni0E4C.alt2
Encoding: 63246 63246 354
Width: 0
VWidth: 1661
Flags: W
HStem: 756 51<-189 -159>
VStem: -264 53<829 861> -136 51<829 861>
LayerCount: 2
Fore
SplineSet
-85 882 m 1
 -85 807 l 1
 -136 756 l 1
 -211 756 l 1
 -264 807 l 1
 -264 882 l 1
 -61 1085 l 1
 -25 1048 l 1
 -138 935 l 1
 -85 882 l 1
-136 829 m 1
 -136 861 l 1
 -159 882 l 1
 -189 882 l 1
 -211 861 l 1
 -211 829 l 1
 -189 807 l 1
 -159 807 l 1
 -136 829 l 1
EndSplineSet
Validated: 1
Substitution2: "Single Substitution lookup 20 subtable" uni0E4C.alt3
Substitution2: "Single Substitution lookup 21 subtable" uni0E4C
Substitution2: "Single Substitution lookup 22 subtable" uni0E4C.alt1
Substitution2: "Single Substitution lookup 20 subtable" uni0E4C.alt3
Substitution2: "Single Substitution lookup 21 subtable" uni0E4C
Substitution2: "Single Substitution lookup 22 subtable" uni0E4C.alt1
EndChar

StartChar: uni0E0D.alt1
Encoding: 63247 63247 355
Width: 945
VWidth: 1661
Flags: W
HStem: 0 60<561 746> 0 51<166 209> 156 53<166 209> 598 60<168 447>
VStem: 83 60<208 382> 83 53<83 126> 241 51<83 126> 502 59<60 543> 801 60<115 658>
LayerCount: 2
Fore
SplineSet
801 658 m 1xbb80
 861 658 l 1
 861 90 l 1
 771 0 l 1
 502 0 l 1
 502 543 l 1
 447 598 l 1
 168 598 l 1
 138 568 l 1
 233 472 l 1
 143 382 l 1
 143 208 l 1x7b80
 145 209 l 1
 231 209 l 1
 292 148 l 1
 292 61 l 1
 231 0 l 1
 145 0 l 1
 83 61 l 1
 83 407 l 1x7780
 148 472 l 1
 53 566 l 1
 53 568 l 1
 143 658 l 1
 472 658 l 1
 561 568 l 1
 561 60 l 1
 746 60 l 1
 801 115 l 1
 801 658 l 1xbb80
166 156 m 1
 136 126 l 1
 136 83 l 1x7780
 166 51 l 1
 209 51 l 1
 241 83 l 1
 241 126 l 1
 209 156 l 1
 166 156 l 1
EndSplineSet
Validated: 1
EndChar

StartChar: uni0E0E.alt1
Encoding: 63259 63259 367
Width: 744
VWidth: 1661
Flags: W
HStem: -299 60<266 450> -150 60<266 450> 0 51<115 158> 156 53<115 158> 598 60<266 545>
VStem: 32 53<83 126> 181 60<-214 -174 208 384> 189 52<83 126> 600 59<-214 543>
LayerCount: 2
Fore
SplineSet
659 568 m 1xfd80
 659 -299 l 1
 600 -299 l 1
 538 -236 l 1
 475 -299 l 1
 241 -299 l 1xfd80
 181 -239 l 1
 181 -150 l 1xfe80
 241 -90 l 1xfd80
 475 -90 l 1
 600 -214 l 1
 600 543 l 1
 545 598 l 1
 266 598 l 1
 236 568 l 1
 331 473 l 1
 241 384 l 1xfe80
 241 61 l 1xfd80
 179 0 l 1
 93 0 l 1
 32 61 l 1
 32 148 l 1
 93 209 l 1
 179 209 l 1
 181 208 l 1
 181 407 l 1xfe80
 246 473 l 1
 151 568 l 1
 241 658 l 1
 570 658 l 1
 659 568 l 1xfd80
189 126 m 1
 158 156 l 1
 115 156 l 1
 85 126 l 1
 85 83 l 1
 115 51 l 1
 158 51 l 1
 189 83 l 1
 189 126 l 1
495 -194 m 1
 450 -150 l 1
 266 -150 l 1
 241 -174 l 1
 241 -214 l 1xfe80
 266 -239 l 1
 450 -239 l 1
 495 -194 l 1
EndSplineSet
Validated: 1
EndChar

StartChar: uni0E0F.alt1
Encoding: 63260 63260 368
Width: 742
VWidth: 1661
Flags: W
HStem: -297 59<266 324> -148 58<266 324> 0 53<115 158> 158 51<115 158> 598 60<266 545>
VStem: 32 51<83 126> 181 60<-213 -173 208 384> 188 53<83 126> 600 59<-214 543>
LayerCount: 2
Fore
SplineSet
659 568 m 1xfd80
 659 -297 l 1
 598 -297 l 1
 537 -236 l 1
 473 -299 l 1
 412 -236 l 1
 349 -297 l 1
 241 -297 l 1xfd80
 181 -238 l 1
 181 -148 l 1xfe80
 241 -90 l 1xfd80
 349 -90 l 1
 473 -214 l 1
 537 -151 l 1
 600 -214 l 1
 600 543 l 1
 545 598 l 1
 266 598 l 1
 236 568 l 1
 331 473 l 1
 241 384 l 1xfe80
 241 61 l 1xfd80
 179 0 l 1
 93 0 l 1
 32 61 l 1
 32 148 l 1
 93 209 l 1
 179 209 l 1
 181 208 l 1
 181 409 l 1xfe80
 246 473 l 1
 151 568 l 1
 241 658 l 1
 570 658 l 1
 659 568 l 1xfd80
188 126 m 1
 158 158 l 1
 115 158 l 1
 83 126 l 1
 83 83 l 1
 115 53 l 1
 158 53 l 1
 188 83 l 1
 188 126 l 1
369 -193 m 1
 324 -148 l 1
 266 -148 l 1
 241 -173 l 1
 241 -213 l 1xfe80
 266 -238 l 1
 324 -238 l 1
 369 -193 l 1
EndSplineSet
Validated: 1
EndChar

StartChar: uni0E2C.alt1
Encoding: 63261 63261 369
Width: 742
VWidth: 1661
Flags: W
HStem: 0 21G<181 252.401 588.535 659> 449 53<115 158> 478 54<533 576> 606 52<115 158> 636 52<533 576>
VStem: 32 53<532 575> 181 60<106 450> 189 52<532 575> 450 52<561 605> 600 59<106 480>
LayerCount: 2
Fore
SplineSet
734 689 m 1xaec0
 772 653 l 1
 659 540 l 1
 659 0 l 1
 600 0 l 1
 420 314 l 1
 241 0 l 1xadc0
 181 0 l 1
 181 450 l 1xaec0
 179 449 l 1
 93 449 l 1
 32 510 l 1
 32 596 l 1
 93 658 l 1
 179 658 l 1
 241 596 l 1xd5c0
 241 106 l 1
 420 419 l 1
 600 106 l 1
 600 480 l 1
 598 478 l 1
 512 478 l 1
 450 540 l 1
 450 626 l 1
 512 688 l 1
 598 688 l 1
 659 626 l 1
 659 613 l 1
 734 689 l 1xaec0
158 502 m 1xc5c0
 189 532 l 1
 189 575 l 1
 158 606 l 1
 115 606 l 1
 85 575 l 1
 85 532 l 1xb5c0
 115 502 l 1
 158 502 l 1xc5c0
576 532 m 1
 606 561 l 1
 606 605 l 1
 576 636 l 1
 533 636 l 1xacc0
 502 605 l 1
 502 561 l 1
 533 532 l 1
 576 532 l 1
EndSplineSet
Validated: 1
EndChar

StartChar: uni0E24.liga
Encoding: 63617 63617 371
Width: 1033
VWidth: 1661
Flags: W
HStem: 0 51<166 209> 156 53<166 209> 598 60<168 447 616 836>
VStem: 83 60<208 382> 83 52<83 126> 239 53<83 126> 502 59<-299 543> 889 60<-299 543>
LayerCount: 2
Fore
SplineSet
861 658 m 1xf7
 949 568 l 1
 949 -299 l 1
 889 -299 l 1
 889 543 l 1
 836 598 l 1
 616 598 l 1
 561 543 l 1
 561 -299 l 1
 502 -299 l 1
 502 543 l 1
 447 598 l 1
 168 598 l 1
 138 566 l 1
 233 472 l 1
 143 382 l 1
 143 208 l 1xf7
 145 209 l 1
 231 209 l 1
 292 148 l 1
 292 61 l 1
 231 0 l 1
 145 0 l 1
 83 61 l 1
 83 407 l 1xef
 148 472 l 1
 53 568 l 1
 143 658 l 1
 472 658 l 1
 532 598 l 1
 591 658 l 1
 861 658 l 1xf7
166 156 m 1
 135 126 l 1
 135 83 l 1xef
 166 51 l 1
 209 51 l 1
 239 83 l 1
 239 126 l 1
 209 156 l 1
 166 156 l 1
EndSplineSet
Validated: 1
LCarets2: 1 0 
Ligature2: "'liga' Standard Ligatures in Latin lookup 19 subtable" uni0E24 uni0E45
Ligature2: "'liga' Standard Ligatures in Latin lookup 19 subtable" uni0E24 uni0E32
EndChar

StartChar: uni0E26.liga
Encoding: 63618 63618 372
Width: 1131
VWidth: 1661
Flags: W
HStem: 0 53<113 158> 158 51<113 158> 598 60<264 545 713 932>
VStem: 32 51<83 126> 181 58<208 384> 188 51<83 126> 598 60<-299 543> 987 60<-299 543>
LayerCount: 2
Fore
SplineSet
957 658 m 1xfb
 1047 568 l 1
 1047 -299 l 1
 987 -299 l 1
 987 543 l 1
 932 598 l 1
 713 598 l 1
 658 543 l 1
 658 -299 l 1
 598 -299 l 1
 598 543 l 1
 545 598 l 1
 264 598 l 1
 234 568 l 1
 329 473 l 1
 239 384 l 1xfb
 239 61 l 1xf7
 179 0 l 1
 91 0 l 1
 32 61 l 1
 32 148 l 1
 91 209 l 1
 179 209 l 1
 181 208 l 1
 181 409 l 1
 246 473 l 1
 151 568 l 1
 241 658 l 1
 568 658 l 1
 628 598 l 1
 688 658 l 1
 957 658 l 1xfb
188 83 m 1xf7
 188 126 l 1
 158 158 l 1
 113 158 l 1
 83 126 l 1
 83 83 l 1
 113 53 l 1
 158 53 l 1
 188 83 l 1xf7
EndSplineSet
Validated: 1
LCarets2: 1 0 
Ligature2: "'liga' Standard Ligatures in Latin lookup 19 subtable" uni0E26 uni0E45
Ligature2: "'liga' Standard Ligatures in Latin lookup 19 subtable" uni0E26 uni0E32
EndChar

StartChar: fi
Encoding: 64257 64257 373
Width: 406
VWidth: 1661
Flags: W
HStem: 0 21G<53 113 262 322> 389 60<113 262> 658 60<168 262>
VStem: 53 60<0 389 449 603> 262 60<0 389>
LayerCount: 2
Fore
SplineSet
113 449 m 1
 322 449 l 1
 322 0 l 1
 262 0 l 1
 262 389 l 1
 113 389 l 1
 113 0 l 1
 53 0 l 1
 53 628 l 1
 143 718 l 1
 262 718 l 1
 262 658 l 1
 168 658 l 1
 113 603 l 1
 113 449 l 1
EndSplineSet
Validated: 1
LCarets2: 1 0 
Ligature2: "'liga' Standard Ligatures in Latin lookup 19 subtable" f i
EndChar

StartChar: fl
Encoding: 64258 64258 374
Width: 406
VWidth: 1661
Flags: W
HStem: 0 21G<53 113 262 322> 389 60<113 203> 658 60<168 262>
VStem: 53 60<0 389 449 603> 262 60<0 658>
LayerCount: 2
Fore
SplineSet
53 628 m 1
 143 718 l 1
 322 718 l 1
 322 0 l 1
 262 0 l 1
 262 658 l 1
 168 658 l 1
 113 603 l 1
 113 449 l 1
 203 449 l 1
 203 389 l 1
 113 389 l 1
 113 0 l 1
 53 0 l 1
 53 628 l 1
EndSplineSet
Validated: 1
LCarets2: 1 0 
Ligature2: "'liga' Standard Ligatures in Latin lookup 19 subtable" f l
EndChar

StartChar: CHAKRA
Encoding: 65541 -1 375
Width: 2348
VWidth: 1661
Flags: W
HStem: 0 17<894 914 1196 1218 1375 1395> 169 55<877 914> 208 16<678 694 753 789 935 972 1002 1038 1121 1143 1292 1304 1483 1500 1558 1595> 253 21<1209 1379> 302 30<158 213 756 811 968 997 1209 1238 1351 1379 1625 1678 1766 1777 2106 2165 2248 2264> 543 30<781 811 897 927> 560 30<158 188 1209 1243> 615 28<71 213 341 370 457 512 640 669 1027 1080 1126 1379 1508 1537 1807 1866 1993 2023> 689 54<213 299> 689 25<299 382>
VStem: 71 87<332 560> 213 86<332 615 714 743> 370 87<302 615> 512 86<302 615> 669 87<332 615> 694 59<0 208> 789 58<0 208> 811 86<332 543 573 643> 877 58<186 208> 914 58<17 169> 997 83<332 560> 1038 55<0 208> 1126 83<332 560> 1143 53<17 208> 1321 133<0 85.6471> 1379 88<332 615 643 701> 1395 59<17 261> 1500 58<0 208> 1537 88<332 615> 1595 58<0 208> 1678 88<291 302 332 643> 1866 83<302 615> 2023 83<332 615> 2165 83<291 302 332 643>
LayerCount: 2
Fore
SplineSet
299 302 m 1x9b3c0003c0
 71 302 l 1
 71 590 l 1
 188 590 l 1
 188 560 l 1
 158 560 l 1
 158 332 l 1
 213 332 l 1
 213 615 l 1
 71 615 l 1
 71 643 l 1
 299 643 l 1
 299 302 l 1x9b3c0003c0
382 714 m 1x997c0003c0
 382 689 l 1x997c0003c0
 213 689 l 1
 213 743 l 1
 299 743 l 1x99bc0003c0
 299 714 l 1
 382 714 l 1x997c0003c0
598 643 m 1
 598 302 l 1
 512 302 l 1
 512 615 l 1
 457 615 l 1
 457 302 l 1
 370 302 l 1
 370 615 l 1
 341 615 l 1
 341 643 l 1
 598 643 l 1
897 543 m 1x9d3e4003c0
 897 302 l 1
 669 302 l 1
 669 615 l 1
 640 615 l 1
 640 643 l 1
 756 643 l 1
 756 332 l 1
 811 332 l 1
 811 543 l 1
 781 543 l 1
 781 573 l 1
 811 573 l 1
 811 643 l 1
 897 643 l 1
 897 573 l 1
 927 573 l 1
 927 543 l 1
 897 543 l 1x9d3e4003c0
1080 302 m 1x9b3c0803c0
 968 302 l 1
 968 332 l 1
 997 332 l 1
 997 560 l 1
 939 560 l 1
 939 643 l 1
 1080 643 l 1
 1080 615 l 1
 1027 615 l 1
 1027 590 l 1
 1080 590 l 1
 1080 302 l 1x9b3c0803c0
1467 701 m 1x9b3c0243c0
 1467 302 l 1
 1267 302 l 1
 1243 560 l 1
 1209 560 l 1
 1209 332 l 1
 1238 332 l 1
 1238 302 l 1
 1126 302 l 1
 1126 590 l 1
 1326 590 l 1
 1351 332 l 1
 1379 332 l 1
 1379 615 l 1
 1126 615 l 1
 1126 643 l 1
 1379 643 l 1
 1379 701 l 1
 1467 701 l 1x9b3c0243c0
1777 302 m 1
 1766 302 l 1
 1766 291 l 1
 1678 291 l 1
 1678 302 l 1
 1537 302 l 1
 1537 615 l 1
 1508 615 l 1
 1508 643 l 1
 1625 643 l 1
 1625 332 l 1x993c000bc0
 1678 332 l 1
 1678 643 l 1
 1766 643 l 1
 1766 332 l 1
 1777 332 l 1
 1777 302 l 1
1949 643 m 1
 1949 302 l 1
 1866 302 l 1
 1866 615 l 1
 1807 615 l 1
 1807 643 l 1
 1949 643 l 1
2264 302 m 1
 2248 302 l 1
 2248 291 l 1
 2165 291 l 1
 2165 302 l 1
 2023 302 l 1
 2023 615 l 1
 1993 615 l 1
 1993 643 l 1
 2106 643 l 1
 2106 332 l 1
 2165 332 l 1
 2165 643 l 1
 2248 643 l 1
 2248 332 l 1
 2264 332 l 1
 2264 302 l 1
847 224 m 1xb93d8003c0
 847 0 l 1
 789 0 l 1
 789 208 l 1
 753 208 l 1
 753 0 l 1
 694 0 l 1
 694 208 l 1
 678 208 l 1
 678 224 l 1
 847 224 l 1xb93d8003c0
972 0 m 1xb93c1003c0
 894 0 l 1
 894 17 l 1
 914 17 l 1
 914 169 l 1xd93c1003c0
 877 169 l 1
 877 224 l 1xd93c2003c0
 972 224 l 1
 972 208 l 1xb93c1003c0
 935 208 l 1
 935 186 l 1xb93c2003c0
 972 186 l 1
 972 0 l 1xb93c1003c0
1093 224 m 1xb93c0403c0
 1093 0 l 1
 1038 0 l 1
 1038 208 l 1
 1002 208 l 1
 1002 224 l 1
 1093 224 l 1xb93c0403c0
1454 261 m 1xb93c0123c0
 1454 0 l 1
 1321 0 l 1xb93c0083c0
 1304 208 l 1
 1292 208 l 1
 1276 0 l 1
 1143 0 l 1
 1143 208 l 1
 1121 208 l 1
 1121 224 l 1
 1196 224 l 1
 1196 17 l 1
 1218 17 l 1
 1234 224 l 1
 1359 224 l 1
 1375 17 l 1
 1395 17 l 1
 1395 261 l 1
 1454 261 l 1xb93c0123c0
1209 253 m 1x993c0243c0
 1209 274 l 1
 1379 274 l 1
 1379 253 l 1
 1209 253 l 1x993c0243c0
1653 224 m 1xb93c0017c0
 1653 0 l 1
 1595 0 l 1
 1595 208 l 1
 1558 208 l 1
 1558 0 l 1
 1500 0 l 1
 1500 208 l 1
 1483 208 l 1
 1483 224 l 1
 1653 224 l 1xb93c0017c0
EndSplineSet
Validated: 1
LCarets2: 13 0 0 0 0 0 0 0 0 0 0 0 0 0 
Ligature2: "'liga' Standard Ligatures in Latin lookup 19 subtable" C H A K R A D e i g n parenleft c parenright
EndChar

StartChar: franc
Encoding: 8355 8355 467
Width: 584
VWidth: 1661
Flags: W
HStem: 0 21G<53 113> 150 59<-7 53 113 292> 329 60<113 472> 658 60<168 502>
VStem: 53 60<0 150 209 329 389 603>
LayerCount: 2
Fore
SplineSet
168 658 m 1
 113 603 l 1
 113 389 l 1
 472 389 l 1
 472 329 l 1
 113 329 l 1
 113 209 l 1
 292 209 l 1
 292 150 l 1
 113 150 l 1
 113 0 l 1
 53 0 l 1
 53 150 l 1
 -7 150 l 1
 -7 209 l 1
 53 209 l 1
 53 628 l 1
 143 718 l 1
 502 718 l 1
 502 658 l 1
 168 658 l 1
EndSplineSet
Validated: 1
EndChar

StartChar: dong
Encoding: 8363 8363 468
Width: 616
VWidth: 1661
Flags: W
HStem: -110 60<56 535> 0 60<171 420> 449 59<171 341> 583 60<385 475 535 595>
VStem: 56 60<115 394> 475 60<115 314 389 583 643 718>
LayerCount: 2
Fore
SplineSet
535 643 m 1
 595 643 l 1
 595 583 l 1
 535 583 l 1
 535 90 l 1
 445 0 l 1
 146 0 l 1
 56 90 l 1
 56 419 l 1
 146 508 l 1
 355 508 l 1
 475 389 l 1
 475 583 l 1
 385 583 l 1
 385 643 l 1
 475 643 l 1
 475 718 l 1
 535 718 l 1
 535 643 l 1
475 115 m 1
 475 314 l 1
 341 449 l 1
 171 449 l 1
 116 394 l 1
 116 115 l 1
 171 60 l 1
 420 60 l 1
 475 115 l 1
56 -110 m 1
 56 -50 l 1
 535 -50 l 1
 535 -110 l 1
 56 -110 l 1
EndSplineSet
Validated: 1
EndChar

StartChar: Dcroat
Encoding: 272 272 475
Width: 616
VWidth: 1661
Flags: W
HStem: 0 60<113 417> 329 60<-7 53 113 322> 658 60<113 417>
VStem: 53 60<60 329 389 658> 472 60<115 603>
CounterMasks: 1 e0
LayerCount: 2
Fore
SplineSet
442 718 m 1
 532 628 l 1
 532 90 l 1
 442 0 l 1
 53 0 l 1
 53 329 l 1
 -7 329 l 1
 -7 389 l 1
 53 389 l 1
 53 718 l 1
 442 718 l 1
472 115 m 1
 472 603 l 1
 417 658 l 1
 113 658 l 1
 113 389 l 1
 322 389 l 1
 322 329 l 1
 113 329 l 1
 113 60 l 1
 417 60 l 1
 472 115 l 1
EndSplineSet
Validated: 1
EndChar

StartChar: dcroat
Encoding: 273 273 476
Width: 616
VWidth: 1661
Flags: W
HStem: 0 60<171 420> 449 59<169 341> 583 60<384 473 533 593>
VStem: 56 60<115 394> 473 60<115 314 389 583 643 718>
LayerCount: 2
Fore
SplineSet
593 643 m 1
 593 583 l 1
 533 583 l 1
 533 90 l 1
 445 0 l 1
 146 0 l 1
 56 90 l 1
 56 419 l 1
 145 508 l 1
 354 508 l 1
 473 389 l 1
 473 583 l 1
 384 583 l 1
 384 643 l 1
 473 643 l 1
 473 718 l 1
 533 718 l 1
 533 643 l 1
 593 643 l 1
473 115 m 1
 473 314 l 1
 341 449 l 1
 169 449 l 1
 116 394 l 1
 116 115 l 1
 171 60 l 1
 420 60 l 1
 473 115 l 1
EndSplineSet
Validated: 1
EndChar

StartChar: Idotaccent
Encoding: 304 304 481
Width: 197
VWidth: 1661
Flags: W
HStem: 0 21<53 113> 696 20<53 113> 767 108<62 107>
VStem: 30 108<798 843> 53 60<0 716>
LayerCount: 2
Back
SplineSet
113 0 m 1
 53 0 l 1
 53 716 l 1
 113 716 l 1
 113 0 l 1
100 859 m 1
 121 837 l 1
 121 806 l 1
 100 784 l 1
 68 784 l 1
 47 806 l 1
 47 837 l 1
 68 859 l 1
 100 859 l 1
EndSplineSet
Fore
Refer: 206 729 N 1 0 0 1 -21 11 2
Refer: 42 73 N 1 0 0 1 0 0 3
Validated: 1
EndChar

StartChar: dotlessi
Encoding: 305 305 482
Width: 197
VWidth: 1661
Flags: W
HStem: 0 21G<55 115> 487 20G<55 115>
VStem: 55 60<0 507>
LayerCount: 2
Fore
SplineSet
55 0 m 1
 55 507 l 1
 115 507 l 1
 115 0 l 1
 55 0 l 1
EndSplineSet
Validated: 1
EndChar

StartChar: Scedilla
Encoding: 350 350 483
Width: 616
VWidth: 1661
Flags: W
HStem: -251 52<218 286> 0 60<184 276 322 419> 359 58<169 419> 656 60<169 404>
VStem: 55 60<472 601> 70 60<113 150> 316 53<-168 -133> 458 60<566 603> 473 60<115 304>
LayerCount: 2
Fore
SplineSet
369 -110 m 1xfa80
 369 -189 l 1
 307 -251 l 1
 218 -251 l 1
 218 -199 l 1
 286 -199 l 1
 316 -168 l 1
 316 -133 l 1
 286 -101 l 1
 218 -101 l 1
 218 -71 l 1
 276 0 l 1
 159 0 l 1
 70 90 l 1
 70 150 l 1
 130 150 l 1
 130 113 l 1
 184 60 l 1
 419 60 l 1
 473 115 l 1
 473 304 l 1xf680
 419 359 l 1
 145 359 l 1
 55 447 l 1
 55 626 l 1
 145 716 l 1
 429 716 l 1
 518 626 l 1
 518 566 l 1
 458 566 l 1
 458 603 l 1xfb
 404 656 l 1
 169 656 l 1
 115 601 l 1
 115 472 l 1
 169 417 l 1
 444 417 l 1
 533 329 l 1
 533 90 l 1
 444 0 l 1
 322 0 l 1
 294 -50 l 1
 307 -50 l 1
 369 -110 l 1xfa80
EndSplineSet
Validated: 1
EndChar

StartChar: scedilla
Encoding: 351 351 484
Width: 617
VWidth: 1661
Flags: W
HStem: -249 51<219 287> 0 60<184 276 322 419> 224 60<169 419> 449 59<169 404>
VStem: 55 60<339 394> 70 60<115 150> 317 53<-166 -131> 458 60<359 394> 473 60<115 171>
LayerCount: 2
Fore
SplineSet
370 -108 m 1xfa80
 370 -188 l 1
 309 -249 l 1
 219 -249 l 1
 219 -198 l 1
 287 -198 l 1
 317 -166 l 1
 317 -131 l 1
 287 -100 l 1
 219 -100 l 1
 219 -70 l 1
 276 0 l 1
 159 0 l 1
 70 90 l 1
 70 150 l 1
 130 150 l 1
 130 115 l 1
 184 60 l 1
 419 60 l 1
 473 115 l 1
 473 171 l 1xf680
 419 224 l 1
 145 224 l 1
 55 314 l 1
 55 419 l 1
 145 508 l 1
 429 508 l 1
 518 419 l 1
 518 359 l 1
 458 359 l 1
 458 394 l 1xfb
 404 449 l 1
 169 449 l 1
 115 394 l 1
 115 339 l 1
 169 284 l 1
 444 284 l 1
 533 196 l 1
 533 90 l 1
 444 0 l 1
 322 0 l 1
 296 -48 l 1
 309 -48 l 1
 370 -108 l 1xfa80
EndSplineSet
Validated: 1
EndChar

StartChar: Ohorn
Encoding: 416 416 487
Width: 646
VWidth: 1661
Flags: W
HStem: 0 60<168 447> 658 60<168 447>
VStem: 53 60<115 603> 502 59<115 603> 533 53<718 754>
LayerCount: 2
Fore
SplineSet
586 754 m 1xe8
 586 696 l 1xe8
 540 650 l 1
 561 628 l 1
 561 90 l 1
 472 0 l 1
 143 0 l 1
 53 90 l 1
 53 628 l 1
 143 718 l 1
 472 718 l 1
 502 688 l 1xf0
 503 688 l 1
 533 718 l 1
 533 754 l 1
 586 754 l 1xe8
502 115 m 1xf0
 502 603 l 1
 447 658 l 1
 168 658 l 1
 113 603 l 1
 113 115 l 1
 168 60 l 1
 447 60 l 1
 502 115 l 1xf0
EndSplineSet
Validated: 1
EndChar

StartChar: ohorn
Encoding: 417 417 488
Width: 616
VWidth: 1661
Flags: W
HStem: 0 60<169 419> 449 59<169 419>
VStem: 55 60<115 394> 473 60<115 394> 503 52<510 547>
LayerCount: 2
Fore
SplineSet
555 547 m 1xe8
 555 488 l 1xe8
 510 442 l 1
 533 419 l 1
 533 90 l 1xf0
 444 0 l 1
 145 0 l 1
 55 90 l 1
 55 419 l 1
 145 508 l 1
 444 508 l 1
 472 480 l 1
 503 510 l 1
 503 547 l 1
 555 547 l 1xe8
419 60 m 1
 473 115 l 1
 473 394 l 1xf0
 419 449 l 1
 169 449 l 1
 115 394 l 1
 115 115 l 1
 169 60 l 1
 419 60 l 1
EndSplineSet
Validated: 1
EndChar

StartChar: Uhorn
Encoding: 431 431 489
Width: 694
VWidth: 1661
Flags: W
HStem: 0 60<168 417> 633 53<532 553>
VStem: 53 60<115 718> 472 60<115 633 686 718> 583 53<716 753>
LayerCount: 2
Fore
SplineSet
583 753 m 1
 636 753 l 1
 636 694 l 1
 575 633 l 1
 532 633 l 1
 532 90 l 1
 442 0 l 1
 143 0 l 1
 53 90 l 1
 53 718 l 1
 113 718 l 1
 113 115 l 1
 168 60 l 1
 417 60 l 1
 472 115 l 1
 472 718 l 1
 532 718 l 1
 532 686 l 1
 553 686 l 1
 583 716 l 1
 583 753 l 1
EndSplineSet
Validated: 1
EndChar

StartChar: uhorn
Encoding: 432 432 490
Width: 661
VWidth: 1661
Flags: W
HStem: 0 60<168 307> 425 52<502 522> 488 20G<53 113 442 502>
VStem: 53 60<115 508> 442 60<0 120 193 425 477 508> 552 51<508 545>
LayerCount: 2
Fore
SplineSet
552 545 m 1
 603 545 l 1
 603 487 l 1
 543 425 l 1
 502 425 l 1
 502 0 l 1
 442 0 l 1
 442 120 l 1
 322 0 l 1
 143 0 l 1
 53 90 l 1
 53 508 l 1
 113 508 l 1
 113 115 l 1
 168 60 l 1
 307 60 l 1
 442 193 l 1
 442 508 l 1
 502 508 l 1
 502 477 l 1
 522 477 l 1
 552 508 l 1
 552 545 l 1
EndSplineSet
Validated: 1
EndChar

StartChar: hookabovecomb
Encoding: 777 777 491
Width: 285
VWidth: 1661
Flags: W
HStem: 861 44<103 155.857>
VStem: 156 45<807 860.809>
LayerCount: 2
Fore
SplineSet
156 846 m 1
 153 848 147 857 143 861 c 1
 115 861 l 1
 114 860 111 858 107 856 c 2
 93 847 l 2
 88 843 81 839 73 836 c 1
 51 847 l 1
 103 905 l 1
 161 905 l 1
 201 865 l 1
 201 807 l 1
 135 756 l 1
 111 769 l 1
 119 780 126 790 133 797 c 2
 148 816 l 2
 152 821 155 825 156 826 c 1
 156 846 l 1
EndSplineSet
Validated: 1
EndChar

StartChar: tildecomb
Encoding: 771 771 492
Width: 443
VWidth: 1661
Flags: W
HStem: 776 106
VStem: 51 309
LayerCount: 2
Fore
SplineSet
341 882 m 1
 360 859 l 1
 239 776 l 1
 164 822 l 1
 71 777 l 1
 51 799 l 1
 168 884 l 1
 244 836 l 1
 341 882 l 1
EndSplineSet
Validated: 1
EndChar

StartChar: acutecomb
Encoding: 769 769 493
Width: 313
VWidth: 1661
Flags: W
HStem: 756 149
VStem: 51 178
LayerCount: 2
Fore
SplineSet
71 756 m 1
 51 776 l 1
 179 905 l 1
 229 856 l 1
 71 756 l 1
EndSplineSet
Validated: 1
EndChar

StartChar: dotbelowcomb
Encoding: 803 803 494
Width: 244
VWidth: 1661
Flags: W
HStem: -158 108<83 128>
VStem: 51 108<-126 -81>
LayerCount: 2
Fore
SplineSet
159 -81 m 1
 159 -126 l 1
 128 -158 l 1
 83 -158 l 1
 51 -126 l 1
 51 -81 l 1
 83 -50 l 1
 128 -50 l 1
 159 -81 l 1
EndSplineSet
Validated: 1
EndChar

StartChar: gravecomb
Encoding: 768 768 495
Width: 313
VWidth: 1661
Flags: W
HStem: 756 149
VStem: 51 180
LayerCount: 2
Fore
SplineSet
209 756 m 1
 51 856 l 1
 101 905 l 1
 231 776 l 1
 209 756 l 1
EndSplineSet
Validated: 1
EndChar

